SplineFontDB: 3.0
FontName: HM_FTXnazli_Outline
FullName: HM_FTXnazli_Outline
FamilyName: HM_FTXnazli_Outline
Weight: Outline
Copyright: Copyright (c) Hossein, 2013. All rights reserved.
Version: 0.1
ItalicAngle: 0
UnderlinePosition: -540
UnderlineWidth: 60
Ascent: 1638
Descent: 410
sfntRevision: 0x00010000
LayerCount: 2
Layer: 0 1 "Back"  1
Layer: 1 1 "Fore"  0
XUID: [1021 102 1371595031 6992056]
FSType: 0
OS2Version: 2
OS2_WeightWidthSlopeOnly: 0
OS2_UseTypoMetrics: 1
CreationTime: 1194658560
ModificationTime: 1360912871
PfmFamily: 17
TTFWeight: 400
TTFWidth: 5
LineGap: 0
VLineGap: 0
Panose: 2 0 5 3 8 0 0 2 0 3
OS2TypoAscent: 2100
OS2TypoAOffset: 0
OS2TypoDescent: -1000
OS2TypoDOffset: 0
OS2TypoLinegap: 0
OS2WinAscent: 2100
OS2WinAOffset: 0
OS2WinDescent: 1000
OS2WinDOffset: 0
HheadAscent: 2100
HheadAOffset: 0
HheadDescent: -1000
HheadDOffset: 0
OS2SubXSize: 1434
OS2SubYSize: 1331
OS2SubXOff: 0
OS2SubYOff: 293
OS2SupXSize: 1434
OS2SupYSize: 1331
OS2SupXOff: 0
OS2SupYOff: 928
OS2StrikeYSize: 102
OS2StrikeYPos: 512
OS2Vendor: 'pars'
OS2CodePages: 20000051.41000000
OS2UnicodeRanges: 00002003.80000000.00000008.00000000
Lookup: 4 0 1 "gsub_ligature_dfl_liga_arab_FAR_Lookup_01"  {"gsub_ligature_dfl_liga_arab_FAR_Lookup_01_Subtable_01"  } ['liga' ('arab' <'FAR ' > ) ]
Lookup: 4 0 1 "gsub_ligature_dfl_liga_arab_FAR_Lookup_02"  {"gsub_ligature_dfl_liga_arab_FAR_Lookup_02_Subtable_01"  } ['liga' ('arab' <'FAR ' > ) ]
Lookup: 3 0 0 "gsub_alternate_dfl_aalt_arab_FAR_Lookup_01"  {"gsub_alternate_dfl_aalt_arab_FAR_Lookup_01_Subtable_01"  } ['aalt' ('arab' <'FAR ' > ) ]
Lookup: 1 1 0 "gsub_single_rtl_fina_arab_FAR_Lookup_01"  {"gsub_single_rtl_fina_arab_FAR_Lookup_01_Subtable_01"  } ['fina' ('arab' <'FAR ' > ) ]
Lookup: 1 1 0 "gsub_single_rtl_init_arab_FAR_Lookup_01"  {"gsub_single_rtl_init_arab_FAR_Lookup_01_Subtable_01"  } ['init' ('arab' <'FAR ' > ) ]

StartChar: .notdef
Encoding: 65536 -1 0
Width: 1122
GlyphClass: 2
Flags: W
LayerCount: 2
Fore
SplineSet
624 299 m 0,0,1
 624 269 624 269 602 246.5 c 128,-1,2
 580 224 580 224 548 224 c 0,3,4
 518 224 518 224 496.5 246.5 c 128,-1,5
 475 269 475 269 475 299 c 0,6,7
 475 331 475 331 496.5 352.5 c 128,-1,8
 518 374 518 374 551 374 c 0,9,10
 581 374 581 374 602.5 352.5 c 128,-1,11
 624 331 624 331 624 299 c 0,0,1
732 780 m 0,12,13
 732 737 732 737 708.5 710 c 128,-1,14
 685 683 685 683 648 683 c 0,15,16
 616 683 616 683 597 701.5 c 128,-1,17
 578 720 578 720 578 749 c 0,18,19
 578 770 578 770 588 785 c 128,-1,20
 598 800 598 800 610.5 810.5 c 128,-1,21
 623 821 623 821 633 829 c 128,-1,22
 643 837 643 837 643 843 c 0,23,24
 643 863 643 863 623.5 875 c 128,-1,25
 604 887 604 887 574 887 c 0,26,27
 536 887 536 887 512 866 c 128,-1,28
 488 845 488 845 488 813 c 0,29,30
 488 795 488 795 498.5 769 c 128,-1,31
 509 743 509 743 521.5 718 c 128,-1,32
 534 693 534 693 545.5 673 c 128,-1,33
 557 653 557 653 559 648 c 0,34,35
 570 619 570 619 576.5 583.5 c 128,-1,36
 583 548 583 548 583 513 c 0,37,38
 583 492 583 492 581.5 470.5 c 128,-1,39
 580 449 580 449 578 424 c 1,40,-1
 539 424 l 1,41,-1
 539 442 l 1,42,-1
 543 472 l 1,43,44
 543 505 543 505 498 544 c 0,45,46
 425 609 425 609 416 620 c 0,47,48
 371 673 371 673 371 740 c 0,49,50
 371 781 371 781 386 815.5 c 128,-1,51
 401 850 401 850 426.5 875.5 c 128,-1,52
 452 901 452 901 486.5 915 c 128,-1,53
 521 929 521 929 560 929 c 0,54,55
 595 929 595 929 626.5 918.5 c 128,-1,56
 658 908 658 908 681.5 888.5 c 128,-1,57
 705 869 705 869 718.5 841.5 c 128,-1,58
 732 814 732 814 732 780 c 0,12,13
132 31 m 1,59,-1
 992 31 l 1,60,-1
 992 1122 l 1,61,-1
 132 1122 l 1,62,-1
 132 31 l 1,59,-1
100 0 m 1,63,-1
 100 1154 l 1,64,-1
 1022 1154 l 1,65,-1
 1022 0 l 1,66,-1
 100 0 l 1,63,-1
EndSplineSet
EndChar

StartChar: exclam
Encoding: 33 33 4
Width: 567
VWidth: 1639
GlyphClass: 2
Flags: W
LayerCount: 2
Fore
SplineSet
188.560546875 265.6796875 m 1,0,1
 188.447265625 293.928710938 188.447265625 293.928710938 180.360351562 410 c 0,2,3
 168.071289062 602.189453125 168.071289062 602.189453125 141 797.040039062 c 0,4,5
 103.938476562 1049.73242188 103.938476562 1049.73242188 100.935546875 1123.07519531 c 0,6,7
 100.034179688 1146.70898438 100.034179688 1146.70898438 100 1167.6796875 c 0,6,7
 100.538085938 1314.01074219 100.538085938 1314.01074219 121.3203125 1375.95996094 c 1,8,9
 145.315429688 1441.34765625 145.315429688 1441.34765625 191.83984375 1453.04003906 c 0,10,11
 201.166015625 1454.96875 201.166015625 1454.96875 232.83984375 1454.6796875 c 0,12,13
 274.229492188 1453.9609375 274.229492188 1453.9609375 286.959960938 1448.12011719 c 0,14,15
 320.372070312 1428.88671875 320.372070312 1428.88671875 339.440429688 1375.95996094 c 1,16,17
 360.700195312 1310.55371094 360.700195312 1310.55371094 360.759765625 1192.28027344 c 0,18,19
 360.759765625 1072.23925781 360.759765625 1072.23925781 318.524414062 783.7109375 c 0,20,21
 313.389648438 748.529296875 313.389648438 748.529296875 309.919921875 723.240234375 c 0,20,21
 278.759765625 484.346679688 278.759765625 484.346679688 278.759765625 265.6796875 c 1,22,-1
 188.560546875 265.6796875 l 1,0,1
234.48046875 359.16015625 m 1,23,24
 234.48046875 534.399414062 234.48046875 534.399414062 285.646484375 915.43359375 c 0,25,26
 306.1328125 1068.42089844 306.1328125 1068.42089844 314.83984375 1156.20019531 c 1,25,26
 322.458007812 1258.88964844 322.458007812 1258.88964844 286.959960938 1346.44042969 c 1,27,28
 264.674804688 1394.17089844 264.674804688 1394.17089844 234.48046875 1403.83984375 c 1,29,30
 208.700195312 1407.63574219 208.700195312 1407.63574219 180.360351562 1361.20019531 c 0,31,32
 146.047851562 1301.84082031 146.047851562 1301.84082031 145.919921875 1175.87988281 c 0,33,34
 146.162109375 1116.00488281 146.162109375 1116.00488281 167.240234375 975.799804688 c 0,35,36
 172.70703125 935.893554688 172.70703125 935.893554688 184.733398438 856.080078125 c 0,37,38
 208.780273438 695.90625 208.780273438 695.90625 216.440429688 616.639648438 c 0,37,38
 221.181640625 560.778320312 221.181640625 560.778320312 227.919921875 442.799804688 c 0,39,40
 228.064453125 421.737304688 228.064453125 421.737304688 231.200195312 387.040039062 c 0,41,42
 232.001953125 364.13671875 232.001953125 364.13671875 234.48046875 359.16015625 c 1,23,24
198.400390625 229.599609375 m 0,43,44
 305.51953125 244.631835938 305.51953125 244.631835938 349.280273438 183.6796875 c 0,45,46
 352.560546875 178.759765625 352.560546875 178.759765625 355.020507812 174.66015625 c 0,47,48
 357.48046875 170.559570312 357.48046875 170.559570312 359.120117188 166.459960938 c 0,49,50
 360.759765625 162.360351562 360.759765625 162.360351562 361.580078125 156.620117188 c 0,51,52
 362.400390625 150.879882812 362.400390625 150.879882812 363.219726562 148.419921875 c 0,53,54
 364.040039062 145.959960938 364.040039062 145.959960938 364.860351562 138.580078125 c 0,55,56
 365.6796875 131.200195312 365.6796875 131.200195312 365.6796875 129.559570312 c 0,57,58
 365.6796875 127.919921875 365.6796875 127.919921875 366.5 118.900390625 c 2,59,-1
 367.3203125 109.879882812 l 1,47,48
 368.073242188 -9.7451171875 368.073242188 -9.7451171875 280.400390625 -26.240234375 c 1,49,50
 172.223632812 -40.94140625 172.223632812 -40.94140625 127.879882812 18.0400390625 c 0,51,52
 109.854492188 44.3603515625 109.854492188 44.3603515625 109.83984375 96.759765625 c 0,53,54
 110.125 142.697265625 110.125 142.697265625 111.48046875 150.879882812 c 0,55,56
 127.793945312 209.14453125 127.793945312 209.14453125 184.751953125 226.447265625 c 0,57,58
 192.33984375 228.52734375 192.33984375 228.52734375 198.400390625 229.599609375 c 0,43,44
237.759765625 180.400390625 m 0,57,58
 200.580078125 180.400390625 200.580078125 180.400390625 170.818359375 136.680664062 c 0,59,60
 158.182617188 118.118164062 158.182617188 118.118164062 157.400390625 101.6796875 c 0,59,60
 157.400390625 64.720703125 157.400390625 64.720703125 202.349609375 34.73828125 c 0,61,62
 221.883789062 22.65234375 221.883789062 22.65234375 237.759765625 21.3203125 c 0,61,62
 274.940429688 21.3203125 274.940429688 21.3203125 304.701171875 65.0400390625 c 0,63,64
 317.336914062 83.6015625 317.336914062 83.6015625 318.120117188 100.040039062 c 0,63,64
 319.818359375 135.698242188 319.818359375 135.698242188 275.741210938 166.21484375 c 0,65,66
 254.698242188 179.737304688 254.698242188 179.737304688 237.759765625 180.400390625 c 0,57,58
EndSplineSet
EndChar

StartChar: percent
Encoding: 37 37 8
Width: 1238
VWidth: 1639
GlyphClass: 2
Flags: W
LayerCount: 2
Fore
SplineSet
859.725585938 1530.12011719 m 1,0,-1
 881.045898438 1523.55957031 l 1,1,-1
 882.685546875 1530.12011719 l 1,2,-1
 904.005859375 1523.55957031 l 1,3,-1
 905.645507812 1530.12011719 l 1,4,-1
 971.245117188 1507.16015625 l 1,5,-1
 964.685546875 1485.83984375 l 1,6,-1
 971.245117188 1484.20019531 l 1,7,-1
 964.685546875 1462.87988281 l 1,8,-1
 971.245117188 1461.24023438 l 1,9,-1
 948.28515625 1394 l 1,10,-1
 913.845703125 1295.59960938 l 1,11,-1
 792.485351562 946.280273438 l 1,12,-1
 549.765625 255.83984375 l 1,13,-1
 398.885742188 -175.48046875 l 1,14,-1
 377.565429688 -168.919921875 l 1,15,-1
 375.92578125 -175.48046875 l 1,16,-1
 354.60546875 -168.919921875 l 1,17,-1
 352.965820312 -175.48046875 l 1,18,-1
 284.0859375 -152.51953125 l 1,19,-1
 289.005859375 -129.559570312 l 1,20,-1
 284.0859375 -129.559570312 l 1,21,-1
 289.005859375 -106.599609375 l 1,22,-1
 284.0859375 -106.599609375 l 1,23,-1
 302.125976562 -49.2001953125 l 1,24,-1
 341.485351562 62.3203125 l 1,25,-1
 461.205078125 401.799804688 l 1,26,-1
 715.405273438 1120.12011719 l 1,27,-1
 859.725585938 1530.12011719 l 1,0,-1
912.205078125 1466.16015625 m 1,28,-1
 900.725585938 1469.44042969 l 1,29,-1
 833.485351562 1280.83984375 l 1,30,-1
 694.0859375 885.599609375 l 1,31,-1
 343.125976562 -109.879882812 l 1,32,-1
 356.245117188 -113.16015625 l 1,33,-1
 366.0859375 -90.2001953125 l 1,34,-1
 387.405273438 -31.16015625 l 1,35,-1
 487.4453125 252.559570312 l 1,36,-1
 912.205078125 1466.16015625 l 1,28,-1
213.565429688 1402.20019531 m 1,37,38
 321.71484375 1417.39355469 321.71484375 1417.39355469 364.4453125 1357.91992188 c 0,39,40
 382.471679688 1331.50097656 382.471679688 1331.50097656 382.485351562 1279.20019531 c 0,41,42
 382.173828125 1237.36035156 382.173828125 1237.36035156 380.845703125 1230 c 0,43,44
 369.508789062 1171.04785156 369.508789062 1171.04785156 312.295898438 1152.03613281 c 0,45,46
 303.233398438 1149.31054688 303.233398438 1149.31054688 295.565429688 1148 c 0,45,46
 190.955078125 1132.15625 190.955078125 1132.15625 147.965820312 1185.71972656 c 0,47,48
 128.018554688 1212.33105469 128.018554688 1212.33105469 125.005859375 1266.08007812 c 1,49,50
 124.30859375 1385.79589844 124.30859375 1385.79589844 213.565429688 1402.20019531 c 1,37,38
252.92578125 1354.63964844 m 0,51,52
 214.5390625 1350.984375 214.5390625 1350.984375 186.706054688 1309.91210938 c 0,53,54
 174.09765625 1289.62109375 174.09765625 1289.62109375 174.205078125 1272.63964844 c 0,53,54
 175.974609375 1237.25195312 175.974609375 1237.25195312 217.1484375 1207.56835938 c 0,55,56
 238.427734375 1192.2265625 238.427734375 1192.2265625 256.205078125 1193.91992188 c 0,55,56
 294.65234375 1197.58203125 294.65234375 1197.58203125 322.646484375 1239.57617188 c 0,57,58
 334.314453125 1258.63378906 334.314453125 1258.63378906 334.92578125 1274.28027344 c 0,57,58
 334.92578125 1309.83496094 334.92578125 1309.83496094 292.390625 1340.18945312 c 0,59,60
 270.940429688 1355.49804688 270.940429688 1355.49804688 252.92578125 1354.63964844 c 0,51,52
945.005859375 218.120117188 m 1,59,60
 1051.57226562 230.267578125 1051.57226562 230.267578125 1092.60546875 177.120117188 c 0,61,62
 1113.80371094 147.03125 1113.80371094 147.03125 1113.92578125 93.48046875 c 0,63,64
 1113.51953125 47.529296875 1113.51953125 47.529296875 1110.64550781 36.080078125 c 0,65,66
 1094.34082031 -17.4921875 1094.34082031 -17.4921875 1038.765625 -34.5546875 c 0,67,68
 1031.28320312 -36.6328125 1031.28320312 -36.6328125 1025.36523438 -37.7197265625 c 0,67,68
 919.001953125 -52.6259765625 919.001953125 -52.6259765625 874.485351562 6.5595703125 c 1,69,70
 856.572265625 35.265625 856.572265625 35.265625 856.4453125 85.2802734375 c 0,71,72
 858.974609375 201.990234375 858.974609375 201.990234375 945.005859375 218.120117188 c 1,59,60
984.365234375 170.559570312 m 0,73,74
 946.471679688 168.755859375 946.471679688 168.755859375 917.924804688 125.2578125 c 0,75,76
 906.252929688 105.93359375 906.252929688 105.93359375 905.645507812 90.2001953125 c 0,75,76
 903.947265625 54.541015625 903.947265625 54.541015625 948.024414062 24.0244140625 c 0,77,78
 969.067382812 10.5029296875 969.067382812 10.5029296875 986.005859375 9.83984375 c 0,77,78
 1023.89941406 11.64453125 1023.89941406 11.64453125 1052.44628906 55.142578125 c 0,79,80
 1064.11816406 74.4658203125 1064.11816406 74.4658203125 1064.72558594 90.2001953125 c 0,79,80
 1064.72558594 126.311523438 1064.72558594 126.311523438 1021.95996094 156.375 c 0,81,82
 1001.203125 169.893554688 1001.203125 169.893554688 984.365234375 170.559570312 c 0,73,74
EndSplineSet
EndChar

StartChar: parenleft
Encoding: 40 40 11
Width: 767
VWidth: 1639
GlyphClass: 2
Flags: W
LayerCount: 2
Fore
SplineSet
591.965820312 1336.59960938 m 0,0,1
 595.658203125 1337.27929688 595.658203125 1337.27929688 608.365234375 1336.59960938 c 0,2,3
 648.129882812 1336.59960938 648.129882812 1336.59960938 650.108398438 1335.90820312 c 0,4,5
 657.126953125 1332.33398438 657.126953125 1332.33398438 660.845703125 1328.40039062 c 0,4,5
 669.947265625 1316.08203125 669.947265625 1316.08203125 665.765625 1279.20019531 c 0,6,7
 665.095703125 1275.85351562 665.095703125 1275.85351562 665.920898438 1269.8671875 c 0,8,9
 665.879882812 1261.23730469 665.879882812 1261.23730469 664.125976562 1257.87988281 c 0,8,9
 651.639648438 1231.94824219 651.639648438 1231.94824219 584.939453125 1139.46875 c 0,10,11
 582.0703125 1135.46582031 582.0703125 1135.46582031 580.485351562 1133.24023438 c 0,10,11
 502.55078125 1021.90527344 502.55078125 1021.90527344 454.205078125 931.51953125 c 0,12,13
 336.970703125 710.145507812 336.970703125 710.145507812 327.92578125 526.440429688 c 1,14,15
 319.98046875 320.403320312 319.98046875 320.403320312 441.0859375 80.3603515625 c 0,16,17
 482.780273438 -3.0302734375 482.780273438 -3.0302734375 613.533203125 -181.661132812 c 0,18,19
 635.219726562 -211.338867188 635.219726562 -211.338867188 649.365234375 -231.240234375 c 0,18,19
 662.799804688 -249.471679688 662.799804688 -249.471679688 665.765625 -254.200195312 c 0,20,21
 667.81640625 -261.017578125 667.81640625 -261.017578125 667.405273438 -278.799804688 c 0,22,23
 667.405273438 -322.376953125 667.405273438 -322.376953125 663.040039062 -329.672851562 c 0,24,25
 657.259765625 -336.5703125 657.259765625 -336.5703125 651.005859375 -339.48046875 c 0,24,25
 643.288085938 -341.440429688 643.288085938 -341.440429688 619.845703125 -341.120117188 c 2,26,27
 575.565429688 -341.120117188 l 1,28,29
 549.490234375 -334.6015625 549.490234375 -334.6015625 491.409179688 -282.697265625 c 0,30,31
 488.32421875 -279.963867188 488.32421875 -279.963867188 487.005859375 -278.799804688 c 0,30,31
 317.815429688 -132.401367188 317.815429688 -132.401367188 221.325195312 47.5595703125 c 1,32,33
 148.665039062 188.2578125 148.665039062 188.2578125 121.28515625 305.040039062 c 1,34,35
 51.4521484375 625.555664062 51.4521484375 625.555664062 210.733398438 929.637695312 c 0,36,37
 267.165039062 1036.359375 267.165039062 1036.359375 345.965820312 1126.6796875 c 0,36,37
 433.662109375 1224.65234375 433.662109375 1224.65234375 519.805664062 1289.04003906 c 0,38,39
 524.861328125 1292.92871094 524.861328125 1292.92871094 535.50390625 1301.95117188 c 0,40,41
 572.583984375 1332.26757812 572.583984375 1332.26757812 591.965820312 1336.59960938 c 0,0,1
590.325195312 1261.16015625 m 1,40,41
 524.009765625 1222.80566406 524.009765625 1222.80566406 426.325195312 1118.48046875 c 0,42,43
 226.397460938 909.137695312 226.397460938 909.137695312 168.845703125 657.639648438 c 0,44,45
 147.44921875 561.0703125 147.44921875 561.0703125 149.166015625 496.919921875 c 0,46,47
 156.91015625 245.545898438 156.91015625 245.545898438 331.205078125 -8.2001953125 c 1,48,49
 408.8203125 -117.950195312 408.8203125 -117.950195312 518.166015625 -219.759765625 c 0,50,51
 576.849609375 -274.776367188 576.849609375 -274.776367188 597.254882812 -284.690429688 c 0,52,53
 605.424804688 -288.349609375 605.424804688 -288.349609375 611.645507812 -290.280273438 c 1,52,53
 605.6953125 -276.869140625 605.6953125 -276.869140625 578.845703125 -242.719726562 c 0,54,55
 552.350585938 -207.259765625 552.350585938 -207.259765625 521.4453125 -162.360351562 c 0,56,57
 414.288085938 -13.966796875 414.288085938 -13.966796875 364.005859375 100.040039062 c 0,58,59
 224.772460938 413.8046875 224.772460938 413.8046875 314.48046875 746.23828125 c 0,60,61
 339.021484375 835.919921875 339.021484375 835.919921875 378.765625 918.400390625 c 0,60,61
 432.05078125 1026.81738281 432.05078125 1026.81738281 501.765625 1131.59960938 c 0,62,63
 512.463867188 1147.96289062 512.463867188 1147.96289062 536.372070312 1180.33398438 c 0,64,65
 575.301757812 1233.50976562 575.301757812 1233.50976562 590.325195312 1261.16015625 c 1,40,41
EndSplineSet
EndChar

StartChar: parenright
Encoding: 41 41 12
Width: 867
VWidth: 1639
GlyphClass: 2
Flags: W
LayerCount: 2
Fore
SplineSet
125.133789062 1336.59960938 m 0,0,1
 167.515625 1343.01367188 167.515625 1343.01367188 198.93359375 1333.3203125 c 0,2,3
 224.90625 1324.66210938 224.90625 1324.66210938 280.158203125 1274.28613281 c 0,4,5
 284.8828125 1270.03125 284.8828125 1270.03125 287.493164062 1267.71972656 c 0,4,5
 415.951171875 1151.109375 415.951171875 1151.109375 505.61328125 1013.51953125 c 1,6,7
 606.404296875 853.270507812 606.404296875 853.270507812 643.374023438 695.360351562 c 0,8,9
 716.072265625 379.120117188 716.072265625 379.120117188 566.80078125 79.447265625 c 0,10,11
 514.821289062 -23.8720703125 514.821289062 -23.8720703125 441.653320312 -111.51953125 c 0,10,11
 362.314453125 -206.9140625 362.314453125 -206.9140625 257.973632812 -288.639648438 c 0,12,13
 252.721679688 -292.6796875 252.721679688 -292.6796875 241.12109375 -302.609375 c 0,14,15
 201.331054688 -335.630859375 201.331054688 -335.630859375 180.893554688 -341.120117188 c 0,14,15
 172.223632812 -343.2734375 172.223632812 -343.2734375 125.133789062 -342.759765625 c 0,16,17
 97.333984375 -341.030273438 97.333984375 -341.030273438 102.173828125 -285.360351562 c 1,18,19
 102.173828125 -265.6796875 l 1,20,21
 109.155273438 -247.737304688 109.155273438 -247.737304688 146.454101562 -198.440429688 c 0,22,23
 205.75390625 -115.836914062 205.75390625 -115.836914062 231.733398438 -73.7998046875 c 0,24,25
 428.595703125 235.12109375 428.595703125 235.12109375 441.232421875 471.579101562 c 0,26,27
 441.497070312 476.873046875 441.497070312 476.873046875 441.653320312 480.51953125 c 0,26,27
 443.302734375 544.51953125 443.302734375 544.51953125 425.25390625 641.240234375 c 0,28,29
 383.435546875 846.635742188 383.435546875 846.635742188 246.493164062 1044.6796875 c 0,30,31
 201.3984375 1110.99023438 201.3984375 1110.99023438 149.733398438 1180.79980469 c 0,32,33
 144.956054688 1187.70117188 144.956054688 1187.70117188 133.198242188 1202.01757812 c 0,34,35
 108.017578125 1233.66503906 108.017578125 1233.66503906 102.173828125 1249.6796875 c 0,34,35
 100.123046875 1256.49707031 100.123046875 1256.49707031 100.533203125 1274.28027344 c 0,36,37
 97.376953125 1321.625 97.376953125 1321.625 112.916992188 1331.77539062 c 0,38,39
 119.237304688 1335.09082031 119.237304688 1335.09082031 125.133789062 1336.59960938 c 0,0,1
175.973632812 -268.959960938 m 1,38,39
 249.255859375 -227.298828125 249.255859375 -227.298828125 362.93359375 -103.3203125 c 0,40,41
 555.45703125 103.694335938 555.45703125 103.694335938 604.427734375 356.512695312 c 0,42,43
 620.348632812 440.70703125 620.348632812 440.70703125 617.133789062 519.879882812 c 0,42,43
 607.03125 732.560546875 607.03125 732.560546875 471.173828125 949.559570312 c 0,44,45
 369.530273438 1108.953125 369.530273438 1108.953125 246.493164062 1218.51953125 c 0,46,47
 239.618164062 1224.24902344 239.618164062 1224.24902344 225.797851562 1236.16894531 c 0,48,49
 199.0625 1259.07421875 199.0625 1259.07421875 185.813476562 1269.36035156 c 0,48,49
 166.735351562 1283.23925781 166.735351562 1283.23925781 154.653320312 1284.12011719 c 1,50,51
 162.959960938 1269.42382812 162.959960938 1269.42382812 226.106445312 1185.68261719 c 0,52,53
 230.512695312 1179.78710938 230.512695312 1179.78710938 233.374023438 1175.87988281 c 0,52,53
 352.588867188 1007.73242188 352.588867188 1007.73242188 399.013671875 908.559570312 c 0,54,55
 524.784179688 630.817382812 524.784179688 630.817382812 477.733398438 346.040039062 c 0,56,57
 455.975585938 216.244140625 455.975585938 216.244140625 382.61328125 60.6796875 c 0,58,59
 330.954101562 -45.099609375 330.954101562 -45.099609375 264.533203125 -141.040039062 c 0,60,61
 254.693359375 -155.252929688 254.693359375 -155.252929688 233.919921875 -183.315429688 c 0,62,63
 192.22265625 -240.059570312 192.22265625 -240.059570312 175.973632812 -268.959960938 c 1,38,39
EndSplineSet
EndChar

StartChar: plus
Encoding: 43 43 14
Width: 870
VWidth: 1639
GlyphClass: 2
Flags: W
LayerCount: 2
Fore
SplineSet
365.520507812 897.080078125 m 1,0,-1
 506.560546875 897.080078125 l 1,1,-1
 506.560546875 539.559570312 l 1,2,-1
 862.440429688 539.559570312 l 1,3,-1
 862.440429688 400.16015625 l 1,4,-1
 506.560546875 400.16015625 l 1,5,-1
 506.560546875 44.2802734375 l 1,6,-1
 365.520507812 44.2802734375 l 1,7,-1
 365.520507812 400.16015625 l 1,8,-1
 8 400.16015625 l 1,9,-1
 8 539.559570312 l 1,10,-1
 365.520507812 539.559570312 l 1,11,-1
 365.520507812 897.080078125 l 1,0,-1
460.639648438 851.16015625 m 1,12,-1
 411.440429688 851.16015625 l 1,13,-1
 411.440429688 493.639648438 l 1,14,-1
 53.919921875 493.639648438 l 1,15,-1
 53.919921875 446.080078125 l 1,16,-1
 411.440429688 446.080078125 l 1,17,-1
 411.440429688 90.2001953125 l 1,18,-1
 460.639648438 90.2001953125 l 1,19,-1
 460.639648438 446.080078125 l 1,20,-1
 816.520507812 446.080078125 l 1,21,-1
 816.520507812 493.639648438 l 1,22,-1
 460.639648438 493.639648438 l 1,23,-1
 460.639648438 851.16015625 l 1,12,-1
EndSplineSet
EndChar

StartChar: hyphen
Encoding: 45 45 16
AltUni2: 002212.ffffffff.0 0000ad.ffffffff.0
Width: 1094
VWidth: 1639
GlyphClass: 2
Flags: W
LayerCount: 2
Fore
SplineSet
120 541.200195312 m 1,0,-1
 974.440429688 541.200195312 l 1,1,-1
 974.440429688 400.16015625 l 1,2,-1
 120 400.16015625 l 1,3,-1
 120 541.200195312 l 1,0,-1
928.520507812 495.280273438 m 1,4,-1
 165.919921875 495.280273438 l 1,5,-1
 165.919921875 446.080078125 l 1,6,-1
 928.520507812 446.080078125 l 1,7,-1
 928.520507812 495.280273438 l 1,4,-1
EndSplineSet
EndChar

StartChar: period
Encoding: 46 46 17
Width: 557
VWidth: 1639
GlyphClass: 2
Flags: W
LayerCount: 2
Fore
SplineSet
193.482421875 236.16015625 m 1,0,1
 299.0703125 247.254882812 299.0703125 247.254882812 341.08203125 188.599609375 c 1,2,3
 357.344726562 161.484375 357.344726562 161.484375 357.482421875 118.080078125 c 0,4,5
 356.997070312 63.9453125 356.997070312 63.9453125 354.202148438 54.1201171875 c 0,6,7
 340.717773438 2.4287109375 340.717773438 2.4287109375 286.440429688 -15.7197265625 c 0,8,9
 277.750976562 -18.3583984375 277.750976562 -18.3583984375 270.5625 -19.6796875 c 0,8,9
 164.828125 -34.5234375 164.828125 -34.5234375 121.322265625 21.3203125 c 1,10,11
 102.999023438 47.9384765625 102.999023438 47.9384765625 100.001953125 98.400390625 c 1,12,13
 99.54296875 219.427734375 99.54296875 219.427734375 193.482421875 236.16015625 c 1,0,1
224.641601562 186.959960938 m 1,14,15
 183.436523438 178.71875 183.436523438 178.71875 158.958984375 139.254882812 c 0,16,17
 149.1015625 121.627929688 149.1015625 121.627929688 149.202148438 106.599609375 c 0,16,17
 150.927734375 70.359375 150.927734375 70.359375 191.21875 41.353515625 c 0,18,19
 214.169921875 26.1611328125 214.169921875 26.1611328125 232.841796875 27.8798828125 c 0,18,19
 271.983398438 33.7509765625 271.983398438 33.7509765625 298.428710938 73.16015625 c 0,20,21
 310.686523438 91.427734375 310.686523438 91.427734375 309.921875 108.240234375 c 0,20,21
 308.176757812 144.884765625 308.176757812 144.884765625 265.989257812 174.037109375 c 0,22,23
 242.995117188 188.657226562 242.995117188 188.657226562 224.641601562 186.959960938 c 1,14,15
EndSplineSet
EndChar

StartChar: slash
Encoding: 47 47 18
Width: 473
VWidth: 1639
GlyphClass: 2
Flags: W
LayerCount: 2
Fore
SplineSet
7.919921875 -93.48046875 m 1,0,1
 1.359375 -91.83984375 1.359375 -91.83984375 6.6669921875 -74.7470703125 c 0,2,3
 7.919921875 -73.7998046875 7.919921875 -73.7998046875 7.919921875 -72.16015625 c 2,4,-1
 7.919921875 -70.51953125 l 2,2,3
 8.701171875 -65.8916015625 8.701171875 -65.8916015625 22.6796875 -1.6396484375 c 0,4,5
 66.6142578125 186.91015625 66.6142578125 186.91015625 88.2802734375 296.83984375 c 0,6,7
 117.409179688 442.27734375 117.409179688 442.27734375 267.040039062 1105.36035156 c 1,8,9
 296.743164062 1253.47460938 296.743164062 1253.47460938 314.599609375 1325.12011719 c 0,10,11
 317.059570312 1334.95996094 317.059570312 1334.95996094 321.16015625 1353.8203125 c 0,12,13
 325.443359375 1373.28515625 325.443359375 1373.28515625 327.719726562 1382.51953125 c 2,12,13
 334.280273438 1408.75976562 l 1,14,15
 338.123046875 1411.48925781 338.123046875 1411.48925781 367.080078125 1410.40039062 c 2,16,-1
 463.83984375 1410.40039062 l 1,17,-1
 458.919921875 1387.44042969 l 1,18,19
 465.479492188 1385.79980469 465.479492188 1385.79980469 460.172851562 1368.70703125 c 0,20,21
 458.919921875 1367.75976562 458.919921875 1367.75976562 458.919921875 1366.12011719 c 2,22,-1
 458.919921875 1364.48046875 l 1,20,21
 463.635742188 1359.82519531 463.635742188 1359.82519531 460.559570312 1344.79980469 c 2,22,23
 445.799804688 1280.83984375 l 2,24,25
 436.780273438 1235.74023438 436.780273438 1235.74023438 416.280273438 1146.36035156 c 0,26,27
 395.69921875 1056.41992188 395.69921875 1056.41992188 386.759765625 1011.87988281 c 0,26,27
 383.989257812 998.270507812 383.989257812 998.270507812 217.982421875 239.348632812 c 0,28,29
 212.6640625 215.020507812 212.6640625 215.020507812 208 193.51953125 c 0,28,29
 199.505859375 155.012695312 199.505859375 155.012695312 181.749023438 78.4501953125 c 0,30,31
 148.094726562 -66.947265625 148.094726562 -66.947265625 134.200195312 -139.400390625 c 1,30,-1
 3 -139.400390625 l 1,31,-1
 7.919921875 -116.440429688 l 1,32,33
 1.359375 -114.799804688 1.359375 -114.799804688 6.6669921875 -97.70703125 c 0,34,35
 7.919921875 -96.759765625 7.919921875 -96.759765625 7.919921875 -95.1201171875 c 2,36,-1
 7.919921875 -93.48046875 l 1,0,1
408.080078125 1364.48046875 m 1,34,-1
 381.83984375 1362.83984375 l 1,35,-1
 373.639648438 1341.51953125 l 1,36,-1
 362.16015625 1284.12011719 l 1,37,-1
 304.759765625 1026.63964844 l 1,38,-1
 148.959960938 314.879882812 l 1,39,-1
 91.5595703125 54.1201171875 l 1,40,-1
 58.759765625 -93.48046875 l 1,41,-1
 88.2802734375 -93.48046875 l 1,42,-1
 162.080078125 239.440429688 l 1,43,-1
 322.799804688 979.080078125 l 1,44,-1
 408.080078125 1364.48046875 l 1,34,-1
EndSplineSet
EndChar

StartChar: colon
Encoding: 58 58 29
Width: 558
VWidth: 1639
GlyphClass: 2
Flags: W
LayerCount: 2
Fore
SplineSet
190.306640625 770.799804688 m 0,0,1
 299.845703125 785.610351562 299.845703125 785.610351562 342.826171875 721.599609375 c 1,2,3
 357.438476562 696.106445312 357.438476562 696.106445312 357.586914062 652.719726562 c 0,4,5
 357.1953125 599.173828125 357.1953125 599.173828125 355.946289062 593.6796875 c 0,6,7
 342.49609375 539.877929688 342.49609375 539.877929688 290.389648438 519.908203125 c 0,8,9
 280.607421875 516.505859375 280.607421875 516.505859375 272.306640625 514.959960938 c 0,8,9
 162.399414062 500.030273438 162.399414062 500.030273438 118.146484375 560.879882812 c 0,10,11
 103.090820312 583.587890625 103.090820312 583.587890625 100.106445312 633.040039062 c 1,12,13
 97.0302734375 749.9453125 97.0302734375 749.9453125 182.9375 769.372070312 c 0,14,15
 187.415039062 770.290039062 187.415039062 770.290039062 190.306640625 770.799804688 c 0,0,1
229.666992188 721.599609375 m 0,14,15
 192.879882812 721.599609375 192.879882812 721.599609375 162.763671875 678.833984375 c 0,16,17
 149.227539062 657.983398438 149.227539062 657.983398438 149.306640625 641.240234375 c 0,16,17
 151.111328125 603.345703125 151.111328125 603.345703125 194.609375 574.799804688 c 0,18,19
 213.3203125 562.51953125 213.3203125 562.51953125 229.666992188 562.51953125 c 0,18,19
 265.778320312 562.51953125 265.778320312 562.51953125 295.841796875 605.286132812 c 0,20,21
 309.359375 626.041992188 309.359375 626.041992188 310.026367188 642.879882812 c 0,20,21
 308.221679688 680.7734375 308.221679688 680.7734375 264.723632812 709.3203125 c 0,22,23
 246.012695312 721.599609375 246.012695312 721.599609375 229.666992188 721.599609375 c 0,14,15
193.586914062 236.16015625 m 1,22,23
 299.174804688 247.254882812 299.174804688 247.254882812 341.186523438 188.599609375 c 1,24,25
 357.44921875 161.484375 357.44921875 161.484375 357.586914062 118.080078125 c 0,26,27
 357.1015625 63.9453125 357.1015625 63.9453125 354.306640625 54.1201171875 c 0,28,29
 340.822265625 2.4287109375 340.822265625 2.4287109375 286.544921875 -15.7197265625 c 0,30,31
 277.85546875 -18.3583984375 277.85546875 -18.3583984375 270.666992188 -19.6796875 c 0,30,31
 164.932617188 -34.5234375 164.932617188 -34.5234375 121.426757812 21.3203125 c 1,32,33
 103.103515625 47.9384765625 103.103515625 47.9384765625 100.106445312 98.400390625 c 1,34,35
 99.6474609375 219.427734375 99.6474609375 219.427734375 193.586914062 236.16015625 c 1,22,23
224.74609375 186.959960938 m 1,36,37
 183.541015625 178.71875 183.541015625 178.71875 159.063476562 139.254882812 c 0,38,39
 149.206054688 121.627929688 149.206054688 121.627929688 149.306640625 106.599609375 c 0,38,39
 151.032226562 70.359375 151.032226562 70.359375 191.323242188 41.353515625 c 0,40,41
 214.274414062 26.1611328125 214.274414062 26.1611328125 232.946289062 27.8798828125 c 0,40,41
 272.087890625 33.7509765625 272.087890625 33.7509765625 298.533203125 73.16015625 c 0,42,43
 310.791015625 91.427734375 310.791015625 91.427734375 310.026367188 108.240234375 c 0,42,43
 308.28125 144.884765625 308.28125 144.884765625 266.09375 174.037109375 c 0,44,45
 243.099609375 188.657226562 243.099609375 188.657226562 224.74609375 186.959960938 c 1,36,37
EndSplineSet
EndChar

StartChar: equal
Encoding: 61 61 32
Width: 870
VWidth: 1639
GlyphClass: 2
Flags: W
LayerCount: 2
Fore
SplineSet
8 682.240234375 m 1,0,-1
 862.440429688 682.240234375 l 1,1,-1
 862.440429688 541.200195312 l 1,2,-1
 8 541.200195312 l 1,3,-1
 8 682.240234375 l 1,0,-1
816.520507812 636.3203125 m 1,4,-1
 53.919921875 636.3203125 l 1,5,-1
 53.919921875 587.120117188 l 1,6,-1
 816.520507812 587.120117188 l 1,7,-1
 816.520507812 636.3203125 l 1,4,-1
8 377.200195312 m 1,8,-1
 862.440429688 377.200195312 l 1,9,-1
 862.440429688 236.16015625 l 1,10,-1
 8 236.16015625 l 1,11,-1
 8 377.200195312 l 1,8,-1
816.520507812 331.280273438 m 1,12,-1
 53.919921875 331.280273438 l 1,13,-1
 53.919921875 282.080078125 l 1,14,-1
 816.520507812 282.080078125 l 1,15,-1
 816.520507812 331.280273438 l 1,12,-1
EndSplineSet
EndChar

StartChar: bracketleft
Encoding: 91 91 62
Width: 649
VWidth: 1639
GlyphClass: 2
Flags: W
LayerCount: 2
Fore
SplineSet
100 1938.48046875 m 1,0,-1
 549.360351562 1938.48046875 l 1,1,-1
 549.360351562 1815.48046875 l 1,2,-1
 323.040039062 1815.48046875 l 1,3,-1
 323.040039062 -27.8798828125 l 1,4,-1
 549.360351562 -27.8798828125 l 1,5,-1
 549.360351562 -149.240234375 l 1,6,-1
 100 -149.240234375 l 1,7,-1
 100 1938.48046875 l 1,0,-1
503.440429688 1892.55957031 m 1,8,-1
 145.919921875 1892.55957031 l 1,9,-1
 145.919921875 -103.3203125 l 1,10,-1
 503.440429688 -103.3203125 l 1,11,-1
 503.440429688 -73.7998046875 l 1,12,-1
 277.120117188 -73.7998046875 l 1,13,-1
 277.120117188 1861.40039062 l 1,14,-1
 503.440429688 1861.40039062 l 1,15,-1
 503.440429688 1892.55957031 l 1,8,-1
EndSplineSet
EndChar

StartChar: bracketright
Encoding: 93 93 64
Width: 699
VWidth: 1639
GlyphClass: 2
Flags: W
LayerCount: 2
Fore
SplineSet
100 1935.20019531 m 1,0,-1
 498.51953125 1935.20019531 l 1,1,-1
 498.51953125 -149.240234375 l 1,2,-1
 100 -149.240234375 l 1,3,-1
 100 -27.8798828125 l 1,4,-1
 275.479492188 -27.8798828125 l 1,5,-1
 275.479492188 1813.83984375 l 1,6,-1
 100 1813.83984375 l 1,7,-1
 100 1935.20019531 l 1,0,-1
452.599609375 1889.28027344 m 1,8,-1
 145.919921875 1889.28027344 l 1,9,-1
 145.919921875 1859.75976562 l 1,10,-1
 321.399414062 1859.75976562 l 1,11,-1
 321.399414062 -73.7998046875 l 1,12,-1
 145.919921875 -73.7998046875 l 1,13,-1
 145.919921875 -103.3203125 l 1,14,-1
 452.599609375 -103.3203125 l 1,15,-1
 452.599609375 1889.28027344 l 1,8,-1
EndSplineSet
EndChar

StartChar: guillemotleft
Encoding: 171 171 175
Width: 1000
VWidth: 1639
GlyphClass: 2
Flags: W
LayerCount: 2
Fore
SplineSet
794.529296875 -54.1201171875 m 1,0,1
 807.265625 -69.4033203125 807.265625 -69.4033203125 790.54296875 -80.998046875 c 0,2,3
 786.868164062 -82.8525390625 786.868164062 -82.8525390625 784.689453125 -83.6396484375 c 0,2,3
 744.372070312 -88.548828125 744.372070312 -88.548828125 710.889648438 -73.7998046875 c 1,4,5
 604.495117188 -17.0341796875 604.495117188 -17.0341796875 525.569335938 116.440429688 c 0,6,7
 415.645507812 306.017578125 415.645507812 306.017578125 463.120117188 525.896484375 c 0,8,9
 490.497070312 649.043945312 490.497070312 649.043945312 563.2890625 746.200195312 c 0,8,9
 661.676757812 877.334960938 661.676757812 877.334960938 743.689453125 880.6796875 c 1,10,11
 773.588867188 884.37109375 773.588867188 884.37109375 781.409179688 882.3203125 c 0,12,13
 796.995117188 875.8515625 796.995117188 875.8515625 791.249023438 833.120117188 c 1,14,15
 791.249023438 811.799804688 l 1,16,17
 787.66796875 801.194335938 787.66796875 801.194335938 771.569335938 777.360351562 c 0,18,19
 751.889648438 747.83984375 751.889648438 747.83984375 737.12890625 718.3203125 c 0,20,21
 648.302734375 545.217773438 648.302734375 545.217773438 642.008789062 421.48046875 c 0,22,23
 638.044921875 339.625976562 638.044921875 339.625976562 668.249023438 242.719726562 c 0,24,25
 693.99609375 163.143554688 693.99609375 163.143554688 765.008789062 42.6396484375 c 1,26,27
 793.743164062 -2.513671875 793.743164062 -2.513671875 794.60546875 -4.76953125 c 0,28,29
 799.569335938 -21.306640625 799.569335938 -21.306640625 794.529296875 -31.16015625 c 1,28,29
 802.794921875 -42.3642578125 802.794921875 -42.3642578125 794.529296875 -52.48046875 c 1,30,-1
 794.529296875 -54.1201171875 l 1,0,1
377.96875 879.040039062 m 0,31,32
 382.0625 879.721679688 382.0625 879.721679688 417.329101562 879.040039062 c 0,33,34
 435.97265625 877.974609375 435.97265625 877.974609375 437.008789062 877.400390625 c 0,35,36
 444.243164062 869.650390625 444.243164062 869.650390625 441.9296875 828.200195312 c 1,37,38
 441.9296875 808.51953125 l 1,39,40
 437.397460938 794.278320312 437.397460938 794.278320312 409.12890625 754.400390625 c 1,41,42
 373.256835938 691.287109375 373.256835938 691.287109375 353.369140625 647.799804688 c 0,43,44
 297.141601562 513.091796875 297.141601562 513.091796875 292.689453125 411.639648438 c 0,45,46
 288.829101562 281.252929688 288.829101562 281.252929688 359.9296875 141.040039062 c 0,47,48
 384.936523438 91.37109375 384.936523438 91.37109375 425.529296875 24.599609375 c 0,49,50
 447.8359375 -12.578125 447.8359375 -12.578125 448.715820312 -20.6875 c 0,51,52
 448.8828125 -26.0068359375 448.8828125 -26.0068359375 448.489257812 -29.51953125 c 0,51,52
 448.043945312 -33.5244140625 448.043945312 -33.5244140625 449.134765625 -45.193359375 c 0,53,54
 450.571289062 -80.5751953125 450.571289062 -80.5751953125 437.008789062 -85.2802734375 c 0,53,54
 435.056640625 -85.2734375 435.056640625 -85.2734375 422.249023438 -83.6396484375 c 0,55,56
 418.053710938 -83.6396484375 418.053710938 -83.6396484375 408.668945312 -84.970703125 c 0,57,58
 391.813476562 -87.361328125 391.813476562 -87.361328125 384.529296875 -85.2802734375 c 0,57,58
 365.873046875 -81.4111328125 365.873046875 -81.4111328125 327.12890625 -54.1201171875 c 0,59,60
 234.1953125 12.1103515625 234.1953125 12.1103515625 172.96875 123 c 1,61,62
 64.8115234375 310.2578125 64.8115234375 310.2578125 116.969726562 531.930664062 c 0,63,64
 144.239257812 644.830078125 144.239257812 644.830078125 209.048828125 736.360351562 c 0,63,64
 262.8671875 811.321289062 262.8671875 811.321289062 323.849609375 851.16015625 c 0,65,66
 359.1171875 875.021484375 359.1171875 875.021484375 377.96875 879.040039062 c 0,31,32
712.529296875 803.599609375 m 1,67,68
 655.44140625 769.369140625 655.44140625 769.369140625 589.529296875 674.040039062 c 1,69,70
 497.689453125 531.8359375 497.689453125 531.8359375 497.689453125 403.440429688 c 0,71,72
 498.700195312 258.784179688 498.700195312 258.784179688 602.649414062 116.440429688 c 0,73,74
 665.280273438 29.0517578125 665.280273438 29.0517578125 719.088867188 -3.2802734375 c 1,75,76
 709.458007812 15.3798828125 709.458007812 15.3798828125 688.4375 51.359375 c 0,77,78
 652.147460938 114.036132812 652.147460938 114.036132812 638.729492188 147.599609375 c 0,77,78
 553.170898438 378.346679688 553.170898438 378.346679688 623.96875 608.440429688 c 0,79,80
 636.997070312 651.533203125 636.997070312 651.533203125 701.359375 780.690429688 c 0,81,82
 707.829101562 793.748046875 707.829101562 793.748046875 712.529296875 803.599609375 c 1,67,68
363.208984375 800.3203125 m 1,81,82
 309.8515625 771.658203125 309.8515625 771.658203125 240.208984375 669.120117188 c 0,83,84
 143.833984375 525.538085938 143.833984375 525.538085938 150.008789062 385.400390625 c 1,85,86
 157.966796875 247.412109375 157.966796875 247.412109375 253.329101562 114.799804688 c 0,87,88
 318.401367188 22.59765625 318.401367188 22.59765625 369.76953125 -4.919921875 c 1,89,90
 301.40625 121.01171875 301.40625 121.01171875 296.346679688 132.637695312 c 0,91,92
 288.448242188 151.13671875 288.448242188 151.13671875 282.849609375 167.280273438 c 0,91,92
 211.466796875 369.120117188 211.466796875 369.120117188 267.048828125 581.276367188 c 0,93,94
 269.37109375 589.981445312 269.37109375 589.981445312 271.369140625 596.959960938 c 0,93,94
 283.786132812 639.940429688 283.786132812 639.940429688 345.19140625 762.702148438 c 0,95,96
 355.923828125 784.3125 355.923828125 784.3125 363.208984375 800.3203125 c 1,81,82
EndSplineSet
EndChar

StartChar: guillemotright
Encoding: 187 187 176
Width: 997
VWidth: 1639
GlyphClass: 2
Flags: W
LayerCount: 2
Fore
SplineSet
458.302734375 882.3203125 m 0,0,1
 461.375 882.982421875 461.375 882.982421875 474.703125 880.6796875 c 1,2,3
 505.51953125 884.6796875 505.51953125 884.6796875 512.422851562 883.959960938 c 0,4,5
 519.397460938 882.021484375 519.397460938 882.021484375 561.623046875 857.719726562 c 1,6,7
 657.178710938 792.833007812 657.178710938 792.833007812 723.983398438 674.040039062 c 0,8,9
 831.919921875 485.96875 831.919921875 485.96875 779.349609375 264.071289062 c 0,10,11
 752.823242188 154.973632812 752.823242188 154.973632812 691.182617188 65.599609375 c 0,10,11
 634.817382812 -14.5361328125 634.817382812 -14.5361328125 568.182617188 -57.400390625 c 0,12,13
 535.919921875 -78.0869140625 535.919921875 -78.0869140625 517.342773438 -82 c 0,14,15
 510.05859375 -84.0810546875 510.05859375 -84.0810546875 493.203125 -81.69140625 c 0,16,17
 483.400390625 -80.4912109375 483.400390625 -80.4912109375 479.623046875 -80.3603515625 c 0,16,17
 464.23828125 -82.7314453125 464.23828125 -82.7314453125 459.943359375 -80.3603515625 c 0,18,19
 453.3828125 -75.4404296875 453.3828125 -75.4404296875 451.743164062 -67.240234375 c 0,20,21
 450.102539062 -59.0400390625 450.102539062 -59.0400390625 451.743164062 -44.2802734375 c 2,22,-1
 453.3828125 -29.51953125 l 2,20,21
 454.203125 -27.0595703125 454.203125 -27.0595703125 453.3828125 -21.3203125 c 0,22,23
 453.081054688 -15.2060546875 453.081054688 -15.2060546875 453.3828125 -13.1201171875 c 0,22,23
 455.368164062 -5.1806640625 455.368164062 -5.1806640625 483.219726562 38.2265625 c 0,24,25
 486.23046875 43.12890625 486.23046875 43.12890625 487.823242188 45.919921875 c 0,24,25
 519.672851562 98.7158203125 519.672851562 98.7158203125 548.502929688 164 c 0,26,27
 599.299804688 283.153320312 599.299804688 283.153320312 604.262695312 393.599609375 c 0,28,29
 608.333007812 512.418945312 608.333007812 512.418945312 545.22265625 639.599609375 c 0,30,31
 528.775390625 673.51171875 528.775390625 673.51171875 479.623046875 757.6796875 c 0,32,33
 476.58203125 762.749023438 476.58203125 762.749023438 468.778320312 773.729492188 c 0,34,35
 450.56640625 800.40625 450.56640625 800.40625 446.823242188 813.440429688 c 0,34,35
 446.823242188 816.955078125 446.823242188 816.955078125 447.731445312 822.826171875 c 0,36,37
 448.462890625 827.556640625 448.462890625 827.556640625 448.462890625 829.83984375 c 0,36,37
 448.462890625 833.041992188 448.462890625 833.041992188 447.657226562 841.342773438 c 0,38,39
 445.953125 876.259765625 445.953125 876.259765625 458.302734375 882.3203125 c 0,0,1
112.262695312 877.400390625 m 0,38,39
 114.21484375 877.393554688 114.21484375 877.393554688 127.022460938 875.759765625 c 1,40,41
 155.99609375 879.899414062 155.99609375 879.899414062 164.743164062 877.400390625 c 0,42,43
 181.254882812 873.715820312 181.254882812 873.715820312 217.22265625 849.51953125 c 0,44,45
 299.951171875 793.965820312 299.951171875 793.965820312 368.102539062 683.879882812 c 1,46,47
 482.27734375 493.045898438 482.27734375 493.045898438 434.467773438 269.584960938 c 0,48,49
 409.350585938 155.524414062 409.350585938 155.524414062 345.142578125 62.3203125 c 0,48,49
 286.364257812 -21.244140625 286.364257812 -21.244140625 220.502929688 -62.3203125 c 0,50,51
 184.84375 -85.2763671875 184.84375 -85.2763671875 169.663085938 -88.5595703125 c 0,52,53
 162.674804688 -89.55859375 162.674804688 -89.55859375 146.53125 -87.935546875 c 0,54,55
 136.434570312 -86.919921875 136.434570312 -86.919921875 131.943359375 -86.919921875 c 0,54,55
 113.299804688 -85.8544921875 113.299804688 -85.8544921875 112.262695312 -85.2802734375 c 0,56,57
 108.983398438 -82 108.983398438 -82 106.522460938 -77.900390625 c 0,58,59
 104.0625 -73.7998046875 104.0625 -73.7998046875 104.0625 -66.419921875 c 0,60,61
 104.0625 -59.0400390625 104.0625 -59.0400390625 104.0625 -55.759765625 c 0,62,63
 104.0625 -52.48046875 104.0625 -52.48046875 105.703125 -43.4599609375 c 2,64,-1
 107.342773438 -34.4404296875 l 2,58,59
 107.342773438 -31.76171875 107.342773438 -31.76171875 106.260742188 -27.0009765625 c 0,60,61
 105.298828125 -19.544921875 105.298828125 -19.544921875 105.703125 -16.400390625 c 0,60,61
 107.953125 -9.087890625 107.953125 -9.087890625 139.549804688 39.65234375 c 0,62,63
 142.096679688 43.7197265625 142.096679688 43.7197265625 143.422851562 45.919921875 c 0,62,63
 177.015625 101.629882812 177.015625 101.629882812 202.462890625 162.360351562 c 0,64,65
 254.056640625 287.206054688 254.056640625 287.206054688 256.583007812 387.040039062 c 0,66,67
 258.137695312 515.483398438 258.137695312 515.483398438 187.703125 654.360351562 c 0,68,69
 165.668945312 699.905273438 165.668945312 699.905273438 123.743164062 765.879882812 c 0,70,71
 121.283203125 770.389648438 121.283203125 770.389648438 115.54296875 779.205078125 c 0,72,73
 99.224609375 806.469726562 99.224609375 806.469726562 100.783203125 821.639648438 c 0,72,73
 101.227539062 825.64453125 101.227539062 825.64453125 100.137695312 837.313476562 c 0,74,75
 98.701171875 872.6953125 98.701171875 872.6953125 112.262695312 877.400390625 c 0,38,39
528.823242188 801.959960938 m 1,74,75
 530.713867188 794.5546875 530.713867188 794.5546875 543.583007812 774.080078125 c 0,76,77
 563.706054688 737.453125 563.706054688 737.453125 574.743164062 719.959960938 c 0,78,79
 604.296875 665.975585938 604.296875 665.975585938 630.502929688 578.919921875 c 1,80,81
 682.403320312 386.887695312 682.403320312 386.887695312 622.302734375 193.51953125 c 0,82,83
 599.126953125 119.8359375 599.126953125 119.8359375 533.743164062 -1.6396484375 c 1,84,85
 550.924804688 5.484375 550.924804688 5.484375 581.302734375 36.080078125 c 0,86,87
 631.43359375 86.8857421875 631.43359375 86.8857421875 666.583007812 142.6796875 c 0,88,89
 744.69140625 269.967773438 744.69140625 269.967773438 746.943359375 387.040039062 c 0,90,91
 750.484375 534.092773438 750.484375 534.092773438 643.623046875 682.240234375 c 0,92,93
 583.658203125 766.000976562 583.658203125 766.000976562 528.823242188 801.959960938 c 1,74,75
181.142578125 797.040039062 m 1,94,95
 181.916015625 792.633789062 181.916015625 792.633789062 192.623046875 774.080078125 c 0,96,97
 197.54296875 765.879882812 197.54296875 765.879882812 206.5625 750.299804688 c 0,98,99
 215.97265625 734.103515625 215.97265625 734.103515625 220.502929688 726.51953125 c 0,98,99
 261.107421875 649.556640625 261.107421875 649.556640625 282.823242188 570.719726562 c 0,100,101
 334 372.81640625 334 372.81640625 272.983398438 180.400390625 c 0,102,103
 254.471679688 123.083007812 254.471679688 123.083007812 184.422851562 -9.83984375 c 1,104,105
 242.359375 27.1435546875 242.359375 27.1435546875 300.86328125 109.879882812 c 1,106,107
 391.807617188 243.796875 391.807617188 243.796875 399.262695312 378.83984375 c 0,108,109
 400.819335938 427.58984375 400.819335938 427.58984375 382.86328125 496.919921875 c 0,110,111
 335.032226562 675.654296875 335.032226562 675.654296875 198.599609375 783.870117188 c 0,112,113
 189.125 791.262695312 189.125 791.262695312 181.142578125 797.040039062 c 1,94,95
EndSplineSet
EndChar

StartChar: guilsinglleft
Encoding: 8249 8249 195
Width: 566
GlyphClass: 2
Flags: W
LayerCount: 2
Fore
SplineSet
350 70 m 1,0,1
 363 48 363 48 363 35 c 0,2,3
 363 26 363 26 352 26 c 0,4,5
 343 26 343 26 326 33 c 1,6,7
 273 73 273 73 230 128 c 128,-1,8
 187 183 187 183 155 255 c 0,9,10
 126 321 126 321 113.5 385 c 128,-1,11
 101 449 101 449 100 513 c 1,12,13
 100 656 100 656 164 783 c 1,14,15
 231 904 231 904 327 958 c 1,16,17
 354 969 354 969 358 969 c 0,18,19
 366 969 366 969 366 963 c 0,20,21
 366 953 366 953 343 912 c 1,22,23
 224 746 224 746 224 513 c 0,24,25
 224 249 224 249 350 70 c 1,0,1
EndSplineSet
EndChar

StartChar: guilsinglright
Encoding: 8250 8250 196
Width: 569
GlyphClass: 2
Flags: W
LayerCount: 2
Fore
SplineSet
115 70 m 1,0,1
 244 249 244 249 244 513 c 0,2,3
 244 751 244 751 122 913 c 1,4,5
 100 954 100 954 100 963 c 0,6,7
 100 969 100 969 108 969 c 0,8,9
 110 969 110 969 118 966.5 c 128,-1,10
 126 964 126 964 137 958 c 0,11,12
 188 931 188 931 228.5 887 c 128,-1,13
 269 843 269 843 301 783 c 0,14,15
 336 718 336 718 352 650.5 c 128,-1,16
 368 583 368 583 369 513 c 0,17,18
 369 450 369 450 353.5 385 c 128,-1,19
 338 320 338 320 309 255 c 0,20,21
 279 188 279 188 235 130 c 128,-1,22
 191 72 191 72 138 33 c 1,23,24
 124 26 124 26 113 26 c 0,25,26
 101 26 101 26 101 35 c 0,27,28
 101 47 101 47 115 70 c 1,0,1
EndSplineSet
EndChar

StartChar: afii57451
Encoding: 1611 1611 311
AltUni2: 00fe70.ffffffff.0
Width: -63
VWidth: 1639
GlyphClass: 2
Flags: HW
AnchorPoint: "GposMark2BaseAnchorHamzaErabAbove_01_01" 145.74 1630.16 mark 0
AnchorPoint: "GposMark2BaseAnchorHamzaErabBelow_01_01" 145.74 2151.68 mark 0
AnchorPoint: "GposMark2BaseAnchorClassErabAbove_01_02" 145.74 1630.16 mark 0
AnchorPoint: "GposMark2MarkAnchorHamzaErabAbove_01_01" 145.74 1630.16 mark 0
AnchorPoint: "GposMark2MarkAnchorHamzaErabBelow_01_01" 145.74 2151.68 mark 0
AnchorPoint: "GposMark2MarkAnchorShaddaErabAbove_01_02" 145.74 1630.16 mark 0
AnchorPoint: "GposMark2MarkAnchorShaddaErabBelow_01_02" 145.74 2151.68 mark 0
LayerCount: 2
Fore
SplineSet
-65 1861.40039062 m 1,0,-1
 -65 1964.71972656 l 1,1,-1
 -63.3603515625 2004.08007812 l 1,2,-1
 -35.48046875 2015.55957031 l 1,3,-1
 38.3203125 2045.08007812 l 1,4,-1
 217.080078125 2115.59960938 l 1,5,-1
 310.559570312 2151.6796875 l 1,6,-1
 310.559570312 2143.48046875 l 1,7,-1
 333.51953125 2151.6796875 l 1,8,-1
 333.51953125 2143.48046875 l 1,9,-1
 356.479492188 2151.6796875 l 1,10,-1
 356.479492188 2051.63964844 l 2,11,12
 355.858398438 2017.4296875 355.858398438 2017.4296875 354.83984375 2015.55957031 c 0,13,14
 347.1640625 2007.01855469 347.1640625 2007.01855469 326.959960938 2002.44042969 c 1,15,16
 258.080078125 1972.91992188 l 1,17,18
 197.41015625 1949.28027344 197.41015625 1949.28027344 80.9599609375 1900.75976562 c 0,19,20
 72.1337890625 1897.04394531 72.1337890625 1897.04394531 53.484375 1888.19726562 c 0,21,22
 3.970703125 1865.21484375 3.970703125 1865.21484375 -19.080078125 1861.40039062 c 1,23,-1
 -19.080078125 1869.59960938 l 1,24,-1
 -42.0400390625 1861.40039062 l 1,25,-1
 -42.0400390625 1869.59960938 l 1,26,-1
 -65 1861.40039062 l 1,0,-1
310.559570312 2087.71972656 m 1,27,-1
 213.799804688 2050 l 1,28,-1
 58 1989.3203125 l 1,29,-1
 3.8798828125 1968 l 1,30,-1
 -17.4404296875 1958.16015625 l 1,31,-1
 -19.080078125 1925.36035156 l 1,32,-1
 66.2001953125 1959.79980469 l 1,33,-1
 235.120117188 2028.6796875 l 1,34,-1
 289.240234375 2051.63964844 l 1,35,-1
 308.919921875 2061.48046875 l 1,36,-1
 310.559570312 2087.71972656 l 1,27,-1
-65 1630.16015625 m 1,37,-1
 -65 1733.48046875 l 1,38,-1
 -63.3603515625 1774.48046875 l 1,39,-1
 -35.48046875 1785.95996094 l 1,40,-1
 38.3203125 1815.48046875 l 1,41,-1
 217.080078125 1886 l 1,42,-1
 310.559570312 1922.08007812 l 1,43,-1
 310.559570312 1913.87988281 l 1,44,-1
 333.51953125 1922.08007812 l 1,45,-1
 333.51953125 1913.87988281 l 1,46,-1
 356.479492188 1922.08007812 l 1,47,-1
 356.479492188 1822.04003906 l 1,48,-1
 354.83984375 1785.95996094 l 1,49,-1
 325.3203125 1771.20019531 l 1,50,-1
 251.51953125 1741.6796875 l 1,51,-1
 -19.080078125 1630.16015625 l 1,52,-1
 -19.080078125 1640 l 1,53,-1
 -42.0400390625 1630.16015625 l 1,54,-1
 -42.0400390625 1640 l 1,55,-1
 -65 1630.16015625 l 1,37,-1
310.559570312 1858.12011719 m 1,56,-1
 213.799804688 1820.40039062 l 1,57,-1
 58 1759.71972656 l 1,58,-1
 3.8798828125 1738.40039062 l 1,59,-1
 -17.4404296875 1728.55957031 l 1,60,-1
 -19.080078125 1695.75976562 l 1,61,-1
 72.759765625 1733.48046875 l 1,62,-1
 235.120117188 1799.08007812 l 1,63,-1
 289.240234375 1822.04003906 l 1,64,-1
 308.919921875 1831.87988281 l 1,65,-1
 310.559570312 1858.12011719 l 1,56,-1
EndSplineSet
EndChar

StartChar: afii57452
Encoding: 1612 1612 312
AltUni2: 00fe72.ffffffff.0
Width: 11
VWidth: 1639
GlyphClass: 2
Flags: HW
AnchorPoint: "GposMark2BaseAnchorHamzaErabAbove_01_01" 147.564 1630.16 mark 0
AnchorPoint: "GposMark2BaseAnchorHamzaErabBelow_01_01" 147.564 2059.84 mark 0
AnchorPoint: "GposMark2BaseAnchorClassErabAbove_01_02" 147.564 1630.16 mark 0
AnchorPoint: "GposMark2MarkAnchorHamzaErabAbove_01_01" 147.564 1630.16 mark 0
AnchorPoint: "GposMark2MarkAnchorHamzaErabBelow_01_01" 147.564 2059.84 mark 0
AnchorPoint: "GposMark2MarkAnchorShaddaErabAbove_01_02" 147.564 1630.16 mark 0
AnchorPoint: "GposMark2MarkAnchorShaddaErabBelow_01_02" 147.564 2059.84 mark 0
LayerCount: 2
Fore
SplineSet
125.399414062 1792.51953125 m 1,0,1
 90.8876953125 1877.08789062 90.8876953125 1877.08789062 109 1930.28027344 c 0,2,3
 133.071289062 1999.28417969 133.071289062 1999.28417969 216.854492188 2039.48242188 c 0,4,5
 259.286132812 2059.83984375 259.286132812 2059.83984375 297.599609375 2059.83984375 c 0,6,7
 378.13671875 2059.83984375 378.13671875 2059.83984375 403.044921875 2002.78515625 c 0,8,9
 404.799804688 1998.5546875 404.799804688 1998.5546875 405.83984375 1995.87988281 c 0,10,11
 412.389648438 1974.58984375 412.389648438 1974.58984375 412.399414062 1936.83984375 c 0,12,13
 411.872070312 1891.94238281 411.872070312 1891.94238281 407.479492188 1877.79980469 c 0,14,15
 397.6875 1845.17382812 397.6875 1845.17382812 361.559570312 1799.08007812 c 1,16,-1
 382.879882812 1792.51953125 l 1,17,-1
 371.399414062 1772.83984375 l 1,18,-1
 382.879882812 1769.55957031 l 1,19,-1
 371.399414062 1749.87988281 l 1,20,-1
 382.879882812 1746.59960938 l 1,21,-1
 340.239257812 1671.16015625 l 1,22,-1
 318.919921875 1676.08007812 l 1,23,-1
 317.279296875 1671.16015625 l 1,24,-1
 295.959960938 1676.08007812 l 1,25,-1
 294.319335938 1671.16015625 l 1,26,27
 267.926757812 1676.29980469 267.926757812 1676.29980469 243.479492188 1685.91992188 c 0,28,29
 241.2578125 1686.47558594 241.2578125 1686.47558594 235.440429688 1689.20605469 c 0,30,31
 222.391601562 1694.43652344 222.391601562 1694.43652344 217.239257812 1694.12011719 c 0,32,33
 214.036132812 1693.31933594 214.036132812 1693.31933594 162.84375 1668.21777344 c 0,34,35
 157.858398438 1665.87792969 157.858398438 1665.87792969 154.919921875 1664.59960938 c 0,36,37
 77.462890625 1632.78613281 77.462890625 1632.78613281 0.759765625 1630.16015625 c 1,38,39
 -44.216796875 1630.74609375 -44.216796875 1630.74609375 -51.720703125 1633.44042969 c 0,40,41
 -87.642578125 1649.15625 -87.642578125 1649.15625 -107.413085938 1706.80761719 c 0,42,43
 -108.549804688 1710.31738281 -108.549804688 1710.31738281 -109.120117188 1712.16015625 c 1,44,-1
 -99.2802734375 1712.16015625 l 1,45,-1
 -109.120117188 1735.12011719 l 1,46,-1
 -99.2802734375 1735.12011719 l 1,47,-1
 -109.120117188 1758.08007812 l 1,48,49
 -54.4072265625 1758.79394531 -54.4072265625 1758.79394531 -43.5205078125 1764.63964844 c 0,50,51
 -31.056640625 1772.94921875 -31.056640625 1772.94921875 -23.2333984375 1793.06640625 c 0,52,53
 -19.556640625 1802.51953125 -19.556640625 1802.51953125 -25.48046875 1804 c 0,54,55
 -32.5185546875 1806.01074219 -32.5185546875 1806.01074219 -54.5888671875 1785.35351562 c 0,56,57
 -58.3486328125 1782.21875 -58.3486328125 1782.21875 -59.919921875 1781.04003906 c 1,58,-1
 -61.560546875 1797.44042969 l 1,59,-1
 -82.8798828125 1781.04003906 l 1,60,-1
 -84.5205078125 1797.44042969 l 1,61,-1
 -105.840820312 1781.04003906 l 1,62,63
 -106.49609375 1792.84765625 -106.49609375 1792.84765625 -110.95703125 1815.4140625 c 0,64,65
 -117.270507812 1849.953125 -117.270507812 1849.953125 -115.680664062 1867.95996094 c 0,66,67
 -115.024414062 1870.58398438 -115.024414062 1870.58398438 -115.811523438 1875.83203125 c 0,68,69
 -115.793945312 1884.25097656 -115.793945312 1884.25097656 -114.040039062 1887.63964844 c 0,70,71
 -84.96875 1934.90429688 -84.96875 1934.90429688 2.3994140625 1935.20019531 c 1,72,73
 58.6328125 1933.59179688 58.6328125 1933.59179688 81.1201171875 1907.3203125 c 1,74,75
 106.3671875 1873.17285156 106.3671875 1873.17285156 94.2392578125 1782.6796875 c 1,76,-1
 125.399414062 1792.51953125 l 1,0,1
318.919921875 1848.28027344 m 1,77,78
 322.33984375 1853.59960938 322.33984375 1853.59960938 331.208984375 1865.66113281 c 0,79,80
 363.529296875 1911.33984375 363.529296875 1911.33984375 363.19921875 1933.55957031 c 0,81,82
 363.19921875 1970.10449219 363.19921875 1970.10449219 329.728515625 1997.6796875 c 0,83,84
 315.18359375 2008.29882812 315.18359375 2008.29882812 302.51953125 2009 c 0,85,86
 271.776367188 2008.00097656 271.776367188 2008.00097656 236.919921875 1974.55957031 c 1,87,88
 242.317382812 1974.55957031 242.317382812 1974.55957031 254.895507812 1975.421875 c 0,89,90
 295.541015625 1977.37207031 295.541015625 1977.37207031 309.080078125 1969.63964844 c 1,91,92
 325.438476562 1957.82714844 325.438476562 1957.82714844 325.479492188 1925.36035156 c 0,93,94
 325.067382812 1880.28417969 325.067382812 1880.28417969 317.279296875 1848.28027344 c 1,95,-1
 318.919921875 1848.28027344 l 1,77,78
189.359375 1935.20019531 m 1,96,97
 158.555664062 1908.90332031 158.555664062 1908.90332031 154.919921875 1881.08007812 c 0,98,99
 154.919921875 1869.54980469 154.919921875 1869.54980469 178.217773438 1828.20800781 c 0,100,101
 183.869140625 1817.42480469 183.869140625 1817.42480469 186.080078125 1810.55957031 c 0,102,103
 186.853515625 1804.33691406 186.853515625 1804.33691406 182.799804688 1795.79980469 c 1,104,105
 187.719726562 1784.3203125 187.719726562 1784.3203125 187.719726562 1784.3203125 c 2,106,107
 187.719726562 1781.86035156 187.719726562 1781.86035156 185.259765625 1778.58007812 c 0,108,109
 183.229492188 1774.31054688 183.229492188 1774.31054688 182.799804688 1772.83984375 c 0,110,111
 183.416992188 1770.98730469 183.416992188 1770.98730469 185.086914062 1767.8046875 c 0,112,113
 187.346679688 1761.98535156 187.346679688 1761.98535156 187.719726562 1759.71972656 c 0,114,115
 184.8828125 1755.359375 184.8828125 1755.359375 172.959960938 1748.24023438 c 0,116,117
 150.271484375 1737.42871094 150.271484375 1737.42871094 120.479492188 1731.83984375 c 0,118,119
 80.4755859375 1722.74414062 80.4755859375 1722.74414062 71.279296875 1726.91992188 c 1,120,-1
 48.3193359375 1726.91992188 l 1,121,-1
 25.359375 1723.63964844 l 1,122,-1
 36.83984375 1748.24023438 l 1,123,-1
 25.359375 1746.59960938 l 1,124,-1
 36.83984375 1771.20019531 l 1,125,126
 31.193359375 1767.4453125 31.193359375 1767.4453125 25.359375 1753.16015625 c 0,127,128
 18.6708984375 1735.75097656 18.6708984375 1735.75097656 7.3193359375 1723.63964844 c 0,129,130
 -2.8740234375 1713.56640625 -2.8740234375 1713.56640625 -40.240234375 1713.79980469 c 1,131,132
 -20.9443359375 1685.70898438 -20.9443359375 1685.70898438 -5.80078125 1681 c 0,133,134
 4.427734375 1678.0703125 4.427734375 1678.0703125 40.1201171875 1687.55957031 c 0,135,136
 96.6923828125 1702.09277344 96.6923828125 1702.09277344 153.279296875 1730.20019531 c 0,137,138
 156.401367188 1731.98339844 156.401367188 1731.98339844 163.90234375 1737.20703125 c 0,139,140
 186.813476562 1753.16015625 186.813476562 1753.16015625 197.559570312 1753.16015625 c 0,141,142
 202.389648438 1753.96484375 202.389648438 1753.96484375 213.840820312 1752.38476562 c 0,143,144
 226.618164062 1751.02734375 226.618164062 1751.02734375 232 1751.51953125 c 0,145,146
 234.0234375 1751.51953125 234.0234375 1751.51953125 237.465820312 1752.61425781 c 0,147,148
 242.22265625 1754.12597656 242.22265625 1754.12597656 245.120117188 1753.16015625 c 0,149,150
 252.408203125 1751.33789062 252.408203125 1751.33789062 266.986328125 1742.63183594 c 0,151,152
 278.6484375 1735.66699219 278.6484375 1735.66699219 284.479492188 1733.48046875 c 0,153,154
 298.654296875 1729.96289062 298.654296875 1729.96289062 299.239257812 1730.20019531 c 0,155,156
 304.159179688 1733.48046875 304.159179688 1733.48046875 312.03125 1748.99414062 c 0,157,158
 312.359375 1749.87988281 312.359375 1749.87988281 313.1796875 1751.51953125 c 2,159,-1
 314 1753.16015625 l 1,160,-1
 286.120117188 1764.63964844 l 1,161,-1
 299.239257812 1781.04003906 l 1,162,-1
 286.120117188 1787.59960938 l 1,163,-1
 299.239257812 1804 l 1,164,165
 288.038085938 1809.77734375 288.038085938 1809.77734375 254.959960938 1805.63964844 c 0,166,167
 252.5 1805.63964844 252.5 1805.63964844 249.219726562 1807.28027344 c 0,168,169
 244.950195312 1808.6328125 244.950195312 1808.6328125 243.479492188 1808.91992188 c 0,170,171
 241.51171875 1808.91992188 241.51171875 1808.91992188 237.575195312 1807.87011719 c 0,172,173
 231.125 1806.96289062 231.125 1806.96289062 228.719726562 1807.28027344 c 0,174,175
 218.866210938 1811.875 218.866210938 1811.875 205.759765625 1828.59960938 c 0,176,177
 177.159179688 1867.984375 177.159179688 1867.984375 189.359375 1935.20019531 c 1,96,97
256.599609375 1869.59960938 m 1,178,179
 264.301757812 1880.42578125 264.301757812 1880.42578125 268.080078125 1887.63964844 c 0,180,181
 283.419921875 1917.578125 283.419921875 1917.578125 264.799804688 1922.08007812 c 1,182,183
 258.733398438 1920.78613281 258.733398438 1920.78613281 251.6796875 1913.87988281 c 0,184,185
 230.663085938 1891.89746094 230.663085938 1891.89746094 256.599609375 1869.59960938 c 1,178,179
33.5595703125 1784.3203125 m 1,186,187
 48.599609375 1820.44628906 48.599609375 1820.44628906 46.6796875 1833.51953125 c 0,188,189
 41.8359375 1867.42382812 41.8359375 1867.42382812 11.5595703125 1882.13964844 c 0,190,191
 3.6171875 1886 3.6171875 1886 -4.16015625 1886 c 0,192,193
 -27.7177734375 1884.79589844 -27.7177734375 1884.79589844 -51.720703125 1858.12011719 c 1,194,195
 16.75 1866.24121094 16.75 1866.24121094 28.6396484375 1840.08007812 c 0,196,197
 30.5185546875 1834.91210938 30.5185546875 1834.91210938 30.9443359375 1795.64257812 c 0,198,199
 31.2705078125 1788.65722656 31.2705078125 1788.65722656 31.919921875 1784.3203125 c 1,200,-1
 33.5595703125 1784.3203125 l 1,186,187
EndSplineSet
EndChar

StartChar: afii57453
Encoding: 1613 1613 313
AltUni2: 00fe74.ffffffff.0
Width: -65
VWidth: 1639
GlyphClass: 2
Flags: HW
AnchorPoint: "GposMark2BaseAnchorClassErabBelow_01_02" -77.2603 -129.56 mark 0
LayerCount: 2
Fore
SplineSet
-288 -419.83984375 m 1,0,-1
 -288 -316.51953125 l 1,1,-1
 -286.360351562 -277.16015625 l 1,2,-1
 -258.48046875 -265.6796875 l 1,3,-1
 -184.6796875 -236.16015625 l 1,4,-1
 -5.919921875 -165.639648438 l 1,5,-1
 87.5595703125 -129.559570312 l 1,6,-1
 87.5595703125 -137.759765625 l 1,7,-1
 110.51953125 -129.559570312 l 1,8,-1
 110.51953125 -137.759765625 l 1,9,-1
 133.479492188 -129.559570312 l 1,10,-1
 133.479492188 -229.599609375 l 2,11,12
 132.858398438 -263.810546875 132.858398438 -263.810546875 131.83984375 -265.6796875 c 0,13,14
 124.1640625 -274.221679688 124.1640625 -274.221679688 103.959960938 -278.799804688 c 1,15,16
 35.080078125 -308.3203125 l 1,17,18
 -25.58984375 -331.958984375 -25.58984375 -331.958984375 -142.040039062 -380.48046875 c 0,19,20
 -150.866210938 -384.196289062 -150.866210938 -384.196289062 -169.515625 -393.04296875 c 0,21,22
 -219.029296875 -416.025390625 -219.029296875 -416.025390625 -242.080078125 -419.83984375 c 1,23,-1
 -242.080078125 -411.639648438 l 1,24,-1
 -265.040039062 -419.83984375 l 1,25,-1
 -265.040039062 -411.639648438 l 1,26,-1
 -288 -419.83984375 l 1,0,-1
87.5595703125 -193.51953125 m 1,27,-1
 -9.2001953125 -231.240234375 l 1,28,-1
 -165 -291.919921875 l 1,29,-1
 -219.120117188 -313.240234375 l 1,30,-1
 -240.440429688 -323.080078125 l 1,31,-1
 -242.080078125 -355.879882812 l 1,32,-1
 -156.799804688 -321.440429688 l 1,33,-1
 12.1201171875 -252.559570312 l 1,34,-1
 66.240234375 -229.599609375 l 1,35,-1
 85.919921875 -219.759765625 l 1,36,-1
 87.5595703125 -193.51953125 l 1,27,-1
-288 -651.080078125 m 1,37,-1
 -288 -547.759765625 l 1,38,-1
 -286.360351562 -506.759765625 l 1,39,-1
 -258.48046875 -495.280273438 l 1,40,-1
 -184.6796875 -465.759765625 l 1,41,-1
 -5.919921875 -395.240234375 l 1,42,-1
 87.5595703125 -359.16015625 l 1,43,-1
 87.5595703125 -367.360351562 l 1,44,-1
 110.51953125 -359.16015625 l 1,45,-1
 110.51953125 -367.360351562 l 1,46,-1
 133.479492188 -359.16015625 l 1,47,-1
 133.479492188 -459.200195312 l 1,48,-1
 131.83984375 -495.280273438 l 1,49,-1
 102.3203125 -510.040039062 l 1,50,-1
 28.51953125 -539.559570312 l 1,51,-1
 -242.080078125 -651.080078125 l 1,52,-1
 -242.080078125 -641.240234375 l 1,53,-1
 -265.040039062 -651.080078125 l 1,54,-1
 -265.040039062 -641.240234375 l 1,55,-1
 -288 -651.080078125 l 1,37,-1
87.5595703125 -423.120117188 m 1,56,-1
 -9.2001953125 -460.83984375 l 1,57,-1
 -165 -521.51953125 l 1,58,-1
 -219.120117188 -542.83984375 l 1,59,-1
 -240.440429688 -552.6796875 l 1,60,-1
 -242.080078125 -585.48046875 l 1,61,-1
 -150.240234375 -547.759765625 l 1,62,-1
 12.1201171875 -482.16015625 l 1,63,-1
 66.240234375 -459.200195312 l 1,64,-1
 85.919921875 -449.360351562 l 1,65,-1
 87.5595703125 -423.120117188 l 1,56,-1
EndSplineSet
EndChar

StartChar: afii57454
Encoding: 1614 1614 314
AltUni2: 00fe76.ffffffff.0
Width: -52
VWidth: 1639
GlyphClass: 2
Flags: HW
AnchorPoint: "GposMark2BaseAnchorHamzaErabAbove_01_01" 117.74 1630.16 mark 0
AnchorPoint: "GposMark2BaseAnchorHamzaErabBelow_01_01" 117.74 1922.08 mark 0
AnchorPoint: "GposMark2BaseAnchorClassErabAbove_01_02" 117.74 1630.16 mark 0
AnchorPoint: "GposMark2MarkAnchorHamzaErabAbove_01_01" 117.74 1630.16 mark 0
AnchorPoint: "GposMark2MarkAnchorHamzaErabBelow_01_01" 117.74 1922.08 mark 0
AnchorPoint: "GposMark2MarkAnchorShaddaErabAbove_01_02" 117.74 1630.16 mark 0
AnchorPoint: "GposMark2MarkAnchorShaddaErabBelow_01_02" 117.74 1922.08 mark 0
LayerCount: 2
Fore
SplineSet
-93 1630.16015625 m 1,0,-1
 -93 1733.48046875 l 1,1,-1
 -91.3603515625 1774.48046875 l 1,2,-1
 -63.48046875 1785.95996094 l 1,3,-1
 10.3203125 1815.48046875 l 1,4,-1
 189.080078125 1886 l 1,5,-1
 282.559570312 1922.08007812 l 1,6,-1
 282.559570312 1913.87988281 l 1,7,-1
 305.51953125 1922.08007812 l 1,8,-1
 305.51953125 1913.87988281 l 1,9,-1
 328.479492188 1922.08007812 l 1,10,-1
 328.479492188 1822.04003906 l 1,11,-1
 326.83984375 1785.95996094 l 1,12,-1
 297.3203125 1771.20019531 l 1,13,-1
 223.51953125 1741.6796875 l 1,14,-1
 -47.080078125 1630.16015625 l 1,15,-1
 -47.080078125 1640 l 1,16,-1
 -70.0400390625 1630.16015625 l 1,17,-1
 -70.0400390625 1640 l 1,18,-1
 -93 1630.16015625 l 1,0,-1
282.559570312 1858.12011719 m 1,19,-1
 185.799804688 1820.40039062 l 1,20,-1
 30 1759.71972656 l 1,21,-1
 -24.1201171875 1738.40039062 l 1,22,-1
 -45.4404296875 1728.55957031 l 1,23,-1
 -47.080078125 1695.75976562 l 1,24,-1
 44.759765625 1733.48046875 l 1,25,-1
 207.120117188 1799.08007812 l 1,26,-1
 261.240234375 1822.04003906 l 1,27,-1
 280.919921875 1831.87988281 l 1,28,-1
 282.559570312 1858.12011719 l 1,19,-1
EndSplineSet
EndChar

StartChar: afii57455
Encoding: 1615 1615 315
AltUni2: 00fe78.ffffffff.0
Width: 13
VWidth: 1639
GlyphClass: 2
Flags: HW
AnchorPoint: "GposMark2BaseAnchorHamzaErabAbove_01_01" 113.552 1630.16 mark 0
AnchorPoint: "GposMark2BaseAnchorHamzaErabBelow_01_01" 113.552 2081.04 mark 0
AnchorPoint: "GposMark2BaseAnchorClassErabAbove_01_02" 113.552 1630.16 mark 0
AnchorPoint: "GposMark2MarkAnchorHamzaErabAbove_01_01" 113.552 1630.16 mark 0
AnchorPoint: "GposMark2MarkAnchorHamzaErabBelow_01_01" 113.552 2081.04 mark 0
AnchorPoint: "GposMark2MarkAnchorShaddaErabAbove_01_02" 113.552 1630.16 mark 0
AnchorPoint: "GposMark2MarkAnchorShaddaErabBelow_01_02" 113.552 2081.04 mark 0
LayerCount: 2
Fore
SplineSet
-150 1759.71972656 m 1,0,1
 -38.0078125 1760.05761719 -38.0078125 1760.05761719 15.6396484375 1771.20019531 c 0,2,3
 60.4453125 1779.34082031 60.4453125 1779.34082031 77.9599609375 1790.87988281 c 1,4,5
 83.533203125 1797.51367188 83.533203125 1797.51367188 77.9599609375 1808.91992188 c 0,6,7
 63.6650390625 1842.71582031 63.6650390625 1842.71582031 63.2001953125 1856.48046875 c 0,8,9
 61.9990234375 1943.07226562 61.9990234375 1943.07226562 107.479492188 1987.6796875 c 1,10,11
 167.045898438 2042.79882812 167.045898438 2042.79882812 217.360351562 2058.20019531 c 0,12,13
 292.716796875 2081.03515625 292.716796875 2081.03515625 340.15234375 2034.33007812 c 0,14,15
 352.763671875 2020.88183594 352.763671875 2020.88183594 360.040039062 2005.71972656 c 0,16,17
 368.703125 1985.01367188 368.703125 1985.01367188 371.51953125 1961.44042969 c 0,18,19
 377.104492188 1900.59960938 377.104492188 1900.59960938 361.6796875 1866.3203125 c 0,20,21
 356.434570312 1853.20605469 356.434570312 1853.20605469 340.288085938 1829.68261719 c 0,22,23
 325.935546875 1808.24121094 325.935546875 1808.24121094 320.6796875 1797.44042969 c 1,24,-1
 342 1792.51953125 l 1,25,-1
 330.51953125 1772.83984375 l 1,26,-1
 342 1769.55957031 l 1,27,-1
 330.51953125 1749.87988281 l 1,28,-1
 342 1746.59960938 l 1,29,-1
 299.360351562 1671.16015625 l 1,30,-1
 278.040039062 1676.08007812 l 1,31,-1
 276.400390625 1671.16015625 l 1,32,-1
 255.080078125 1676.08007812 l 1,33,-1
 253.440429688 1671.16015625 l 1,34,35
 247.576171875 1672.91894531 247.576171875 1672.91894531 235.369140625 1676.03320312 c 0,36,37
 212.670898438 1682.04199219 212.670898438 1682.04199219 202.599609375 1685.91992188 c 0,38,39
 183.3359375 1694.5 183.3359375 1694.5 178 1694.12011719 c 0,40,41
 167.61328125 1692.63574219 167.61328125 1692.63574219 111.80859375 1664.22753906 c 0,42,43
 107.889648438 1662.296875 107.889648438 1662.296875 105.83984375 1661.3203125 c 0,44,45
 28.79296875 1632.68554688 28.79296875 1632.68554688 -40.1201171875 1630.16015625 c 1,46,47
 -86.52734375 1630.85449219 -86.52734375 1630.85449219 -95.8798828125 1635.08007812 c 0,48,49
 -128.770507812 1654.98144531 -128.770507812 1654.98144531 -150 1713.79980469 c 1,50,-1
 -140.16015625 1713.79980469 l 1,51,-1
 -150 1736.75976562 l 1,52,-1
 -140.16015625 1736.75976562 l 1,53,-1
 -150 1759.71972656 l 1,0,1
271.479492188 1843.36035156 m 1,54,55
 291.723632812 1860.97460938 291.723632812 1860.97460938 312.479492188 1905.6796875 c 0,56,57
 321.647460938 1922.5390625 321.647460938 1922.5390625 322.3203125 1935.20019531 c 0,58,59
 320.130859375 1972.41601562 320.130859375 1972.41601562 287.359375 1999.33105469 c 0,60,61
 274.395507812 2008.81445312 274.395507812 2008.81445312 263.280273438 2010.63964844 c 0,62,63
 238.141601562 2012.92480469 238.141601562 2012.92480469 203.534179688 1980.51074219 c 0,64,65
 200.576171875 1977.515625 200.576171875 1977.515625 199.3203125 1976.20019531 c 1,66,67
 203.9453125 1976.20019531 203.9453125 1976.20019531 214.779296875 1976.94628906 c 0,68,69
 254.376953125 1978.69335938 254.376953125 1978.69335938 268.200195312 1969.63964844 c 0,70,71
 284.060546875 1957.05371094 284.060546875 1957.05371094 281.3203125 1927 c 1,72,73
 280.66015625 1867.90136719 280.66015625 1867.90136719 271.479492188 1843.36035156 c 1,54,55
145.200195312 1931.91992188 m 1,74,75
 109.366210938 1897.98339844 109.366210938 1897.98339844 115.6796875 1872.87988281 c 1,76,77
 125.153320312 1849.78515625 125.153320312 1849.78515625 138.639648438 1825.3203125 c 1,78,79
 145.615234375 1806.24121094 145.615234375 1806.24121094 140.280273438 1800.71972656 c 1,80,81
 144.2109375 1782.53320312 144.2109375 1782.53320312 140.280273438 1777.75976562 c 1,82,-1
 145.200195312 1761.36035156 l 1,83,84
 140.365234375 1745.27246094 140.365234375 1745.27246094 94.3603515625 1733.48046875 c 1,85,86
 64.3623046875 1724.05175781 64.3623046875 1724.05175781 -41.263671875 1717.45507812 c 0,87,88
 -63.54296875 1715.94140625 -63.54296875 1715.94140625 -79.48046875 1713.79980469 c 1,89,90
 -67.298828125 1686.36914062 -67.298828125 1686.36914062 -45.0400390625 1679.36035156 c 1,91,92
 -35.76171875 1678.78320312 -35.76171875 1678.78320312 -2.400390625 1687.55957031 c 0,93,94
 54.1728515625 1702.09277344 54.1728515625 1702.09277344 110.759765625 1730.20019531 c 0,95,96
 115.345703125 1732.74804688 115.345703125 1732.74804688 125.549804688 1737.56542969 c 0,97,98
 148.806640625 1749.171875 148.806640625 1749.171875 156.6796875 1756.44042969 c 1,99,-1
 158.3203125 1756.44042969 l 1,100,101
 169.524414062 1748.17382812 169.524414062 1748.17382812 179.639648438 1756.44042969 c 1,102,-1
 181.280273438 1756.44042969 l 1,103,104
 192.484375 1748.17382812 192.484375 1748.17382812 202.599609375 1756.44042969 c 1,105,-1
 204.240234375 1756.44042969 l 1,106,-1
 243.599609375 1733.48046875 l 1,107,-1
 260 1730.20019531 l 1,108,-1
 273.120117188 1753.16015625 l 1,109,-1
 246.879882812 1763 l 1,110,-1
 258.360351562 1781.04003906 l 1,111,-1
 246.879882812 1785.95996094 l 1,112,-1
 258.360351562 1804 l 1,113,-1
 246.879882812 1808.91992188 l 1,114,-1
 250.16015625 1815.48046875 l 1,115,-1
 235.400390625 1804 l 1,116,-1
 233.759765625 1804 l 1,117,118
 222.555664062 1814.33203125 222.555664062 1814.33203125 212.440429688 1804 c 1,119,-1
 210.799804688 1804 l 1,120,121
 199.595703125 1814.33203125 199.595703125 1814.33203125 189.479492188 1804 c 1,122,-1
 187.83984375 1804 l 1,123,124
 184.392578125 1807.93945312 184.392578125 1807.93945312 176.877929688 1815.55175781 c 0,125,126
 159.137695312 1833.52441406 159.137695312 1833.52441406 153.400390625 1845 c 0,127,128
 144.412109375 1866.19238281 144.412109375 1866.19238281 145.200195312 1931.91992188 c 1,74,75
214.080078125 1871.24023438 m 1,129,130
 219.821289062 1877.87304688 219.821289062 1877.87304688 225.559570312 1889.28027344 c 0,131,132
 240.900390625 1919.21875 240.900390625 1919.21875 222.280273438 1923.71972656 c 1,133,134
 216.213867188 1922.42578125 216.213867188 1922.42578125 209.16015625 1915.51953125 c 0,135,136
 188.143554688 1893.53710938 188.143554688 1893.53710938 214.080078125 1871.24023438 c 1,129,130
271.479492188 1841.71972656 m 1,137,-1
 269.83984375 1840.08007812 l 1,138,-1
 271.479492188 1841.71972656 l 1,137,-1
EndSplineSet
EndChar

StartChar: afii57456
Encoding: 1616 1616 316
AltUni2: 00fe7a.ffffffff.0
Width: -54
VWidth: 1639
GlyphClass: 2
Flags: HW
AnchorPoint: "GposMark2BaseAnchorClassErabBelow_01_02" -71.2603 -129.56 mark 0
LayerCount: 2
Fore
SplineSet
-282 -421.48046875 m 1,0,-1
 -282 -316.51953125 l 1,1,-1
 -280.360351562 -278.799804688 l 1,2,-1
 -254.120117188 -265.6796875 l 1,3,-1
 -183.599609375 -237.799804688 l 1,4,-1
 -6.48046875 -168.919921875 l 1,5,-1
 93.5595703125 -129.559570312 l 1,6,-1
 93.5595703125 -137.759765625 l 1,7,-1
 116.51953125 -129.559570312 l 1,8,-1
 116.51953125 -137.759765625 l 1,9,-1
 139.479492188 -129.559570312 l 1,10,-1
 139.479492188 -229.599609375 l 1,11,-1
 137.83984375 -267.3203125 l 1,12,-1
 111.599609375 -278.799804688 l 1,13,-1
 41.080078125 -308.3203125 l 1,14,-1
 -236.080078125 -421.48046875 l 1,15,-1
 -236.080078125 -411.639648438 l 1,16,-1
 -259.040039062 -421.48046875 l 1,17,-1
 -259.040039062 -411.639648438 l 1,18,-1
 -282 -421.48046875 l 1,0,-1
93.5595703125 -193.51953125 m 1,19,-1
 -157.360351562 -291.919921875 l 1,20,-1
 -213.120117188 -313.240234375 l 1,21,-1
 -234.440429688 -324.719726562 l 1,22,-1
 -236.080078125 -355.879882812 l 1,23,-1
 -154.080078125 -323.080078125 l 1,24,-1
 18.1201171875 -252.559570312 l 1,25,-1
 70.599609375 -231.240234375 l 1,26,-1
 91.919921875 -221.400390625 l 1,27,-1
 93.5595703125 -193.51953125 l 1,19,-1
EndSplineSet
EndChar

StartChar: afii57457
Encoding: 1617 1617 317
AltUni2: 00fe7c.ffffffff.0
Width: 123
VWidth: 1639
GlyphClass: 2
Flags: HW
AnchorPoint: "GposMark2BaseAnchorHamzaErabAbove_01_01" 219.652 1622.54 mark 0
AnchorPoint: "GposMark2BaseAnchorHamzaErabBelow_01_01" 219.652 1958.16 mark 0
AnchorPoint: "GposMark2BaseAnchorClassErabAbove_01_02" 219.652 1622.54 mark 0
AnchorPoint: "GposMark2MarkAnchorHamzaErabAbove_01_01" 219.652 1622.54 mark 0
AnchorPoint: "GposMark2MarkAnchorHamzaErabBelow_01_01" 219.652 1958.16 mark 0
AnchorPoint: "GposMark2MarkAnchorShaddaErabAbove_01_02" 219.652 2108.16 basemark 0
AnchorPoint: "GposMark2MarkAnchorShaddaErabBelow_01_02" 219.652 1472.54 basemark 0
LayerCount: 2
Fore
SplineSet
407.006835938 1958.16015625 m 1,0,-1
 415.20703125 1945.04003906 l 1,1,-1
 429.966796875 1958.16015625 l 1,2,-1
 431.607421875 1958.16015625 l 1,3,-1
 438.166992188 1945.04003906 l 1,4,-1
 452.926757812 1958.16015625 l 1,5,-1
 454.567382812 1958.16015625 l 1,6,7
 477.4609375 1924.1484375 477.4609375 1924.1484375 480.807617188 1858.12011719 c 0,8,9
 493.422851562 1668.34960938 493.422851562 1668.34960938 379.126953125 1638.36035156 c 0,10,11
 312.591796875 1622.53613281 312.591796875 1622.53613281 262.6875 1640 c 0,12,13
 249.713867188 1644.29785156 249.713867188 1644.29785156 231.52734375 1656.40039062 c 1,14,15
 219.063476562 1668.86425781 219.063476562 1668.86425781 215.126953125 1667.87988281 c 0,16,17
 209.90625 1667.87988281 209.90625 1667.87988281 175.193359375 1645.15917969 c 0,18,19
 171.19140625 1642.73828125 171.19140625 1642.73828125 169.20703125 1641.63964844 c 0,20,21
 137.979492188 1630.16699219 137.979492188 1630.16699219 75.7275390625 1630.16015625 c 0,22,23
 38.9345703125 1630.98339844 38.9345703125 1630.98339844 18.3271484375 1641.63964844 c 0,24,25
 -54.119140625 1681.88769531 -54.119140625 1681.88769531 -52.982421875 1789.41210938 c 0,26,27
 -52.001953125 1831.20996094 -52.001953125 1831.20996094 -39.0732421875 1866.3203125 c 1,28,29
 -17.044921875 1915.09472656 -17.044921875 1915.09472656 3.5673828125 1930.28027344 c 0,30,31
 8.34765625 1932.48828125 8.34765625 1932.48828125 34.7275390625 1935.20019531 c 1,32,33
 73.49609375 1935.20019531 73.49609375 1935.20019531 75.6533203125 1934.19238281 c 0,34,35
 78.1650390625 1932.49121094 78.1650390625 1932.49121094 79.0068359375 1931.91992188 c 0,36,37
 84.255859375 1923.76367188 84.255859375 1923.76367188 83.9267578125 1900.75976562 c 0,38,39
 83.9267578125 1890.83203125 83.9267578125 1890.83203125 82.095703125 1870.45507812 c 0,40,41
 79.716796875 1843.98144531 79.716796875 1843.98144531 80.6474609375 1831.87988281 c 0,42,43
 83.6455078125 1807.89453125 83.6455078125 1807.89453125 103.668945312 1800.3203125 c 0,44,45
 107.764648438 1799.31835938 107.764648438 1799.31835938 110.166992188 1799.08007812 c 0,46,47
 124.036132812 1798.59375 124.036132812 1798.59375 141.327148438 1815.48046875 c 0,48,49
 159.919921875 1832.74414062 159.919921875 1832.74414062 173.020507812 1895.60546875 c 0,50,51
 173.600585938 1898.390625 173.600585938 1898.390625 174.126953125 1900.75976562 c 0,52,53
 183.830078125 1934.76464844 183.830078125 1934.76464844 197.086914062 1938.48046875 c 0,54,55
 200.780273438 1939.15917969 200.780273438 1939.15917969 213.487304688 1938.48046875 c 0,56,57
 254.318359375 1938.48046875 254.318359375 1938.48046875 253.912109375 1938.59667969 c 1,58,59
 260.931640625 1935.44921875 260.931640625 1935.44921875 264.327148438 1931.91992188 c 0,60,61
 268.741210938 1925.18359375 268.741210938 1925.18359375 272.52734375 1899.12011719 c 0,62,63
 274.655273438 1881.11523438 274.655273438 1881.11523438 284.006835938 1849.91992188 c 0,64,65
 302.346679688 1795.03710938 302.346679688 1795.03710938 325.006835938 1794.16015625 c 0,66,67
 342.833007812 1794.16015625 342.833007812 1794.16015625 350.34765625 1819.64453125 c 0,68,69
 350.999023438 1822.4921875 350.999023438 1822.4921875 351.247070312 1823.6796875 c 0,70,71
 351.216796875 1827.34277344 351.216796875 1827.34277344 347.966796875 1854.83984375 c 0,72,73
 347.586914062 1859.14257812 347.586914062 1859.14257812 347.966796875 1890.91992188 c 0,74,75
 348.69140625 1893.09277344 348.69140625 1893.09277344 347.573242188 1898.11425781 c 0,76,77
 346.135742188 1904.57226562 346.135742188 1904.57226562 347.966796875 1907.3203125 c 0,78,79
 353.65625 1918.69824219 353.65625 1918.69824219 395.870117188 1949.3515625 c 0,80,81
 402.86328125 1954.4296875 402.86328125 1954.4296875 407.006835938 1958.16015625 c 1,0,-1
421.767578125 1884.36035156 m 1,82,83
 396.37890625 1871.1953125 396.37890625 1871.1953125 399.479492188 1821.01953125 c 0,84,85
 401.092773438 1779.78222656 401.092773438 1779.78222656 392.247070312 1764.63964844 c 0,86,87
 377.233398438 1743.3515625 377.233398438 1743.3515625 333.20703125 1743.3203125 c 0,88,89
 288.018554688 1743.78515625 288.018554688 1743.78515625 284.006835938 1744.95996094 c 0,90,91
 244.690429688 1758.53320312 244.690429688 1758.53320312 228.247070312 1840.08007812 c 0,92,93
 222.1171875 1874.08300781 222.1171875 1874.08300781 223.327148438 1871.24023438 c 0,94,95
 210.16796875 1778.45117188 210.16796875 1778.45117188 169.20703125 1756.44042969 c 1,96,97
 143.26171875 1745.33789062 143.26171875 1745.33789062 100.327148438 1748.24023438 c 0,98,99
 60.4384765625 1751.30859375 60.4384765625 1751.30859375 51.0634765625 1758.97558594 c 0,100,101
 46.013671875 1763.88964844 46.013671875 1763.88964844 42.9267578125 1767.91992188 c 0,102,103
 29.982421875 1796.69628906 29.982421875 1796.69628906 33.0869140625 1867.95996094 c 1,104,-1
 31.447265625 1867.95996094 l 1,105,106
 -2.974609375 1807.72167969 -2.974609375 1807.72167969 -2.3681640625 1787.37792969 c 0,107,108
 -1.9296875 1782.45800781 -1.9296875 1782.45800781 -1.3525390625 1779.40039062 c 0,109,110
 10.58203125 1722.11425781 10.58203125 1722.11425781 54.4111328125 1691.80859375 c 0,111,112
 71.5126953125 1681.02929688 71.5126953125 1681.02929688 87.20703125 1679.36035156 c 0,113,114
 119.293945312 1678.40234375 119.293945312 1678.40234375 162.647460938 1710.51953125 c 1,115,116
 189.641601562 1734.67089844 189.641601562 1734.67089844 195.447265625 1744.95996094 c 1,117,-1
 198.727539062 1744.95996094 l 1,118,-1
 205.287109375 1731.83984375 l 1,119,-1
 218.407226562 1744.95996094 l 1,120,-1
 221.6875 1744.95996094 l 1,121,-1
 228.247070312 1731.83984375 l 1,122,-1
 241.3671875 1744.95996094 l 1,123,-1
 244.647460938 1744.95996094 l 1,124,125
 261.415039062 1704.23828125 261.415039062 1704.23828125 300.854492188 1687.57226562 c 0,126,127
 312.528320312 1682.63964844 312.528320312 1682.63964844 323.3671875 1682.63964844 c 0,128,129
 362.692382812 1683.98144531 362.692382812 1683.98144531 395.52734375 1722 c 0,130,131
 453.284179688 1786.9765625 453.284179688 1786.9765625 428.125976562 1867.68945312 c 0,132,133
 425.0078125 1876.99121094 425.0078125 1876.99121094 421.767578125 1884.36035156 c 1,82,83
EndSplineSet
EndChar

StartChar: afii57458
Encoding: 1618 1618 318
AltUni2: 00fe7e.ffffffff.0
Width: -30
VWidth: 1639
GlyphClass: 2
Flags: HW
AnchorPoint: "GposMark2BaseAnchorHamzaErabAbove_01_01" 122.92 1630.16 mark 0
AnchorPoint: "GposMark2BaseAnchorHamzaErabBelow_01_01" 122.92 2040.47 mark 0
AnchorPoint: "GposMark2BaseAnchorClassErabAbove_01_02" 122.92 1630.16 mark 0
AnchorPoint: "GposMark2MarkAnchorHamzaErabAbove_01_01" 122.92 1630.16 mark 0
AnchorPoint: "GposMark2MarkAnchorHamzaErabBelow_01_01" 122.92 2040.47 mark 0
AnchorPoint: "GposMark2MarkAnchorShaddaErabAbove_01_02" 122.92 1630.16 mark 0
AnchorPoint: "GposMark2MarkAnchorShaddaErabBelow_01_02" 122.92 2040.47 mark 0
LayerCount: 2
Fore
SplineSet
70.4404296875 2040.16015625 m 0,0,1
 74.8125 2040.46972656 74.8125 2040.46972656 118 2040.16015625 c 0,2,3
 148.736328125 2039.72167969 148.736328125 2039.72167969 172.120117188 2033.59960938 c 1,4,5
 287.153320312 1983.55273438 287.153320312 1983.55273438 291.83984375 1813.83984375 c 1,6,7
 291.83984375 1704.8203125 291.83984375 1704.8203125 249.678710938 1666.34179688 c 0,8,9
 236.924804688 1655.46484375 236.924804688 1655.46484375 222.959960938 1648.20019531 c 0,10,11
 203.850585938 1638 203.850585938 1638 183.599609375 1635.08007812 c 1,12,13
 162.349609375 1630.16699219 162.349609375 1630.16699219 122.919921875 1630.16015625 c 0,14,15
 20.630859375 1630.16015625 20.630859375 1630.16015625 -13.5498046875 1659.78417969 c 0,16,17
 -24.3779296875 1670.07226562 -24.3779296875 1670.07226562 -31.240234375 1681 c 0,18,19
 -45.9892578125 1708.92382812 -45.9892578125 1708.92382812 -46 1766.28027344 c 0,20,21
 -45.216796875 1860.65527344 -45.216796875 1860.65527344 4.83984375 1961.44042969 c 0,22,23
 37.048828125 2025.85742188 37.048828125 2025.85742188 60.609375 2036.89550781 c 0,24,25
 66.3193359375 2039.15234375 66.3193359375 2039.15234375 70.4404296875 2040.16015625 c 0,0,1
226.240234375 1887.63964844 m 1,26,27
 202.142578125 1952.19726562 202.142578125 1952.19726562 144.240234375 1981.12011719 c 1,28,29
 113.15234375 1990.61035156 113.15234375 1990.61035156 106.51953125 1989.3203125 c 0,30,31
 88.4794921875 1982.75976562 88.4794921875 1982.75976562 66.7763671875 1945.49707031 c 2,32,-1
 65.51953125 1943.40039062 l 2,33,34
 32.4677734375 1885.90527344 32.4677734375 1885.90527344 11.400390625 1815.48046875 c 0,35,36
 0.16796875 1778.03808594 0.16796875 1778.03808594 3.2001953125 1761.36035156 c 0,37,38
 14.8203125 1692.6953125 14.8203125 1692.6953125 89.11328125 1680.87890625 c 0,39,40
 162.5234375 1669.20410156 162.5234375 1669.20410156 210.451171875 1718.98925781 c 0,41,42
 220.078125 1729.69726562 220.078125 1729.69726562 226.240234375 1740.04003906 c 1,43,44
 184.424804688 1725.9140625 184.424804688 1725.9140625 90.1201171875 1726.91992188 c 0,45,46
 46.5947265625 1728.35449219 46.5947265625 1728.35449219 29.4404296875 1749.87988281 c 0,47,48
 23.970703125 1759.34277344 23.970703125 1759.34277344 24.51953125 1785.95996094 c 1,49,50
 20.71875 1838.17089844 20.71875 1838.17089844 44.2001953125 1886 c 0,51,52
 55.5263671875 1911.86328125 55.5263671875 1911.86328125 70.4404296875 1918.79980469 c 0,53,54
 77.34375 1921.0625 77.34375 1921.0625 111.440429688 1920.44042969 c 0,55,56
 176.846679688 1919.39550781 176.846679688 1919.39550781 226.240234375 1887.63964844 c 1,26,27
114.719726562 1871.24023438 m 0,57,58
 99.392578125 1869.96289062 99.392578125 1869.96289062 80.515625 1821.66992188 c 0,59,60
 79.1875 1818.42773438 79.1875 1818.42773438 78.6396484375 1817.12011719 c 0,61,62
 74.7822265625 1797.68066406 74.7822265625 1797.68066406 75.3603515625 1795.79980469 c 0,63,64
 87.8046875 1770.23242188 87.8046875 1770.23242188 144.240234375 1774.48046875 c 1,65,66
 189.478515625 1785.04492188 189.478515625 1785.04492188 196.719726562 1800.71972656 c 1,67,68
 199.936523438 1812.19140625 199.936523438 1812.19140625 188.51953125 1828.59960938 c 1,69,70
 171.897460938 1859.46972656 171.897460938 1859.46972656 135.223632812 1869.7890625 c 0,71,72
 123.930664062 1872.96679688 123.930664062 1872.96679688 114.719726562 1871.24023438 c 0,57,58
EndSplineSet
EndChar

StartChar: uni0654
Encoding: 1620 1620 320
Width: 60
VWidth: 1639
GlyphClass: 2
Flags: HW
AnchorPoint: "GposMark2BaseAnchorClassErabAbove_01_02" 177.421 1630.16 mark 0
AnchorPoint: "GposMark2MarkAnchorHamzaErabAbove_01_01" 177.421 2269.29 basemark 0
AnchorPoint: "GposMark2MarkAnchorHamzaErabBelow_01_01" 177.421 1480.16 basemark 0
LayerCount: 2
Fore
SplineSet
32.240234375 1774.48046875 m 1,0,1
 -38.9091796875 1810.84570312 -38.9091796875 1810.84570312 -32.5546875 1901.28808594 c 0,2,3
 -28.9970703125 1941.40234375 -28.9970703125 1941.40234375 -10.400390625 1974.55957031 c 0,4,5
 57.607421875 2090.50683594 57.607421875 2090.50683594 143.759765625 2115.59960938 c 0,6,7
 156.44140625 2119.28710938 156.44140625 2119.28710938 204.440429688 2118.87988281 c 0,8,9
 245.6484375 2118.30566406 245.6484375 2118.30566406 258.559570312 2113.95996094 c 0,10,11
 325.380859375 2094.56054688 325.380859375 2094.56054688 342.076171875 2026.32910156 c 0,12,13
 344.668945312 2014.54589844 344.668945312 2014.54589844 345.479492188 2004.08007812 c 0,14,15
 342.419921875 1961.09667969 342.419921875 1961.09667969 338.919921875 1956.51953125 c 1,16,17
 333.319335938 1954.08984375 333.319335938 1954.08984375 306.120117188 1954.87988281 c 0,18,19
 276.571289062 1955.31542969 276.571289062 1955.31542969 271.6796875 1956.51953125 c 0,20,21
 262.6640625 1958.2109375 262.6640625 1958.2109375 244.1171875 1963.56445312 c 0,22,23
 207.98046875 1973.99609375 207.98046875 1973.99609375 189.6796875 1972.91992188 c 1,24,25
 162.500976562 1967.78320312 162.500976562 1967.78320312 132.280273438 1949.95996094 c 1,26,27
 119.270507812 1934.61816406 119.270507812 1934.61816406 119.16015625 1931.91992188 c 0,28,29
 119.16015625 1928.63964844 119.16015625 1928.63964844 121.620117188 1925.36035156 c 128,-1,30
 124.080078125 1922.08007812 124.080078125 1922.08007812 126.540039062 1918.79980469 c 128,-1,31
 129 1915.51953125 129 1915.51953125 133.099609375 1911.41992188 c 128,-1,32
 137.200195312 1907.3203125 137.200195312 1907.3203125 139.66015625 1905.6796875 c 128,-1,33
 142.120117188 1904.04003906 142.120117188 1904.04003906 147.040039062 1899.94042969 c 2,34,-1
 151.959960938 1895.83984375 l 1,35,36
 217.448242188 1846.71679688 217.448242188 1846.71679688 301.200195312 1866.3203125 c 0,37,38
 335.790039062 1873.24707031 335.790039062 1873.24707031 366.799804688 1871.24023438 c 1,39,-1
 386.479492188 1871.24023438 l 1,40,41
 393.751953125 1865.18066406 393.751953125 1865.18066406 388.120117188 1836.79980469 c 1,42,43
 381.823242188 1785.79199219 381.823242188 1785.79199219 373.360351562 1756.44042969 c 0,44,45
 367.672851562 1732.76660156 367.672851562 1732.76660156 365.16015625 1730.20019531 c 0,46,47
 360.284179688 1727.27441406 360.284179688 1727.27441406 345.986328125 1724.91796875 c 0,48,49
 336.030273438 1723.0625 336.030273438 1723.0625 332.360351562 1722 c 0,50,51
 304.501953125 1716.67382812 304.501953125 1716.67382812 253.639648438 1703.95996094 c 0,52,53
 110.135742188 1669.27148438 110.135742188 1669.27148438 10.919921875 1630.16015625 c 1,54,-1
 10.919921875 1638.36035156 l 1,55,-1
 -12.0400390625 1630.16015625 l 1,56,-1
 -12.0400390625 1638.36035156 l 1,57,-1
 -35 1630.16015625 l 1,58,-1
 -35 1703.95996094 l 1,59,-1
 -33.3603515625 1733.48046875 l 1,60,-1
 -13.6796875 1748.24023438 l 1,61,-1
 32.240234375 1774.48046875 l 1,0,1
283.16015625 2012.28027344 m 1,62,63
 276.890625 2025.06933594 276.890625 2025.06933594 260.200195312 2041.79980469 c 0,64,65
 230.165039062 2070.17285156 230.165039062 2070.17285156 197.879882812 2071.3203125 c 0,66,67
 150.1875 2071.3203125 150.1875 2071.3203125 96.765625 2008.625 c 0,68,69
 91.4482421875 2002.16308594 91.4482421875 2002.16308594 88 1997.51953125 c 1,70,71
 94.3994140625 1999.84765625 94.3994140625 1999.84765625 106.7265625 2005.30078125 c 0,72,73
 129.466796875 2014.93945312 129.466796875 2014.93945312 140.479492188 2017.20019531 c 0,74,75
 185.475585938 2026.27539062 185.475585938 2026.27539062 283.16015625 2012.28027344 c 1,62,63
63.400390625 1966.36035156 m 1,76,77
 42.4912109375 1948.50585938 42.4912109375 1948.50585938 25.6796875 1908.95996094 c 0,78,79
 17.7529296875 1893.10644531 17.7529296875 1893.10644531 19.1201171875 1887.63964844 c 0,80,81
 20.759765625 1877.79980469 20.759765625 1877.79980469 35.693359375 1858.3046875 c 2,82,-1
 37.16015625 1856.48046875 l 1,83,84
 80.775390625 1810.57128906 80.775390625 1810.57128906 114.240234375 1794.16015625 c 1,85,-1
 96.2001953125 1784.3203125 l 1,86,-1
 114.240234375 1771.20019531 l 1,87,-1
 96.2001953125 1761.36035156 l 1,88,-1
 114.240234375 1748.24023438 l 1,89,-1
 28.9599609375 1700.6796875 l 1,90,-1
 28.9599609375 1699.04003906 l 1,91,92
 67.3828125 1708.41113281 67.3828125 1708.41113281 144.228515625 1731.43847656 c 0,93,94
 202.409179688 1748.82226562 202.409179688 1748.82226562 230.6796875 1756.44042969 c 0,95,96
 240.51953125 1758.90039062 240.51953125 1758.90039062 261.01953125 1763 c 0,97,98
 282.010742188 1767.2734375 282.010742188 1767.2734375 291.360351562 1769.55957031 c 0,99,100
 317.451171875 1774.77832031 317.451171875 1774.77832031 319.240234375 1776.12011719 c 0,101,102
 323.189453125 1781.29980469 323.189453125 1781.29980469 332.360351562 1817.12011719 c 1,103,104
 187.694335938 1791.44238281 187.694335938 1791.44238281 112.599609375 1845 c 1,105,106
 71.4716796875 1877.54589844 71.4716796875 1877.54589844 65.0400390625 1904.04003906 c 0,107,108
 57.2578125 1932.57617188 57.2578125 1932.57617188 63.400390625 1966.36035156 c 1,76,77
EndSplineSet
EndChar

StartChar: uni0655
Encoding: 1621 1621 321
Width: 61
VWidth: 1639
GlyphClass: 2
Flags: HW
AnchorPoint: "GposMark2BaseAnchorClassErabBelow_01_02" -42.5786 -129.152 mark 0
LayerCount: 2
Fore
SplineSet
-187.759765625 -473.959960938 m 1,0,1
 -258.909179688 -437.594726562 -258.909179688 -437.594726562 -252.5546875 -347.151367188 c 0,2,3
 -248.997070312 -307.038085938 -248.997070312 -307.038085938 -230.400390625 -273.879882812 c 0,4,5
 -162.392578125 -157.93359375 -162.392578125 -157.93359375 -76.240234375 -132.83984375 c 0,6,7
 -63.55859375 -129.15234375 -63.55859375 -129.15234375 -15.5595703125 -129.559570312 c 0,8,9
 25.6484375 -130.133789062 25.6484375 -130.133789062 38.5595703125 -134.48046875 c 0,10,11
 105.380859375 -153.879882812 105.380859375 -153.879882812 122.076171875 -222.110351562 c 0,12,13
 124.668945312 -233.893554688 124.668945312 -233.893554688 125.479492188 -244.360351562 c 0,14,15
 122.419921875 -287.34375 122.419921875 -287.34375 118.919921875 -291.919921875 c 1,16,17
 113.319335938 -294.350585938 113.319335938 -294.350585938 86.1201171875 -293.559570312 c 0,18,19
 56.5712890625 -293.124023438 56.5712890625 -293.124023438 51.6796875 -291.919921875 c 0,20,21
 42.6640625 -290.229492188 42.6640625 -290.229492188 24.1171875 -284.875 c 0,22,23
 -12.01953125 -274.443359375 -12.01953125 -274.443359375 -30.3203125 -275.51953125 c 1,24,25
 -57.4990234375 -280.657226562 -57.4990234375 -280.657226562 -87.7197265625 -298.48046875 c 1,26,27
 -100.729492188 -313.822265625 -100.729492188 -313.822265625 -100.83984375 -316.51953125 c 0,28,29
 -100.83984375 -319.799804688 -100.83984375 -319.799804688 -98.3798828125 -323.080078125 c 128,-1,30
 -95.919921875 -326.360351562 -95.919921875 -326.360351562 -93.4599609375 -329.639648438 c 128,-1,31
 -91 -332.919921875 -91 -332.919921875 -86.900390625 -337.01953125 c 128,-1,32
 -82.7998046875 -341.120117188 -82.7998046875 -341.120117188 -80.33984375 -342.759765625 c 128,-1,33
 -77.8798828125 -344.400390625 -77.8798828125 -344.400390625 -72.9599609375 -348.5 c 2,34,-1
 -68.0400390625 -352.599609375 l 1,35,36
 -2.5517578125 -401.723632812 -2.5517578125 -401.723632812 81.2001953125 -382.120117188 c 0,37,38
 115.790039062 -375.192382812 115.790039062 -375.192382812 146.799804688 -377.200195312 c 1,39,-1
 166.479492188 -377.200195312 l 1,40,41
 173.751953125 -383.259765625 173.751953125 -383.259765625 168.120117188 -411.639648438 c 1,42,43
 161.823242188 -462.6484375 161.823242188 -462.6484375 153.360351562 -492 c 0,44,45
 147.672851562 -515.673828125 147.672851562 -515.673828125 145.16015625 -518.240234375 c 0,46,47
 140.284179688 -521.166015625 140.284179688 -521.166015625 125.986328125 -523.522460938 c 0,48,49
 116.030273438 -525.377929688 116.030273438 -525.377929688 112.360351562 -526.440429688 c 0,50,51
 84.501953125 -531.765625 84.501953125 -531.765625 33.6396484375 -544.48046875 c 0,52,53
 -109.864257812 -579.168945312 -109.864257812 -579.168945312 -209.080078125 -618.280273438 c 1,54,-1
 -209.080078125 -610.080078125 l 1,55,-1
 -232.040039062 -618.280273438 l 1,56,-1
 -232.040039062 -610.080078125 l 1,57,-1
 -255 -618.280273438 l 1,58,-1
 -255 -544.48046875 l 1,59,-1
 -253.360351562 -514.959960938 l 1,60,-1
 -233.6796875 -500.200195312 l 1,61,-1
 -187.759765625 -473.959960938 l 1,0,1
63.16015625 -236.16015625 m 1,62,63
 56.890625 -223.37109375 56.890625 -223.37109375 40.2001953125 -206.639648438 c 0,64,65
 10.1650390625 -178.267578125 10.1650390625 -178.267578125 -22.1201171875 -177.120117188 c 0,66,67
 -69.8125 -177.120117188 -69.8125 -177.120117188 -123.234375 -239.814453125 c 0,68,69
 -128.551757812 -246.276367188 -128.551757812 -246.276367188 -132 -250.919921875 c 1,70,71
 -125.600585938 -248.592773438 -125.600585938 -248.592773438 -113.2734375 -243.139648438 c 0,72,73
 -90.533203125 -233.5 -90.533203125 -233.5 -79.5205078125 -231.240234375 c 0,74,75
 -34.5244140625 -222.1640625 -34.5244140625 -222.1640625 63.16015625 -236.16015625 c 1,62,63
-156.599609375 -282.080078125 m 1,76,77
 -177.508789062 -299.93359375 -177.508789062 -299.93359375 -194.3203125 -339.48046875 c 0,78,79
 -202.247070312 -355.333007812 -202.247070312 -355.333007812 -200.879882812 -360.799804688 c 0,80,81
 -199.240234375 -370.639648438 -199.240234375 -370.639648438 -184.306640625 -390.134765625 c 2,82,-1
 -182.83984375 -391.959960938 l 1,83,84
 -139.224609375 -437.869140625 -139.224609375 -437.869140625 -105.759765625 -454.280273438 c 1,85,-1
 -123.799804688 -464.120117188 l 1,86,-1
 -105.759765625 -477.240234375 l 1,87,-1
 -123.799804688 -487.080078125 l 1,88,-1
 -105.759765625 -500.200195312 l 1,89,-1
 -191.040039062 -547.759765625 l 1,90,-1
 -191.040039062 -549.400390625 l 1,91,92
 -152.6171875 -540.028320312 -152.6171875 -540.028320312 -75.771484375 -517.001953125 c 0,93,94
 -17.5908203125 -499.618164062 -17.5908203125 -499.618164062 10.6796875 -492 c 0,95,96
 20.51953125 -489.540039062 20.51953125 -489.540039062 41.01953125 -485.440429688 c 0,97,98
 62.0107421875 -481.166015625 62.0107421875 -481.166015625 71.3603515625 -478.879882812 c 0,99,100
 97.451171875 -473.662109375 97.451171875 -473.662109375 99.240234375 -472.3203125 c 0,101,102
 103.189453125 -467.140625 103.189453125 -467.140625 112.360351562 -431.3203125 c 1,103,104
 -32.3056640625 -456.997070312 -32.3056640625 -456.997070312 -107.400390625 -403.440429688 c 1,105,106
 -148.528320312 -370.893554688 -148.528320312 -370.893554688 -154.959960938 -344.400390625 c 0,107,108
 -162.7421875 -315.864257812 -162.7421875 -315.864257812 -156.599609375 -282.080078125 c 1,76,77
EndSplineSet
EndChar

StartChar: uni0656
Encoding: 1622 1622 322
Width: 73
VWidth: 1639
GlyphClass: 2
Flags: HW
AnchorPoint: "GposMark2BaseAnchorClassErabBelow_01_02" -24.3682 -131.558 mark 0
LayerCount: 2
Fore
SplineSet
-34.6796875 -828.200195312 m 1,0,1
 -39.62890625 -820.775390625 -39.62890625 -820.775390625 -40.93359375 -780.83203125 c 0,2,3
 -41.0234375 -778.104492188 -41.0234375 -778.104492188 -41.240234375 -775.719726562 c 0,4,5
 -42.8798828125 -756.860351562 -42.8798828125 -756.860351562 -46.16015625 -719.959960938 c 0,6,7
 -49.48828125 -682.482421875 -49.48828125 -682.482421875 -51.080078125 -664.200195312 c 0,8,9
 -56.416015625 -615.879882812 -56.416015625 -615.879882812 -93.7197265625 -350.959960938 c 1,10,11
 -109.98046875 -251.811523438 -109.98046875 -251.811523438 -110.120117188 -231.240234375 c 0,12,13
 -110.120117188 -226.748046875 -110.120117188 -226.748046875 -111.134765625 -216.65234375 c 0,14,15
 -112.456054688 -200.166015625 -112.456054688 -200.166015625 -111.759765625 -193.51953125 c 1,16,17
 -109.16796875 -187.059570312 -109.16796875 -187.059570312 -87.16015625 -177.120117188 c 1,18,19
 -64.1845703125 -163.174804688 -64.1845703125 -163.174804688 -19.919921875 -141.040039062 c 0,20,21
 -0.5458984375 -131.844726562 -0.5458984375 -131.844726562 6.3203125 -139.400390625 c 1,22,23
 23.6650390625 -131.557617188 23.6650390625 -131.557617188 29.2802734375 -139.400390625 c 1,24,25
 47.3076171875 -132.5 47.3076171875 -132.5 52.240234375 -137.759765625 c 1,26,27
 52.732421875 -141.036132812 52.732421875 -141.036132812 55.5205078125 -178.759765625 c 0,28,29
 60.37109375 -236.1953125 60.37109375 -236.1953125 60.4404296875 -295.200195312 c 0,30,31
 60.4404296875 -355.059570312 60.4404296875 -355.059570312 62.080078125 -473.959960938 c 0,32,33
 63.705078125 -593.416992188 63.705078125 -593.416992188 63.7197265625 -652.719726562 c 0,34,35
 63.7197265625 -741.499023438 63.7197265625 -741.499023438 61.861328125 -751.790039062 c 0,36,37
 56.9775390625 -775.362304688 56.9775390625 -775.362304688 47.3203125 -792.120117188 c 1,38,39
 32.4296875 -813.139648438 32.4296875 -813.139648438 12.8798828125 -828.200195312 c 1,40,-1
 11.240234375 -828.200195312 l 1,41,-1
 6.3203125 -815.080078125 l 1,42,-1
 -10.080078125 -828.200195312 l 1,43,-1
 -11.7197265625 -828.200195312 l 1,44,-1
 -16.6396484375 -815.080078125 l 1,45,-1
 -33.0400390625 -828.200195312 l 1,46,-1
 -34.6796875 -828.200195312 l 1,0,1
7.9599609375 -196.799804688 m 1,47,-1
 -41.240234375 -223.040039062 l 1,48,-1
 -57.6396484375 -234.51953125 l 1,49,-1
 -52.7197265625 -278.799804688 l 1,50,-1
 -36.3193359375 -380.48046875 l 1,51,-1
 -8.439453125 -598.599609375 l 1,52,-1
 4.6806640625 -738 l 1,53,-1
 6.3203125 -738 l 1,54,55
 22.146484375 -699.04296875 22.146484375 -699.04296875 18.33203125 -590.00390625 c 0,56,57
 17.8330078125 -574.231445312 17.8330078125 -574.231445312 17.7998046875 -564.16015625 c 0,58,59
 17.6689453125 -317.6328125 17.6689453125 -317.6328125 7.9599609375 -196.799804688 c 1,47,-1
EndSplineSet
EndChar

StartChar: uni0670
Encoding: 1648 1648 326
Width: 73
VWidth: 1639
GlyphClass: 2
Flags: HW
AnchorPoint: "GposMark2BaseAnchorHamzaErabAbove_01_01" 142.621 1630.16 mark 0
AnchorPoint: "GposMark2BaseAnchorHamzaErabBelow_01_01" 142.621 2326.8 mark 0
AnchorPoint: "GposMark2BaseAnchorClassErabAbove_01_02" 142.621 1630.16 mark 0
AnchorPoint: "GposMark2MarkAnchorHamzaErabAbove_01_01" 142.621 1630.16 mark 0
AnchorPoint: "GposMark2MarkAnchorHamzaErabBelow_01_01" 142.621 2326.8 mark 0
AnchorPoint: "GposMark2MarkAnchorShaddaErabAbove_01_02" 142.621 1630.16 mark 0
AnchorPoint: "GposMark2MarkAnchorShaddaErabBelow_01_02" 142.621 2326.8 mark 0
LayerCount: 2
Fore
SplineSet
132.459960938 1630.16015625 m 1,0,1
 127.510742188 1637.58398438 127.510742188 1637.58398438 126.206054688 1677.52832031 c 0,2,3
 126.015625 1680.98339844 126.015625 1680.98339844 125.899414062 1682.63964844 c 0,4,5
 124.259765625 1701.5 124.259765625 1701.5 120.979492188 1738.40039062 c 0,6,7
 117.651367188 1775.87792969 117.651367188 1775.87792969 116.059570312 1794.16015625 c 0,8,9
 110.723632812 1842.48046875 110.723632812 1842.48046875 73.419921875 2107.40039062 c 1,10,11
 57.1591796875 2206.54882812 57.1591796875 2206.54882812 57.01953125 2227.12011719 c 0,12,13
 57.01953125 2231.61132812 57.01953125 2231.61132812 56.0048828125 2241.70800781 c 0,14,15
 54.3818359375 2257.8515625 54.3818359375 2257.8515625 55.3798828125 2264.83984375 c 1,16,17
 57.9716796875 2271.30078125 57.9716796875 2271.30078125 79.9794921875 2281.24023438 c 1,18,19
 102.955078125 2295.18457031 102.955078125 2295.18457031 147.219726562 2317.3203125 c 0,20,21
 166.59375 2326.515625 166.59375 2326.515625 173.459960938 2318.95996094 c 1,22,23
 190.8046875 2326.80273438 190.8046875 2326.80273438 196.419921875 2318.95996094 c 1,24,25
 214.447265625 2325.86035156 214.447265625 2325.86035156 219.379882812 2320.59960938 c 1,26,27
 219.872070312 2317.32324219 219.872070312 2317.32324219 222.66015625 2279.59960938 c 0,28,29
 227.510742188 2222.16503906 227.510742188 2222.16503906 227.580078125 2163.16015625 c 0,30,31
 227.580078125 2103.29980469 227.580078125 2103.29980469 229.219726562 1984.40039062 c 0,32,33
 230.844726562 1864.94335938 230.844726562 1864.94335938 230.859375 1805.63964844 c 0,34,35
 230.859375 1716.86132812 230.859375 1716.86132812 229.000976562 1706.56933594 c 0,36,37
 224.1171875 1682.99804688 224.1171875 1682.99804688 214.459960938 1666.24023438 c 1,38,39
 199.569335938 1645.22070312 199.569335938 1645.22070312 180.01953125 1630.16015625 c 1,40,-1
 178.379882812 1630.16015625 l 1,41,-1
 173.459960938 1643.28027344 l 1,42,-1
 157.059570312 1630.16015625 l 1,43,-1
 155.419921875 1630.16015625 l 1,44,-1
 150.5 1643.28027344 l 1,45,-1
 134.099609375 1630.16015625 l 1,46,-1
 132.459960938 1630.16015625 l 1,0,1
175.099609375 2261.55957031 m 1,47,-1
 125.899414062 2235.3203125 l 1,48,-1
 109.5 2223.83984375 l 1,49,-1
 114.419921875 2179.55957031 l 1,50,-1
 130.8203125 2077.87988281 l 1,51,-1
 158.700195312 1859.75976562 l 1,52,-1
 171.8203125 1720.36035156 l 1,53,-1
 173.459960938 1720.36035156 l 1,54,55
 189.286132812 1759.31738281 189.286132812 1759.31738281 185.471679688 1868.35644531 c 0,56,57
 184.97265625 1884.12890625 184.97265625 1884.12890625 184.939453125 1894.20019531 c 0,58,59
 184.80859375 2140.72753906 184.80859375 2140.72753906 175.099609375 2261.55957031 c 1,47,-1
EndSplineSet
EndChar

StartChar: uni0674
Encoding: 1652 1652 327
Width: 110
GlyphClass: 2
Flags: HW
AnchorPoint: "GposMark2BaseAnchorClassErabAbove_01_02" 359.5 1014 mark 0
AnchorPoint: "GposMark2MarkAnchorHamzaErabAbove_01_01" 359.5 1579 basemark 0
AnchorPoint: "GposMark2MarkAnchorHamzaErabBelow_01_01" 359.5 864 basemark 0
LayerCount: 2
Fore
SplineSet
533 1178 m 2,0,1
 528 1160 528 1160 521 1145 c 128,-1,2
 514 1130 514 1130 509 1129 c 0,3,4
 461 1118 461 1118 421 1109 c 128,-1,5
 381 1100 381 1100 363 1095 c 0,6,7
 317 1082 317 1082 274 1062 c 128,-1,8
 231 1042 231 1042 196 1018 c 1,9,10
 192 1014 192 1014 188 1014 c 0,11,12
 185 1014 185 1014 180 1018 c 128,-1,13
 175 1022 175 1022 175 1025 c 256,14,15
 175 1028 175 1028 180 1032 c 1,16,-1
 180 1031 l 1,17,18
 191 1051 191 1051 217 1076 c 128,-1,19
 243 1101 243 1101 283 1136 c 1,20,21
 195 1171 195 1171 195 1233 c 0,22,23
 195 1282 195 1282 269 1355 c 1,24,25
 346 1429 346 1429 410 1429 c 0,26,27
 421 1429 421 1429 433.5 1425.5 c 128,-1,28
 446 1422 446 1422 456 1415.5 c 128,-1,29
 466 1409 466 1409 472.5 1400.5 c 128,-1,30
 479 1392 479 1392 479 1382 c 0,31,32
 479 1368 479 1368 475.5 1353.5 c 128,-1,33
 472 1339 472 1339 466 1327 c 128,-1,34
 460 1315 460 1315 452.5 1307.5 c 128,-1,35
 445 1300 445 1300 437 1300 c 0,36,37
 433 1300 433 1300 425.5 1307.5 c 128,-1,38
 418 1315 418 1315 408 1323.5 c 128,-1,39
 398 1332 398 1332 385.5 1339.5 c 128,-1,40
 373 1347 373 1347 359 1347 c 256,41,42
 345 1347 345 1347 329 1339.5 c 128,-1,43
 313 1332 313 1332 299 1321.5 c 128,-1,44
 285 1311 285 1311 276 1299 c 128,-1,45
 267 1287 267 1287 267 1277 c 0,46,47
 267 1259 267 1259 279 1244 c 128,-1,48
 291 1229 291 1229 309.5 1218 c 128,-1,49
 328 1207 328 1207 352 1201 c 128,-1,50
 376 1195 376 1195 400 1195 c 0,51,52
 403 1195 403 1195 424 1200 c 128,-1,53
 445 1205 445 1205 470 1210.5 c 128,-1,54
 495 1216 495 1216 517 1221 c 128,-1,55
 539 1226 539 1226 544 1226 c 1,56,-1
 533 1178 l 2,0,1
EndSplineSet
EndChar

StartChar: afii57388
Encoding: 1548 1548 329
Width: 680
VWidth: 1639
GlyphClass: 2
Flags: W
LayerCount: 2
Fore
SplineSet
280.370117188 275.51953125 m 1,0,1
 380.7109375 282.208984375 380.7109375 282.208984375 415.62109375 264.892578125 c 0,2,3
 427.733398438 258.286132812 427.733398438 258.286132812 436.169921875 250.919921875 c 0,2,3
 471.87890625 215.3828125 471.87890625 215.3828125 472.25 144.3203125 c 0,4,5
 471.884765625 93.8994140625 471.884765625 93.8994140625 468.969726562 80.3603515625 c 0,6,7
 454.620117188 15.78515625 454.620117188 15.78515625 388.844726562 -14.48046875 c 0,8,9
 383.82421875 -16.677734375 383.82421875 -16.677734375 380.41015625 -18.0400390625 c 0,8,9
 350.911132812 -27.873046875 350.911132812 -27.873046875 296.770507812 -27.8798828125 c 0,10,11
 230.642578125 -27.142578125 230.642578125 -27.142578125 200.009765625 -13.1201171875 c 0,12,13
 119.723632812 27.765625 119.723632812 27.765625 106.530273438 145.959960938 c 1,14,15
 87.7626953125 357.096679688 87.7626953125 357.096679688 208.209960938 472.3203125 c 1,16,17
 272.865234375 529.537109375 272.865234375 529.537109375 337.770507812 534.639648438 c 0,18,19
 372.220703125 537.119140625 372.220703125 537.119140625 398.450195312 533 c 0,20,21
 423.008789062 530.767578125 423.008789062 530.767578125 410.534179688 512.96875 c 0,22,23
 407.955078125 509.86328125 407.955078125 509.86328125 406.650390625 508.400390625 c 1,22,23
 419.614257812 499.310546875 419.614257812 499.310546875 406.650390625 485.440429688 c 1,24,25
 425.125976562 476.202148438 425.125976562 476.202148438 391.319335938 448.079101562 c 0,26,27
 386.91015625 444.24609375 386.91015625 444.24609375 385.330078125 442.799804688 c 0,26,27
 308.29296875 371.4921875 308.29296875 371.4921875 280.370117188 275.51953125 c 1,0,1
318.08984375 470.6796875 m 1,28,29
 213.28515625 421.770507812 213.28515625 421.770507812 170.18359375 299.500976562 c 0,30,31
 154.127929688 252.463867188 154.127929688 252.463867188 152.450195312 206.639648438 c 0,30,31
 148.463867188 112.974609375 148.463867188 112.974609375 214.875 54.8916015625 c 0,32,33
 240.240234375 33.748046875 240.240234375 33.748046875 268.889648438 24.599609375 c 0,32,33
 326.087890625 6.537109375 326.087890625 6.537109375 383.243164062 56.3759765625 c 0,34,35
 419.9609375 90.0712890625 419.9609375 90.0712890625 424.690429688 129.559570312 c 1,34,35
 425.987304688 156.255859375 425.987304688 156.255859375 405.009765625 188.599609375 c 1,36,37
 374.715820312 228.395507812 374.715820312 228.395507812 327.9296875 229.599609375 c 0,38,39
 323.981445312 229.599609375 323.981445312 229.599609375 310.005859375 226.345703125 c 0,40,41
 280.603515625 220.364257812 280.603515625 220.364257812 275.450195312 224.6796875 c 1,40,41
 256.284179688 221.411132812 256.284179688 221.411132812 252.490234375 224.6796875 c 1,42,-1
 229.530273438 219.759765625 l 1,43,44
 230.333984375 335.053710938 230.333984375 335.053710938 257.41015625 388.6796875 c 0,45,46
 263.015625 399.330078125 263.015625 399.330078125 309.571289062 459.223632812 c 0,47,48
 314.756835938 466.03515625 314.756835938 466.03515625 318.08984375 470.6796875 c 1,28,29
EndSplineSet
EndChar

StartChar: afii57403
Encoding: 1563 1563 334
Width: 679
VWidth: 1639
GlyphClass: 2
Flags: W
LayerCount: 2
Fore
SplineSet
279.48046875 657.639648438 m 1,0,1
 289.662109375 659.520507812 289.662109375 659.520507812 327.040039062 659.280273438 c 0,2,3
 409.166992188 658.014648438 409.166992188 658.014648438 440.200195312 629.759765625 c 1,4,5
 471.037109375 597.229492188 471.037109375 597.229492188 471.360351562 529.719726562 c 0,6,7
 471.098632812 479.68359375 471.098632812 479.68359375 469.720703125 470.6796875 c 0,8,9
 458.26171875 405.379882812 458.26171875 405.379882812 391 370.639648438 c 1,10,11
 356.317382812 355.991210938 356.317382812 355.991210938 302.440429688 355.879882812 c 0,12,13
 219.96875 356.876953125 219.96875 356.876953125 182.720703125 380.48046875 c 1,14,15
 105.094726562 440.116210938 105.094726562 440.116210938 104 588.759765625 c 0,16,17
 104.48828125 667.209960938 104.48828125 667.209960938 120.400390625 719.959960938 c 1,18,19
 139.171875 768.946289062 139.171875 768.946289062 154.840820312 793.759765625 c 0,20,21
 209.745117188 878.862304688 209.745117188 878.862304688 289.8125 908.127929688 c 0,22,23
 299.482421875 911.470703125 299.482421875 911.470703125 307.360351562 913.48046875 c 0,22,23
 342.01171875 919.584960938 342.01171875 919.584960938 389.360351562 916.759765625 c 1,24,25
 421.32421875 910.887695312 421.32421875 910.887695312 404.120117188 890.51953125 c 1,26,27
 420.551757812 885.081054688 420.551757812 885.081054688 404.120117188 867.559570312 c 1,28,29
 426.166992188 862.048828125 426.166992188 862.048828125 390.081054688 830.2265625 c 0,30,31
 387.032226562 827.4375 387.032226562 827.4375 386.080078125 826.559570312 c 0,30,31
 305.698242188 749.694335938 305.698242188 749.694335938 279.48046875 657.639648438 c 1,0,1
317.200195312 852.799804688 m 1,32,33
 226.487304688 813.922851562 226.487304688 813.922851562 177.71875 706.315429688 c 0,34,35
 143.541015625 628.815429688 143.541015625 628.815429688 153.200195312 559.240234375 c 0,34,35
 165.869140625 468.447265625 165.869140625 468.447265625 229.30078125 424.545898438 c 0,36,37
 258.834960938 405.291015625 258.834960938 405.291015625 290.959960938 403.440429688 c 0,36,37
 353.153320312 401.13671875 353.153320312 401.13671875 396.989257812 458.181640625 c 0,38,39
 445.706054688 521.577148438 445.706054688 521.577148438 402.864257812 573.852539062 c 0,40,41
 396.377929688 581.767578125 396.377929688 581.767578125 387.720703125 588.759765625 c 0,38,39
 370.52734375 602.025390625 370.52734375 602.025390625 353.280273438 606.799804688 c 0,40,41
 331.75 612.310546875 331.75 612.310546875 274.560546875 601.879882812 c 1,42,43
 271.875976562 608.401367188 271.875976562 608.401367188 251.600585938 601.879882812 c 1,44,45
 248.916015625 608.401367188 248.916015625 608.401367188 228.640625 601.879882812 c 1,46,47
 229.475585938 720.413085938 229.475585938 720.413085938 258.16015625 774.080078125 c 0,48,49
 262.533203125 781.951171875 262.533203125 781.951171875 308.412109375 840.975585938 c 0,50,51
 313.719726562 847.947265625 313.719726562 847.947265625 317.200195312 852.799804688 c 1,32,33
251.600585938 244.360351562 m 0,50,51
 361.883789062 258.366210938 361.883789062 258.366210938 407.400390625 193.51953125 c 1,52,53
 423.787109375 167.200195312 423.787109375 167.200195312 423.80078125 114.799804688 c 0,54,55
 423.506835938 69.779296875 423.506835938 69.779296875 422.16015625 62.3203125 c 0,56,57
 405.177734375 1.6669921875 405.177734375 1.6669921875 345.22265625 -16.7822265625 c 0,58,59
 338.630859375 -18.6318359375 338.630859375 -18.6318359375 333.600585938 -19.6796875 c 0,58,59
 220.1640625 -34.6279296875 220.1640625 -34.6279296875 176.16015625 27.8798828125 c 1,60,61
 158.25390625 56.4765625 158.25390625 56.4765625 158.120117188 106.599609375 c 0,62,63
 158.405273438 152.538085938 158.405273438 152.538085938 159.760742188 160.719726562 c 0,64,65
 176.140625 221.5625 176.140625 221.5625 237.669921875 240.895507812 c 0,66,67
 245.38671875 243.1171875 245.38671875 243.1171875 251.600585938 244.360351562 c 0,50,51
290.959960938 195.16015625 m 0,66,67
 252.802734375 195.16015625 252.802734375 195.16015625 220.78125 150.666015625 c 0,68,69
 206.36328125 129.09765625 206.36328125 129.09765625 205.680664062 111.51953125 c 0,68,69
 205.680664062 73.85546875 205.680664062 73.85546875 251.361328125 42.52734375 c 0,70,71
 273.280273438 28.5361328125 273.280273438 28.5361328125 290.959960938 27.8798828125 c 0,70,71
 329.118164062 27.8798828125 329.118164062 27.8798828125 361.139648438 72.3740234375 c 0,72,73
 375.557617188 93.9423828125 375.557617188 93.9423828125 376.240234375 111.51953125 c 0,72,73
 374.506835938 149.662109375 374.506835938 149.662109375 330.173828125 180.512695312 c 0,74,75
 308.541015625 194.500976562 308.541015625 194.500976562 290.959960938 195.16015625 c 0,66,67
EndSplineSet
EndChar

StartChar: afii57407
Encoding: 1567 1567 335
Width: 1034
VWidth: 1639
GlyphClass: 2
Flags: W
LayerCount: 2
Fore
SplineSet
450.75 309.959960938 m 1,0,1
 450.928710938 369.546875 450.928710938 369.546875 454.030273438 398.51953125 c 0,2,3
 460.6484375 464.708007812 460.6484375 464.708007812 456.670898438 480.7421875 c 0,4,5
 454.565429688 488.1640625 454.565429688 488.1640625 452.389648438 493.639648438 c 0,4,5
 429.560546875 539.419921875 429.560546875 539.419921875 363.830078125 605.16015625 c 0,6,7
 343.719726562 625.270507812 343.719726562 625.270507812 301.977539062 664.600585938 c 0,8,9
 234.028320312 728.858398438 234.028320312 728.858398438 203.110351562 762.599609375 c 0,8,9
 110.765625 866.357421875 110.765625 866.357421875 104.709960938 1018.44042969 c 0,10,11
 93.818359375 1263.51171875 93.818359375 1263.51171875 250.092773438 1390.80175781 c 0,12,13
 259.247070312 1398.11328125 259.247070312 1398.11328125 267.0703125 1403.83984375 c 0,12,13
 356.478515625 1465.80371094 356.478515625 1465.80371094 490.110351562 1466.16015625 c 0,14,15
 671.067382812 1466.16015625 671.067382812 1466.16015625 763 1357.11816406 c 0,16,17
 788.262695312 1326.22265625 788.262695312 1326.22265625 803.349609375 1290.6796875 c 0,16,17
 826.172851562 1235.71386719 826.172851562 1235.71386719 826.309570312 1149.63964844 c 0,18,19
 825.32421875 1045.94042969 825.32421875 1045.94042969 786.950195312 987.280273438 c 1,20,21
 741.7734375 927.266601562 741.7734375 927.266601562 639.349609375 926.599609375 c 1,22,23
 568.142578125 928.064453125 568.142578125 928.064453125 536.030273438 962.6796875 c 1,24,25
 510 996.09375 510 996.09375 509.790039062 1056.16015625 c 0,26,27
 511.474609375 1148.29296875 511.474609375 1148.29296875 560.629882812 1184.08007812 c 0,28,29
 597.01953125 1209.9921875 597.01953125 1209.9921875 667.23046875 1207.04003906 c 0,30,31
 698.317382812 1206.62304688 698.317382812 1206.62304688 703.309570312 1205.40039062 c 1,32,33
 631.5625 1325.05273438 631.5625 1325.05273438 522.91015625 1336.59960938 c 0,34,35
 446.498046875 1343.70800781 446.498046875 1343.70800781 381.62109375 1250.890625 c 0,36,37
 369.094726562 1232.49121094 369.094726562 1232.49121094 360.549804688 1215.24023438 c 0,36,37
 343.637695312 1182.81054688 343.637695312 1182.81054688 340.870117188 1152.91992188 c 1,38,39
 341.552734375 1111.01464844 341.552734375 1111.01464844 390.0703125 1010.24023438 c 0,40,41
 409.635742188 971.108398438 409.635742188 971.108398438 453.502929688 895.276367188 c 0,42,43
 512.624023438 792.66796875 512.624023438 792.66796875 536.030273438 739.639648438 c 0,42,43
 576.993164062 650.509765625 576.993164062 650.509765625 583.58984375 582.200195312 c 0,44,45
 589.374023438 517.416992188 589.374023438 517.416992188 564.190429688 357.2421875 c 0,46,47
 559.823242188 329.158203125 559.823242188 329.158203125 557.349609375 309.959960938 c 1,46,-1
 450.75 309.959960938 l 1,0,1
716.4296875 1136.51953125 m 1,47,48
 671.30859375 1160.11621094 671.30859375 1160.11621094 654.110351562 1159.48046875 c 0,49,50
 606.166992188 1156.38671875 606.166992188 1156.38671875 574.39453125 1106.44433594 c 0,51,52
 553.568359375 1071.32910156 553.568359375 1071.32910156 562.270507812 1041.40039062 c 1,51,52
 577.28515625 998.499023438 577.28515625 998.499023438 620.618164062 980.053710938 c 0,53,54
 635.223632812 974.514648438 635.223632812 974.514648438 647.549804688 974.16015625 c 0,53,54
 700.029296875 978.014648438 700.029296875 978.014648438 737.75 1029.91992188 c 0,55,56
 807.702148438 1125.30859375 807.702148438 1125.30859375 759.057617188 1240.96484375 c 0,57,58
 751.4765625 1258.99023438 751.4765625 1258.99023438 741.030273438 1275.91992188 c 0,57,58
 709.827148438 1323.78320312 709.827148438 1323.78320312 665.58984375 1356.28027344 c 0,59,60
 578.041015625 1423.40039062 578.041015625 1423.40039062 486.830078125 1418.59960938 c 1,61,62
 340.814453125 1413.83886719 340.814453125 1413.83886719 238.465820312 1285.05566406 c 0,63,64
 190.782226562 1223.9765625 190.782226562 1223.9765625 168.669921875 1152.91992188 c 1,63,64
 148.67578125 1079.60839844 148.67578125 1079.60839844 152.270507812 1036.48046875 c 0,65,66
 165.75390625 911.771484375 165.75390625 911.771484375 245.75 813.440429688 c 0,67,68
 263.602539062 791.530273438 263.602539062 791.530273438 353.90625 704.9140625 c 0,69,70
 363.62890625 695.526367188 363.62890625 695.526367188 370.389648438 688.799804688 c 0,69,70
 449.590820312 612.645507812 449.590820312 612.645507812 460.4375 599.537109375 c 0,71,72
 478.872070312 576.647460938 478.872070312 576.647460938 490.110351562 555.959960938 c 0,71,72
 513.528320312 509.123046875 513.528320312 509.123046875 504.776367188 411.119140625 c 0,73,74
 501.68359375 374.865234375 501.68359375 374.865234375 501.58984375 355.879882812 c 1,73,-1
 511.4296875 355.879882812 l 1,74,75
 513.956054688 377.985351562 513.956054688 377.985351562 523.421875 423.82421875 c 0,76,77
 538.408203125 498.181640625 538.408203125 498.181640625 537.669921875 533 c 0,76,77
 535.357421875 589.265625 535.357421875 589.265625 490.110351562 693.719726562 c 0,78,79
 476.106445312 724.838867188 476.106445312 724.838867188 386.729492188 879.302734375 c 0,80,81
 287.665039062 1050.51074219 287.665039062 1050.51074219 291.78515625 1164.50878906 c 0,82,83
 292.741210938 1190.97265625 292.741210938 1190.97265625 298.23046875 1216.87988281 c 0,80,81
 316.364257812 1303.01855469 316.364257812 1303.01855469 392.145507812 1354.58496094 c 0,82,83
 405.647460938 1363.43164062 405.647460938 1363.43164062 417.950195312 1369.40039062 c 0,82,83
 454.443359375 1384.05371094 454.443359375 1384.05371094 513.0703125 1384.16015625 c 0,84,85
 622.831054688 1383.02246094 622.831054688 1383.02246094 681.990234375 1336.59960938 c 0,86,87
 748.186523438 1282.47949219 748.186523438 1282.47949219 760.709960938 1210.3203125 c 0,88,89
 762.515625 1195.11816406 762.515625 1195.11816406 762.349609375 1136.51953125 c 1,90,-1
 739.389648438 1148 l 1,91,-1
 739.389648438 1136.51953125 l 1,92,-1
 716.4296875 1148 l 1,93,-1
 716.4296875 1136.51953125 l 1,47,48
447.469726562 232.879882812 m 0,94,95
 554.5703125 247.416992188 554.5703125 247.416992188 599.990234375 186.959960938 c 0,96,97
 615.045898438 164.251953125 615.045898438 164.251953125 618.030273438 114.799804688 c 1,98,99
 618.580078125 -6.728515625 618.580078125 -6.728515625 527.830078125 -22.9599609375 c 1,100,101
 420.03515625 -37.5400390625 420.03515625 -37.5400390625 376.950195312 24.599609375 c 0,102,103
 360.700195312 49.8212890625 360.700195312 49.8212890625 360.549804688 93.48046875 c 0,104,105
 360.921875 150.224609375 360.921875 150.224609375 362.190429688 155.799804688 c 0,106,107
 378.612304688 212.104492188 378.612304688 212.104492188 434.069335938 229.65234375 c 0,108,109
 441.555664062 231.786132812 441.555664062 231.786132812 447.469726562 232.879882812 c 0,94,95
486.830078125 185.3203125 m 1,108,109
 449.336914062 181.5703125 449.336914062 181.5703125 420.743164062 139.6640625 c 0,110,111
 408.739257812 120.520507812 408.739257812 120.520507812 408.110351562 104.959960938 c 0,110,111
 408.110351562 69.892578125 408.110351562 69.892578125 450.875976562 39.171875 c 0,112,113
 471.16015625 24.599609375 471.16015625 24.599609375 488.469726562 24.599609375 c 0,112,113
 526.715820312 26.4208984375 526.715820312 26.4208984375 556.140625 69.90234375 c 0,114,115
 568.202148438 89.263671875 568.202148438 89.263671875 568.830078125 104.959960938 c 0,114,115
 568.830078125 140.514648438 568.830078125 140.514648438 526.294921875 170.870117188 c 0,116,117
 504.307617188 185.411132812 504.307617188 185.411132812 486.830078125 185.3203125 c 1,108,109
EndSplineSet
EndChar

StartChar: afii57409
Encoding: 1569 1569 336
AltUni2: 00fe80.ffffffff.0
Width: 781
VWidth: 1639
GlyphClass: 2
Flags: HW
AnchorPoint: "GposMark2BaseAnchorHamzaErabAbove_01_01" 309.441 838.8 basechar 0
AnchorPoint: "GposMark2BaseAnchorHamzaErabBelow_01_01" 309.441 -191 basechar 0
LayerCount: 2
Fore
SplineSet
108.240234375 196.799804688 m 1,0,1
 44.6845703125 227.354492188 44.6845703125 227.354492188 19.6796875 282.080078125 c 0,2,3
 -7.59765625 345.955078125 -7.59765625 345.955078125 21.3193359375 434.599609375 c 1,4,5
 39.349609375 484.221679688 39.349609375 484.221679688 85.2802734375 536.280273438 c 0,6,7
 216.517578125 688.799804688 216.517578125 688.799804688 336.200195312 688.799804688 c 0,8,9
 490.7421875 688.799804688 490.7421875 688.799804688 531.3203125 630.932617188 c 0,10,11
 536.33203125 623.2265625 536.33203125 623.2265625 539.559570312 616.639648438 c 0,12,13
 546.28515625 598.849609375 546.28515625 598.849609375 546.120117188 552.6796875 c 0,14,15
 545.649414062 513.73828125 545.649414062 513.73828125 542.83984375 503.48046875 c 0,16,17
 527.734375 466.416992188 527.734375 466.416992188 475.599609375 465.759765625 c 0,18,19
 419.458984375 466.279296875 419.458984375 466.279296875 383.759765625 477.240234375 c 0,20,21
 327.982421875 493.176757812 327.982421875 493.176757812 313.060546875 490.3671875 c 0,22,23
 308.997070312 489.400390625 308.997070312 489.400390625 306.6796875 488.719726562 c 0,24,25
 269.399414062 473.887695312 269.399414062 473.887695312 236.16015625 441.16015625 c 0,26,27
 218.587890625 423.588867188 218.587890625 423.588867188 221.399414062 416.559570312 c 0,28,29
 227.200195312 396.80859375 227.200195312 396.80859375 270.599609375 362.440429688 c 1,30,31
 329.921875 320.799804688 329.921875 320.799804688 373.919921875 318.16015625 c 0,32,33
 387.6484375 317.5546875 387.6484375 317.5546875 434.599609375 329.639648438 c 0,34,35
 453.413085938 334.180664062 453.413085938 334.180664062 491.60546875 346.359375 c 0,36,37
 550.690429688 364.912109375 550.690429688 364.912109375 578.919921875 369 c 1,38,-1
 578.919921875 362.440429688 l 1,39,-1
 601.879882812 369 l 1,40,-1
 601.879882812 362.440429688 l 1,41,-1
 624.83984375 369 l 1,42,-1
 619.919921875 346.040039062 l 1,43,44
 626.479492188 344.400390625 626.479492188 344.400390625 621.172851562 327.307617188 c 0,45,46
 619.919921875 326.360351562 619.919921875 326.360351562 619.919921875 324.719726562 c 2,47,-1
 619.919921875 323.080078125 l 1,48,49
 625.853515625 319.328125 625.853515625 319.328125 616.639648438 287 c 2,50,-1
 592.040039062 190.240234375 l 2,51,52
 584.54296875 160.250976562 584.54296875 160.250976562 582.200195312 159.080078125 c 0,53,54
 577.508789062 156.970703125 577.508789062 156.970703125 531.359375 147.599609375 c 1,55,56
 459.018554688 127.258789062 459.018554688 127.258789062 411.639648438 111.51953125 c 0,57,58
 209.998046875 43.154296875 209.998046875 43.154296875 45.919921875 -41 c 1,59,-1
 45.919921875 -27.8798828125 l 1,60,-1
 22.9599609375 -41 l 1,61,-1
 22.9599609375 -27.8798828125 l 1,62,-1
 0 -41 l 1,63,-1
 0 65.599609375 l 1,64,-1
 1.6396484375 109.879882812 l 1,65,-1
 29.51953125 137.759765625 l 1,66,-1
 108.240234375 196.799804688 l 1,0,1
564.16015625 305.040039062 m 1,67,68
 426.561523438 272.389648438 426.561523438 272.389648438 393.26953125 269.956054688 c 0,69,70
 319.084960938 265.422851562 319.084960938 265.422851562 264.040039062 291.919921875 c 1,71,72
 195.732421875 329.108398438 195.732421875 329.108398438 172.200195312 373.919921875 c 0,73,74
 170.295898438 379.717773438 170.295898438 379.717773438 167.280273438 408.360351562 c 1,75,76
 166.36328125 464.196289062 166.36328125 464.196289062 198.439453125 495.280273438 c 0,77,78
 267.283203125 557.498046875 267.283203125 557.498046875 373.919921875 536.280273438 c 0,79,80
 387.696289062 534.311523438 387.696289062 534.311523438 415.248046875 526.833984375 c 0,81,82
 434.162109375 521.788085938 434.162109375 521.788085938 442.799804688 519.879882812 c 0,83,84
 469.799804688 514.7734375 469.799804688 514.7734375 478.879882812 521.51953125 c 0,85,86
 525.506835938 554.825195312 525.506835938 554.825195312 462.446289062 604.157226562 c 0,87,88
 451.296875 612.532226562 451.296875 612.532226562 441.16015625 618.280273438 c 0,89,90
 391.23046875 643.244140625 391.23046875 643.244140625 359.16015625 641.240234375 c 0,91,92
 326.393554688 638.598632812 326.393554688 638.598632812 278.799804688 613.360351562 c 0,93,94
 195.921875 569.833007812 195.921875 569.833007812 119.719726562 477.240234375 c 1,95,96
 55.1572265625 393.565429688 55.1572265625 393.565429688 59.0400390625 347.6796875 c 1,97,98
 65.9814453125 290.754882812 65.9814453125 290.754882812 155.71875 242.286132812 c 0,99,100
 162.171875 238.80078125 162.171875 238.80078125 174.8125 232.197265625 c 0,101,102
 189.189453125 224.6484375 189.189453125 224.6484375 195.16015625 221.400390625 c 1,103,-1
 173.83984375 209.919921875 l 1,104,-1
 195.16015625 200.080078125 l 1,105,-1
 195.16015625 198.440429688 l 1,106,-1
 173.83984375 186.959960938 l 1,107,-1
 195.16015625 177.120117188 l 1,108,-1
 195.16015625 175.48046875 l 1,109,-1
 155.799804688 152.51953125 l 1,110,-1
 82 96.759765625 l 1,111,-1
 47.5595703125 63.9599609375 l 1,112,-1
 45.919921875 31.16015625 l 1,113,114
 57.9853515625 34.607421875 57.9853515625 34.607421875 139.6328125 73.390625 c 0,115,116
 144.561523438 75.6953125 144.561523438 75.6953125 147.599609375 77.080078125 c 0,117,118
 258.299804688 123.8203125 258.299804688 123.8203125 373.919921875 160.719726562 c 0,119,120
 439.235351562 181.408203125 439.235351562 181.408203125 485.439453125 193.51953125 c 0,121,122
 489.748046875 194.596679688 489.748046875 194.596679688 501.975585938 196.096679688 c 0,123,124
 529.267578125 200.084960938 529.267578125 200.084960938 536.280273438 205 c 0,125,126
 541.08203125 209.638671875 541.08203125 209.638671875 546.120117188 232.879882812 c 0,127,128
 549.399414062 245.1796875 549.399414062 245.1796875 555.139648438 268.959960938 c 0,129,130
 561.063476562 293.333984375 561.063476562 293.333984375 564.16015625 305.040039062 c 1,67,68
EndSplineSet
EndChar

StartChar: afii57410
Encoding: 1570 1570 337
AltUni2: 00fe81.ffffffff.0
Width: 286
VWidth: 1639
GlyphClass: 2
Flags: W
LayerCount: 2
Fore
SplineSet
392.92578125 1718.71972656 m 1,0,1
 416.33203125 1715.00683594 416.33203125 1715.00683594 379.805664062 1684.28027344 c 0,2,3
 338.08984375 1647.97753906 338.08984375 1647.97753906 281.40625 1621.95996094 c 1,4,5
 192.6484375 1586.77050781 192.6484375 1586.77050781 60.005859375 1592.44042969 c 0,6,7
 50.251953125 1593.04980469 50.251953125 1593.04980469 28.69921875 1596.57324219 c 0,8,9
 -9.138671875 1602.33789062 -9.138671875 1602.33789062 -25.2744140625 1600.63964844 c 0,8,9
 -41.740234375 1598.28808594 -41.740234375 1598.28808594 -63.8671875 1564.98828125 c 1,10,11
 -85.119140625 1536.265625 -85.119140625 1536.265625 -102.354492188 1535.04003906 c 0,10,11
 -152.578125 1535.04003906 -152.578125 1535.04003906 -157.263671875 1537.19921875 c 0,12,13
 -160.21875 1539.11523438 -160.21875 1539.11523438 -161.39453125 1539.95996094 c 0,12,13
 -171.3359375 1552.83300781 -171.3359375 1552.83300781 -166.314453125 1595.71972656 c 0,14,15
 -160.970703125 1657.89453125 -160.970703125 1657.89453125 -126.954101562 1718.71972656 c 0,16,17
 -107.453125 1750.75292969 -107.453125 1750.75292969 -92.513671875 1756.44042969 c 0,18,19
 -84.9765625 1758.70019531 -84.9765625 1758.70019531 -48.234375 1758.08007812 c 0,20,21
 -28.6201171875 1758.08007812 -28.6201171875 1758.08007812 92.6484375 1740.77246094 c 0,22,23
 112.358398438 1738.0546875 112.358398438 1738.0546875 127.24609375 1736.75976562 c 0,22,23
 185.344726562 1733.00585938 185.344726562 1733.00585938 268.286132812 1748.24023438 c 0,24,25
 277.469726562 1750.20800781 277.469726562 1750.20800781 295.837890625 1755.19335938 c 0,26,27
 323.936523438 1762.61816406 323.936523438 1762.61816406 337.166015625 1764.63964844 c 0,26,27
 341.459960938 1764.92285156 341.459960938 1764.92285156 384.725585938 1764.63964844 c 0,28,29
 398.8671875 1763.35253906 398.8671875 1763.35253906 401.125976562 1761.36035156 c 1,30,31
 401.125976562 1756.44042969 401.125976562 1756.44042969 401.946289062 1754.79980469 c 0,32,33
 402.765625 1753.16015625 402.765625 1753.16015625 397.845703125 1747.41992188 c 2,34,-1
 392.92578125 1741.6796875 l 1,32,33
 408.110351562 1738.19042969 408.110351562 1738.19042969 392.92578125 1718.71972656 c 1,0,1
291.24609375 1699.04003906 m 1,34,35
 272.806640625 1696.15429688 272.806640625 1696.15429688 204.326171875 1692.48046875 c 0,36,37
 117.1875 1686.74707031 117.1875 1686.74707031 60.005859375 1692.48046875 c 0,38,39
 34.9970703125 1695.52050781 34.9970703125 1695.52050781 -21.994140625 1705.59960938 c 0,40,41
 -50.0107421875 1709.390625 -50.0107421875 1709.390625 -54.7939453125 1707.24023438 c 0,42,43
 -78.0576171875 1692.98535156 -78.0576171875 1692.98535156 -105.633789062 1618.6796875 c 1,44,45
 -100.703125 1622.37890625 -100.703125 1622.37890625 -92.31640625 1631.07714844 c 0,46,47
 -77.7744140625 1644.85546875 -77.7744140625 1644.85546875 -69.5537109375 1648.20019531 c 0,46,47
 -62.615234375 1650.53222656 -62.615234375 1650.53222656 -30.1943359375 1649.83984375 c 0,48,49
 -9.6943359375 1649.83984375 -9.6943359375 1649.83984375 30.486328125 1644.91992188 c 0,50,51
 71.2412109375 1640.12792969 71.2412109375 1640.12792969 91.166015625 1640 c 0,50,51
 195.342773438 1640.88378906 195.342773438 1640.88378906 291.24609375 1697.40039062 c 1,52,-1
 291.24609375 1699.04003906 l 1,34,35
-105.633789062 1617.04003906 m 1,53,-1
 -107.274414062 1615.40039062 l 1,54,-1
 -105.633789062 1617.04003906 l 1,53,-1
163.326171875 -36.080078125 m 1,55,56
 159.4921875 -51.4150390625 159.4921875 -51.4150390625 149.94921875 -51.5322265625 c 1,57,58
 145.845703125 -49.666015625 145.845703125 -49.666015625 143.645507812 -47.5595703125 c 0,57,58
 140.024414062 -39.845703125 140.024414062 -39.845703125 140.366210938 -18.0400390625 c 1,59,60
 138.577148438 -1.2119140625 138.577148438 -1.2119140625 138.725585938 67.240234375 c 0,61,62
 138.596679688 154.088867188 138.596679688 154.088867188 125.60546875 316.51953125 c 1,63,64
 87.125 884.778320312 87.125 884.778320312 43.60546875 1333.3203125 c 0,65,66
 41.1455078125 1357.91992188 41.1455078125 1357.91992188 43.60546875 1382.51953125 c 1,67,68
 43.60546875 1398.91992188 l 1,69,70
 46.0322265625 1404.58105469 46.0322265625 1404.58105469 66.5654296875 1422.14941406 c 0,71,72
 69.060546875 1424.44140625 69.060546875 1424.44140625 69.845703125 1425.16015625 c 0,71,72
 80.505859375 1435 80.505859375 1435 101.826171875 1455.5 c 0,73,74
 123.692382812 1476.46582031 123.692382812 1476.46582031 133.805664062 1485.83984375 c 0,73,74
 142.005859375 1493.21972656 142.005859375 1493.21972656 157.5859375 1507.98046875 c 0,75,76
 173.782226562 1523.24902344 173.782226562 1523.24902344 181.366210938 1530.12011719 c 1,75,76
 199.357421875 1541.03808594 199.357421875 1541.03808594 202.685546875 1528.48046875 c 1,77,78
 222.560546875 1540.83886719 222.560546875 1540.83886719 225.645507812 1528.48046875 c 1,79,80
 242.461914062 1538.36328125 242.461914062 1538.36328125 245.326171875 1538.3203125 c 0,81,82
 250.24609375 1535.04003906 250.24609375 1535.04003906 250.31640625 1517.97265625 c 2,83,-1
 250.24609375 1515.36035156 l 1,83,84
 253.4453125 1472.17285156 253.4453125 1472.17285156 253.526367188 1451.40039062 c 0,85,86
 253.526367188 1403.01953125 253.526367188 1403.01953125 257.625976562 1307.08007812 c 0,87,88
 261.6796875 1210.58105469 261.6796875 1210.58105469 261.725585938 1162.75976562 c 0,87,88
 261.725585938 1039.75976562 261.725585938 1039.75976562 264.185546875 792.940429688 c 0,89,90
 266.634765625 545.578125 266.634765625 545.578125 266.645507812 423.120117188 c 0,89,90
 266.645507812 391.08203125 266.645507812 391.08203125 268.033203125 327.52734375 c 0,91,92
 270.247070312 221.598632812 270.247070312 221.598632812 268.286132812 168.919921875 c 0,91,92
 262.33984375 75.12109375 262.33984375 75.12109375 232.206054688 3.2802734375 c 1,93,94
 215.359375 -29.921875 215.359375 -29.921875 205.965820312 -44.2802734375 c 1,95,96
 192.634765625 -54.453125 192.634765625 -54.453125 187.92578125 -36.080078125 c 1,97,-1
 186.286132812 -36.080078125 l 1,98,99
 181.141601562 -53.228515625 181.141601562 -53.228515625 171.374023438 -49.158203125 c 1,100,101
 166.340820312 -44.5078125 166.340820312 -44.5078125 164.965820312 -36.080078125 c 1,100,-1
 163.326171875 -36.080078125 l 1,55,56
205.965820312 1461.24023438 m 1,101,102
 194.12890625 1454.63183594 194.12890625 1454.63183594 169.885742188 1430.08007812 c 0,103,104
 161.685546875 1421.87988281 161.685546875 1421.87988281 145.286132812 1407.12011719 c 0,105,106
 128.338867188 1391.71484375 128.338867188 1391.71484375 120.685546875 1384.16015625 c 0,105,106
 118.251953125 1381.72558594 118.251953125 1381.72558594 112.12109375 1376.77148438 c 0,107,108
 96.751953125 1364.35253906 96.751953125 1364.35253906 94.4462890625 1356.28027344 c 0,107,108
 91.373046875 1345.78710938 91.373046875 1345.78710938 97.7255859375 1297.24023438 c 0,109,110
 100.185546875 1273.45996094 100.185546875 1273.45996094 103.465820312 1226.71972656 c 0,111,112
 106.83984375 1179.40820312 106.83984375 1179.40820312 109.206054688 1156.20019531 c 0,111,112
 120.540039062 1061.59179688 120.540039062 1061.59179688 133.805664062 869.200195312 c 0,113,114
 139.545898438 787.200195312 139.545898438 787.200195312 152.666015625 623.200195312 c 0,115,116
 165.813476562 458.653320312 165.813476562 458.653320312 171.526367188 377.200195312 c 0,115,116
 181.329101562 232.333007812 181.329101562 232.333007812 183.005859375 160.719726562 c 0,117,118
 183.005859375 148.419921875 183.005859375 148.419921875 183.826171875 123.8203125 c 0,119,120
 184.612304688 98.6728515625 184.612304688 98.6728515625 184.645507812 86.919921875 c 0,119,120
 185.2421875 51.7646484375 185.2421875 51.7646484375 186.286132812 49.2001953125 c 1,121,122
 190.09765625 63.1767578125 190.09765625 63.1767578125 199.173828125 89.5830078125 c 0,123,124
 213.37890625 131.758789062 213.37890625 131.758789062 217.446289062 154.16015625 c 0,123,124
 224.319335938 209.728515625 224.319335938 209.728515625 220.725585938 347.6796875 c 0,125,126
 219.0859375 347.6796875 219.0859375 347.6796875 219.90625 451 c 2,127,-1
 220.725585938 554.3203125 l 1,127,128
 220.684570312 946.81640625 220.684570312 946.81640625 215.805664062 1141.44042969 c 2,129,130
 205.965820312 1461.24023438 l 1,101,102
EndSplineSet
AlternateSubs2: "gsub_alternate_dfl_aalt_arab_FAR_Lookup_01_Subtable_01" uniFE82 afii57410
Substitution2: "gsub_single_rtl_fina_arab_FAR_Lookup_01_Subtable_01" uniFE82
PairPos2: "gpos_pair_dfl_kern_arab_FAR_Lookup_01_Subtable_01" gafarabic dx=0 dy=0 dh=0 dv=0 dx=0 dy=0 dh=0 dv=0
EndChar

StartChar: uniFE83
Encoding: 1571 1571 339
AltUni2: 00fe83.ffffffff.0
Width: 504
VWidth: 1639
GlyphClass: 2
Flags: W
LayerCount: 2
Fore
SplineSet
219.66015625 -37.7197265625 m 1,0,1
 209.138671875 -58.7626953125 209.138671875 -58.7626953125 201.028320312 -48.3369140625 c 0,2,3
 199.215820312 -44.8779296875 199.215820312 -44.8779296875 198.33984375 -42.6396484375 c 0,2,3
 195.06640625 -24.6826171875 195.06640625 -24.6826171875 195.059570312 8.2001953125 c 0,4,5
 194.989257812 48.150390625 194.989257812 48.150390625 186.860351562 237.799804688 c 0,6,7
 170.545898438 594.865234375 170.545898438 594.865234375 121.259765625 1105.36035156 c 0,8,9
 117.979492188 1138.98046875 117.979492188 1138.98046875 112.240234375 1207.04003906 c 0,10,11
 106.43359375 1275.62890625 106.43359375 1275.62890625 103.219726562 1308.71972656 c 0,10,11
 102.399414062 1318.55957031 102.399414062 1318.55957031 101.580078125 1337.41992188 c 0,12,13
 100.669921875 1356.88476562 100.669921875 1356.88476562 99.939453125 1366.12011719 c 2,12,13
 99.939453125 1398.91992188 l 1,14,15
 103.056640625 1403.50683594 103.056640625 1403.50683594 126.1796875 1425.16015625 c 0,16,17
 159.821289062 1458.56445312 159.821289062 1458.56445312 193.419921875 1487.48046875 c 0,18,19
 198.4921875 1492.09179688 198.4921875 1492.09179688 209.099609375 1503.34472656 c 0,20,21
 238.849609375 1533.59667969 238.849609375 1533.59667969 255.740234375 1539.95996094 c 1,20,-1
 259.01953125 1528.48046875 l 1,21,-1
 278.700195312 1539.95996094 l 1,22,-1
 281.979492188 1528.48046875 l 1,23,-1
 301.66015625 1539.95996094 l 1,24,25
 303.299804688 1535.04003906 303.299804688 1535.04003906 304.939453125 1530.94042969 c 0,26,27
 306.580078125 1526.83984375 306.580078125 1526.83984375 307.399414062 1519.45996094 c 0,28,29
 308.219726562 1512.08007812 308.219726562 1512.08007812 308.219726562 1508.79980469 c 0,30,31
 308.219726562 1505.51953125 308.219726562 1505.51953125 308.219726562 1496.5 c 2,32,-1
 308.219726562 1487.48046875 l 2,26,27
 308.219726562 1474.36035156 308.219726562 1474.36035156 309.860351562 1447.29980469 c 0,28,29
 311.436523438 1419.73632812 311.436523438 1419.73632812 311.5 1407.12011719 c 0,28,29
 312.158203125 1370.92285156 312.158203125 1370.92285156 314.529296875 1299.10742188 c 0,30,31
 318.024414062 1191.60058594 318.024414062 1191.60058594 318.059570312 1138.16015625 c 0,30,31
 318.059570312 983.1796875 318.059570312 983.1796875 321.33984375 672.400390625 c 0,32,33
 324.608398438 361.077148438 324.608398438 361.077148438 324.620117188 206.639648438 c 0,32,33
 323.916015625 85.9091796875 323.916015625 85.9091796875 291.8203125 13.1201171875 c 0,34,35
 282.047851562 -12.7353515625 282.047851562 -12.7353515625 267.219726562 -37.7197265625 c 1,36,37
 256.694335938 -50.3974609375 256.694335938 -50.3974609375 250.8203125 -50.83984375 c 1,38,39
 245.899414062 -49.2001953125 245.899414062 -49.2001953125 243.10546875 -39.208984375 c 2,40,-1
 242.620117188 -37.7197265625 l 1,40,41
 229.434570312 -57.9677734375 229.434570312 -57.9677734375 219.66015625 -37.7197265625 c 1,0,1
262.299804688 1462.87988281 m 1,42,43
 247.975585938 1451.83496094 247.975585938 1451.83496094 180.299804688 1387.44042969 c 0,44,45
 177.961914062 1385.1015625 177.961914062 1385.1015625 171.454101562 1379.70019531 c 0,46,47
 153.901367188 1363.90625 153.901367188 1363.90625 150.780273438 1356.28027344 c 0,46,47
 147.552734375 1347.87792969 147.552734375 1347.87792969 152.419921875 1321.83984375 c 1,48,49
 157.33984375 1262.79980469 l 2,50,51
 176.471679688 1043.19042969 176.471679688 1043.19042969 177.01953125 1038.12011719 c 0,52,53
 198.9375 803.114257812 198.9375 803.114257812 218.01953125 511.6796875 c 1,54,55
 240.8984375 202.813476562 240.8984375 202.813476562 240.979492188 49.2001953125 c 1,56,-1
 242.620117188 49.2001953125 l 1,57,58
 269.310546875 126.811523438 269.310546875 126.811523438 275.419921875 162.360351562 c 1,59,60
 278.790039062 194.314453125 278.790039062 194.314453125 278.700195312 296.83984375 c 0,61,62
 278.700195312 337.01953125 278.700195312 337.01953125 277.879882812 416.559570312 c 0,63,64
 277.071289062 496.661132812 277.071289062 496.661132812 277.059570312 536.280273438 c 0,63,64
 277.020507812 945.197265625 277.020507812 945.197265625 272.139648438 1149.63964844 c 0,65,66
 271.0390625 1184.86816406 271.0390625 1184.86816406 268.100585938 1254.89355469 c 0,67,68
 262.299804688 1393.1484375 262.299804688 1393.1484375 262.299804688 1462.87988281 c 1,42,43
71.240234375 1766.28027344 m 1,0,1
 0.0908203125 1802.64550781 0.0908203125 1802.64550781 6.4453125 1893.08789062 c 0,2,3
 10.0029296875 1933.20214844 10.0029296875 1933.20214844 28.599609375 1966.36035156 c 0,2,3
 96.607421875 2082.30664062 96.607421875 2082.30664062 182.759765625 2107.40039062 c 0,4,5
 195.44140625 2111.08691406 195.44140625 2111.08691406 243.439453125 2110.6796875 c 0,6,7
 284.6484375 2110.10546875 284.6484375 2110.10546875 297.559570312 2105.75976562 c 0,8,9
 364.380859375 2086.36035156 364.380859375 2086.36035156 381.076171875 2018.12988281 c 0,10,11
 383.668945312 2006.34667969 383.668945312 2006.34667969 384.479492188 1995.87988281 c 0,10,11
 381.419921875 1952.89648438 381.419921875 1952.89648438 377.919921875 1948.3203125 c 1,12,13
 372.319335938 1945.88964844 372.319335938 1945.88964844 345.120117188 1946.6796875 c 0,14,15
 315.571289062 1947.11621094 315.571289062 1947.11621094 310.6796875 1948.3203125 c 0,16,17
 301.6640625 1950.01074219 301.6640625 1950.01074219 283.116210938 1955.36425781 c 0,18,19
 246.98046875 1965.796875 246.98046875 1965.796875 228.6796875 1964.71972656 c 1,18,19
 201.500976562 1959.58300781 201.500976562 1959.58300781 171.280273438 1941.75976562 c 1,20,21
 158.270507812 1926.41796875 158.270507812 1926.41796875 158.16015625 1923.71972656 c 0,22,23
 162.426757812 1911.09472656 162.426757812 1911.09472656 190.959960938 1887.63964844 c 1,24,25
 256.448242188 1838.51660156 256.448242188 1838.51660156 340.200195312 1858.12011719 c 0,26,27
 374.7890625 1865.04785156 374.7890625 1865.04785156 405.799804688 1863.04003906 c 1,28,29
 425.479492188 1863.04003906 l 1,30,31
 432.751953125 1856.98046875 432.751953125 1856.98046875 427.120117188 1828.59960938 c 1,32,33
 420.823242188 1777.59179688 420.823242188 1777.59179688 412.360351562 1748.24023438 c 0,34,35
 406.672851562 1724.56640625 406.672851562 1724.56640625 404.16015625 1722 c 0,36,37
 399.284179688 1719.07421875 399.284179688 1719.07421875 384.986328125 1716.71777344 c 0,38,39
 375.030273438 1714.86230469 375.030273438 1714.86230469 371.360351562 1713.79980469 c 0,38,39
 343.501953125 1708.47460938 343.501953125 1708.47460938 292.639648438 1695.75976562 c 0,40,41
 149.135742188 1661.07128906 149.135742188 1661.07128906 49.919921875 1621.95996094 c 1,42,-1
 49.919921875 1630.16015625 l 1,43,-1
 26.9599609375 1621.95996094 l 1,44,-1
 26.9599609375 1630.16015625 l 1,45,-1
 4 1621.95996094 l 1,46,-1
 4 1695.75976562 l 1,47,-1
 5.6396484375 1725.28027344 l 1,48,-1
 25.3203125 1740.04003906 l 1,49,-1
 71.240234375 1766.28027344 l 1,0,1
322.16015625 2004.08007812 m 1,50,51
 315.890625 2016.86914062 315.890625 2016.86914062 299.200195312 2033.59960938 c 0,52,53
 269.165039062 2061.97265625 269.165039062 2061.97265625 236.879882812 2063.12011719 c 0,54,55
 189.1875 2063.12011719 189.1875 2063.12011719 135.765625 2000.42480469 c 0,56,57
 130.447265625 1993.96386719 130.447265625 1993.96386719 127 1989.3203125 c 1,56,57
 133.399414062 1991.64746094 133.399414062 1991.64746094 145.7265625 1997.10058594 c 0,58,59
 168.466796875 2006.74023438 168.466796875 2006.74023438 179.479492188 2009 c 0,58,59
 224.475585938 2018.07519531 224.475585938 2018.07519531 322.16015625 2004.08007812 c 1,50,51
102.399414062 1958.16015625 m 1,60,61
 81.4912109375 1940.30664062 81.4912109375 1940.30664062 64.6796875 1900.75976562 c 0,62,63
 56.7529296875 1884.90625 56.7529296875 1884.90625 58.1201171875 1879.44042969 c 0,64,65
 60.701171875 1867.47851562 60.701171875 1867.47851562 76.16015625 1848.28027344 c 1,66,67
 119.775390625 1802.37109375 119.775390625 1802.37109375 153.240234375 1785.95996094 c 1,68,-1
 135.200195312 1776.12011719 l 1,69,-1
 153.240234375 1763 l 1,70,-1
 135.200195312 1753.16015625 l 1,71,-1
 153.240234375 1740.04003906 l 1,72,-1
 67.9599609375 1692.48046875 l 1,73,-1
 67.9599609375 1690.83984375 l 1,74,75
 106.3828125 1700.21191406 106.3828125 1700.21191406 183.228515625 1723.23828125 c 0,76,77
 241.409179688 1740.62207031 241.409179688 1740.62207031 269.6796875 1748.24023438 c 0,76,77
 279.51953125 1750.70019531 279.51953125 1750.70019531 300.01953125 1754.79980469 c 0,78,79
 321.010742188 1759.07421875 321.010742188 1759.07421875 330.360351562 1761.36035156 c 0,78,79
 357.209960938 1767.30371094 357.209960938 1767.30371094 358.240234375 1767.91992188 c 0,80,81
 362.189453125 1773.09960938 362.189453125 1773.09960938 371.360351562 1808.91992188 c 1,82,83
 226.694335938 1783.2421875 226.694335938 1783.2421875 151.599609375 1836.79980469 c 1,84,85
 110.471679688 1869.34667969 110.471679688 1869.34667969 104.040039062 1895.83984375 c 0,86,87
 96.2578125 1924.37597656 96.2578125 1924.37597656 102.399414062 1958.16015625 c 1,60,61
EndSplineSet
AlternateSubs2: "gsub_alternate_dfl_aalt_arab_FAR_Lookup_01_Subtable_01" uniFE84 uniFE83
Substitution2: "gsub_single_rtl_fina_arab_FAR_Lookup_01_Subtable_01" uniFE84
EndChar

StartChar: uniFE84
Encoding: 65156 65156 340
Width: 446
VWidth: 1639
GlyphClass: 2
Flags: W
LayerCount: 2
Fore
SplineSet
477.77734375 -22.9599609375 m 1,0,1
 326.713867188 -22.9599609375 326.713867188 -22.9599609375 308.58984375 -21.07421875 c 0,2,3
 207.602539062 -9.396484375 207.602539062 -9.396484375 149.77734375 44.2802734375 c 1,2,3
 102.491210938 92.77734375 102.491210938 92.77734375 75.9775390625 177.120117188 c 1,4,5
 49.77734375 273.069335938 49.77734375 273.069335938 49.7373046875 449.360351562 c 0,6,7
 49.7373046875 493.639648438 49.7373046875 493.639648438 51.12109375 582.200195312 c 0,8,9
 53.365234375 730.346679688 53.365234375 730.346679688 51.376953125 803.599609375 c 0,8,9
 44.462890625 1045.85839844 44.462890625 1045.85839844 15.296875 1330.04003906 c 0,10,11
 10.703125 1381.97070312 10.703125 1381.97070312 15.296875 1394 c 0,12,13
 18.5830078125 1399.953125 18.5830078125 1399.953125 36.6171875 1416.95996094 c 0,14,15
 44.8173828125 1425.98046875 44.8173828125 1425.98046875 62.037109375 1444.01953125 c 0,16,17
 79.708984375 1462.60644531 79.708984375 1462.60644531 87.45703125 1471.08007812 c 0,16,17
 90.1689453125 1473.79101562 90.1689453125 1473.79101562 96.5693359375 1481.65625 c 0,18,19
 126.90234375 1515.35546875 126.90234375 1515.35546875 143.217773438 1503.87988281 c 1,18,19
 155.456054688 1512.85742188 155.456054688 1512.85742188 164.537109375 1503.87988281 c 1,20,-1
 166.177734375 1503.87988281 l 1,21,22
 182.272460938 1516.51464844 182.272460938 1516.51464844 189.137695312 1497.3203125 c 0,23,24
 192.190429688 1485.83691406 192.190429688 1485.83691406 200.6171875 1425.16015625 c 0,25,26
 203.272460938 1403.16113281 203.272460938 1403.16113281 219.421875 1152.91992188 c 0,27,28
 219.913085938 1145.41503906 219.913085938 1145.41503906 220.296875 1139.79980469 c 0,27,28
 223.627929688 1083.7578125 223.627929688 1083.7578125 223.577148438 898.719726562 c 2,29,-1
 223.577148438 533 l 2,30,31
 223.577148438 517.456054688 223.577148438 517.456054688 222.2578125 483.666015625 c 0,32,33
 216.854492188 345.240234375 216.854492188 345.240234375 247.599609375 289.608398438 c 0,34,35
 254.431640625 277.890625 254.431640625 277.890625 261.296875 268.959960938 c 0,32,33
 307.693359375 208.065429688 307.693359375 208.065429688 426.715820312 206.55078125 c 0,34,35
 437.59765625 206.412109375 437.59765625 206.412109375 459.233398438 206.556640625 c 0,36,37
 471.650390625 206.639648438 471.650390625 206.639648438 477.77734375 206.639648438 c 1,34,-1
 477.77734375 160.719726562 l 1,35,36
 464.373046875 160.719726562 464.373046875 160.719726562 436.038085938 159.883789062 c 0,37,38
 306.083984375 156.048828125 306.083984375 156.048828125 254.596679688 186.518554688 c 0,39,40
 230.159179688 201.99609375 230.159179688 201.99609375 213.737304688 223.040039062 c 0,37,38
 177.732421875 272.721679688 177.732421875 272.721679688 177.657226562 382.120117188 c 2,39,-1
 177.657226562 578.919921875 l 2,40,41
 177.588867188 1012.13183594 177.588867188 1012.13183594 171.09765625 1167.6796875 c 0,42,43
 167.418945312 1233.08300781 167.418945312 1233.08300781 157.977539062 1346.44042969 c 0,44,45
 156.646484375 1359.08203125 156.646484375 1359.08203125 152.913085938 1383.77441406 c 0,46,47
 147.54296875 1420.35253906 147.54296875 1420.35253906 146.497070312 1438.28027344 c 1,46,47
 136.657226562 1427.62011719 136.657226562 1427.62011719 116.157226562 1406.29980469 c 0,48,49
 95.19140625 1384.43359375 95.19140625 1384.43359375 85.8173828125 1374.3203125 c 0,48,49
 83.630859375 1371.58691406 83.630859375 1371.58691406 78.5283203125 1366.484375 c 0,50,51
 68.599609375 1355.39355469 68.599609375 1355.39355469 66.1376953125 1349.71972656 c 0,50,51
 66.1376953125 1348.08007812 66.1376953125 1348.08007812 65.3173828125 1344.79980469 c 0,52,53
 64.4970703125 1341.51953125 64.4970703125 1341.51953125 64.4970703125 1339.05957031 c 0,54,55
 64.4970703125 1336.59960938 64.4970703125 1336.59960938 65.3173828125 1332.5 c 0,56,57
 66.1376953125 1328.40039062 66.1376953125 1328.40039062 66.1376953125 1326.75976562 c 0,58,59
 66.1376953125 1325.12011719 66.1376953125 1325.12011719 66.95703125 1320.20019531 c 2,60,-1
 67.77734375 1315.28027344 l 2,52,53
 68.59765625 1302.16015625 68.59765625 1302.16015625 71.0576171875 1276.74023438 c 0,54,55
 73.51953125 1250.72949219 73.51953125 1250.72949219 74.3369140625 1238.20019531 c 0,54,55
 76.57421875 1204.64160156 76.57421875 1204.64160156 81.42578125 1137.96582031 c 0,56,57
 90.779296875 1008.91894531 90.779296875 1008.91894531 94.017578125 944.639648438 c 0,56,57
 97.36328125 875.239257812 97.36328125 875.239257812 97.296875 544.48046875 c 0,58,59
 97.5361328125 365.53125 97.5361328125 365.53125 105.497070312 309.959960938 c 0,60,61
 132.747070312 118.110351562 132.747070312 118.110351562 244.897460938 55.759765625 c 0,62,63
 307.973632812 21.3544921875 307.973632812 21.3544921875 442.6796875 22.69921875 c 0,64,65
 469.397460938 22.9501953125 469.397460938 22.9501953125 477.77734375 22.9599609375 c 1,64,-1
 477.77734375 -22.9599609375 l 1,0,1
89.09765625 1748.24023438 m 1,0,1
 17.9482421875 1784.60546875 17.9482421875 1784.60546875 24.302734375 1875.04785156 c 0,2,3
 27.8603515625 1915.16210938 27.8603515625 1915.16210938 46.45703125 1948.3203125 c 0,2,3
 114.46484375 2064.26660156 114.46484375 2064.26660156 200.6171875 2089.36035156 c 0,4,5
 213.298828125 2093.046875 213.298828125 2093.046875 261.296875 2092.63964844 c 0,6,7
 302.505859375 2092.06640625 302.505859375 2092.06640625 315.416992188 2087.71972656 c 0,8,9
 382.23828125 2068.3203125 382.23828125 2068.3203125 398.93359375 2000.08984375 c 0,10,11
 401.526367188 1988.30664062 401.526367188 1988.30664062 402.336914062 1977.83984375 c 0,10,11
 399.27734375 1934.85644531 399.27734375 1934.85644531 395.77734375 1930.28027344 c 1,12,13
 390.176757812 1927.84960938 390.176757812 1927.84960938 362.977539062 1928.63964844 c 0,14,15
 333.428710938 1929.07617188 333.428710938 1929.07617188 328.537109375 1930.28027344 c 0,16,17
 319.521484375 1931.97070312 319.521484375 1931.97070312 300.973632812 1937.32421875 c 0,18,19
 264.286132812 1947.35839844 264.286132812 1947.35839844 246.537109375 1946.6796875 c 1,18,19
 219.358398438 1941.54296875 219.358398438 1941.54296875 189.137695312 1923.71972656 c 1,20,21
 176.127929688 1908.37792969 176.127929688 1908.37792969 176.017578125 1905.6796875 c 0,22,23
 176.017578125 1902.40039062 176.017578125 1902.40039062 178.477539062 1899.12011719 c 0,24,25
 180.9375 1895.83984375 180.9375 1895.83984375 183.397460938 1892.55957031 c 0,26,27
 185.857421875 1889.28027344 185.857421875 1889.28027344 189.95703125 1885.1796875 c 0,28,29
 194.057617188 1881.08007812 194.057617188 1881.08007812 196.517578125 1879.44042969 c 0,30,31
 198.977539062 1877.79980469 198.977539062 1877.79980469 203.897460938 1873.70019531 c 2,32,-1
 208.817382812 1869.59960938 l 1,24,25
 274.305664062 1820.4765625 274.305664062 1820.4765625 358.057617188 1840.08007812 c 0,26,27
 392.646484375 1847.0078125 392.646484375 1847.0078125 423.657226562 1845 c 1,28,29
 443.336914062 1845 l 1,30,31
 450.609375 1838.94042969 450.609375 1838.94042969 444.977539062 1810.55957031 c 1,32,33
 438.680664062 1759.55175781 438.680664062 1759.55175781 430.217773438 1730.20019531 c 0,34,35
 424.530273438 1706.52636719 424.530273438 1706.52636719 422.017578125 1703.95996094 c 0,36,37
 417.141601562 1701.03417969 417.141601562 1701.03417969 402.84375 1698.67773438 c 0,38,39
 392.887695312 1696.82226562 392.887695312 1696.82226562 389.217773438 1695.75976562 c 0,38,39
 361.359375 1690.43457031 361.359375 1690.43457031 310.497070312 1677.71972656 c 0,40,41
 166.993164062 1643.03125 166.993164062 1643.03125 67.77734375 1603.91992188 c 1,42,-1
 67.77734375 1612.12011719 l 1,43,-1
 44.8173828125 1603.91992188 l 1,44,-1
 44.8173828125 1612.12011719 l 1,45,-1
 21.857421875 1603.91992188 l 1,46,-1
 21.857421875 1677.71972656 l 1,47,-1
 23.4970703125 1707.24023438 l 1,48,-1
 43.177734375 1722 l 1,49,-1
 89.09765625 1748.24023438 l 1,0,1
340.017578125 1986.04003906 m 1,50,51
 333.748046875 1998.82910156 333.748046875 1998.82910156 317.057617188 2015.55957031 c 0,52,53
 287.022460938 2043.93261719 287.022460938 2043.93261719 254.737304688 2045.08007812 c 0,54,55
 207.044921875 2045.08007812 207.044921875 2045.08007812 153.623046875 1982.38476562 c 0,56,57
 148.3046875 1975.92382812 148.3046875 1975.92382812 144.857421875 1971.28027344 c 1,56,57
 151.256835938 1973.60742188 151.256835938 1973.60742188 163.583984375 1979.06054688 c 0,58,59
 186.32421875 1988.70019531 186.32421875 1988.70019531 197.336914062 1990.95996094 c 0,58,59
 242.333007812 2000.03515625 242.333007812 2000.03515625 340.017578125 1986.04003906 c 1,50,51
120.256835938 1940.12011719 m 1,60,61
 99.3486328125 1922.26660156 99.3486328125 1922.26660156 82.537109375 1882.71972656 c 0,62,63
 74.6103515625 1866.86621094 74.6103515625 1866.86621094 75.9775390625 1861.40039062 c 0,64,65
 77.6171875 1851.55957031 77.6171875 1851.55957031 92.55078125 1832.06445312 c 2,66,-1
 94.017578125 1830.24023438 l 1,66,67
 137.6328125 1784.33105469 137.6328125 1784.33105469 171.09765625 1767.91992188 c 1,68,-1
 153.057617188 1758.08007812 l 1,69,-1
 171.09765625 1744.95996094 l 1,70,-1
 153.057617188 1735.12011719 l 1,71,-1
 171.09765625 1722 l 1,72,-1
 85.8173828125 1674.44042969 l 1,73,-1
 85.8173828125 1672.79980469 l 1,74,75
 124.240234375 1682.171875 124.240234375 1682.171875 201.0859375 1705.19824219 c 0,76,77
 259.266601562 1722.58203125 259.266601562 1722.58203125 287.537109375 1730.20019531 c 0,76,77
 297.376953125 1732.66015625 297.376953125 1732.66015625 317.876953125 1736.75976562 c 0,78,79
 338.868164062 1741.03417969 338.868164062 1741.03417969 348.217773438 1743.3203125 c 0,78,79
 374.30859375 1748.53808594 374.30859375 1748.53808594 376.09765625 1749.87988281 c 0,80,81
 380.046875 1755.05957031 380.046875 1755.05957031 389.217773438 1790.87988281 c 1,82,83
 244.551757812 1765.20214844 244.551757812 1765.20214844 169.45703125 1818.75976562 c 1,84,85
 128.329101562 1851.30664062 128.329101562 1851.30664062 121.897460938 1877.79980469 c 0,86,87
 114.115234375 1906.3359375 114.115234375 1906.3359375 120.256835938 1940.12011719 c 1,60,61
EndSplineSet
EndChar

StartChar: uniFE85
Encoding: 1572 1572 341
AltUni2: 00fe85.ffffffff.0
Width: 807
VWidth: 1639
GlyphClass: 2
Flags: W
LayerCount: 2
Fore
SplineSet
514.926757812 -14.759765625 m 1,0,1
 481.70703125 -14.759765625 481.70703125 -14.759765625 415.8203125 -18.2412109375 c 0,2,3
 312.787109375 -23.6845703125 312.787109375 -23.6845703125 260.727539062 -19.6796875 c 0,2,3
 164.83203125 -12.265625 164.83203125 -12.265625 121.327148438 42.6396484375 c 1,4,5
 78.4345703125 99.8408203125 78.4345703125 99.8408203125 88.52734375 226.3203125 c 0,6,7
 99.0419921875 369.409179688 99.0419921875 369.409179688 177.086914062 498.559570312 c 0,8,9
 224.208984375 577.448242188 224.208984375 577.448242188 283.6875 605.16015625 c 1,10,11
 316.78515625 618.326171875 316.78515625 618.326171875 387.006835938 615 c 0,12,13
 571.34765625 605.640625 571.34765625 605.640625 634.647460938 283.719726562 c 0,14,15
 650.956054688 196.475585938 650.956054688 196.475585938 651.046875 75.4404296875 c 0,16,17
 650.663085938 -71.5712890625 650.663085938 -71.5712890625 626.447265625 -175.48046875 c 0,18,19
 566.830078125 -425.872070312 566.830078125 -425.872070312 374.296875 -601.104492188 c 0,20,21
 361.919921875 -612.258789062 361.919921875 -612.258789062 350.926757812 -621.559570312 c 0,20,21
 330.154296875 -642.333007812 330.154296875 -642.333007812 314.84765625 -646.16015625 c 0,22,23
 295.817382812 -652.502929688 295.817382812 -652.502929688 217.321289062 -646.545898438 c 0,24,25
 213.501953125 -646.283203125 213.501953125 -646.283203125 211.52734375 -646.16015625 c 0,24,25
 56.3701171875 -636.323242188 56.3701171875 -636.323242188 -21.3525390625 -624.83984375 c 0,26,27
 -67.2724609375 -617.775390625 -67.2724609375 -617.775390625 -86.953125 -611.719726562 c 0,28,29
 -116.990234375 -604.2109375 -116.990234375 -604.2109375 -94.1005859375 -590.842773438 c 0,30,31
 -91.3583984375 -589.359375 -91.3583984375 -589.359375 -90.232421875 -588.759765625 c 1,30,31
 -115.895507812 -580.206054688 -115.895507812 -580.206054688 -93.54296875 -567.556640625 c 0,32,33
 -91.0712890625 -566.244140625 -91.0712890625 -566.244140625 -90.232421875 -565.799804688 c 1,32,33
 -121.848632812 -555.26171875 -121.848632812 -555.26171875 -74.7421875 -536.919921875 c 0,34,35
 -69.017578125 -534.680664062 -69.017578125 -534.680664062 -68.9130859375 -534.639648438 c 0,34,35
 39.177734375 -501.094726562 39.177734375 -501.094726562 73.767578125 -483.799804688 c 0,36,37
 312.259765625 -370.249023438 312.259765625 -370.249023438 439.487304688 -191.879882812 c 0,38,39
 514.926757812 -85.578125 514.926757812 -85.578125 514.926757812 -14.759765625 c 1,0,1
1.607421875 -575.639648438 m 1,40,41
 4.91796875 -575.868164062 4.91796875 -575.868164062 73.767578125 -585.48046875 c 0,42,43
 119.53125 -590.905273438 119.53125 -590.905273438 195.126953125 -596.959960938 c 1,44,45
 260.716796875 -605.400390625 260.716796875 -605.400390625 278.767578125 -595.3203125 c 0,46,47
 341.373046875 -556.8359375 341.373046875 -556.8359375 428.006835938 -446.080078125 c 0,48,49
 625.541992188 -191.196289062 625.541992188 -191.196289062 599.728515625 143.629882812 c 0,50,51
 595.735351562 193.209960938 595.735351562 193.209960938 587.086914062 241.080078125 c 0,50,51
 540.9453125 496.694335938 540.9453125 496.694335938 408.327148438 554.3203125 c 0,52,53
 378.336914062 566.939453125 378.336914062 566.939453125 359.126953125 567.440429688 c 1,54,55
 300.14453125 561.919921875 300.14453125 561.919921875 242.6875 483.799804688 c 1,56,57
 169.090820312 379.529296875 169.090820312 379.529296875 142.647460938 249.280273438 c 1,58,59
 126.119140625 157.885742188 126.119140625 157.885742188 157.407226562 101.6796875 c 1,60,61
 194.165039062 44.7412109375 194.165039062 44.7412109375 278.767578125 29.51953125 c 0,62,63
 292.591796875 27.607421875 292.591796875 27.607421875 373.88671875 27.8798828125 c 1,64,65
 560.84765625 32.7998046875 560.84765625 32.7998046875 560.84765625 32.7998046875 c 1,66,67
 560.84765625 -70.97265625 560.84765625 -70.97265625 559.950195312 -77.916015625 c 0,68,69
 557.21484375 -96.7822265625 557.21484375 -96.7822265625 552.647460938 -111.51953125 c 0,68,69
 535.350585938 -170.5546875 535.350585938 -170.5546875 472.287109375 -255.83984375 c 0,70,71
 344.305664062 -424.872070312 344.305664062 -424.872070312 134.447265625 -523.16015625 c 0,72,73
 127.005859375 -526.880859375 127.005859375 -526.880859375 18.0732421875 -567.587890625 c 0,74,75
 8.576171875 -571.188476562 8.576171875 -571.188476562 1.607421875 -574 c 1,74,-1
 1.607421875 -575.639648438 l 1,40,41
298.447265625 429.6796875 m 0,75,76
 437.212890625 446.721679688 437.212890625 446.721679688 505.076171875 331.62890625 c 0,77,78
 509.775390625 323.416015625 509.775390625 323.416015625 513.287109375 316.51953125 c 0,77,78
 533.23828125 278.6484375 533.23828125 278.6484375 536.247070312 214.83984375 c 1,79,80
 541.162109375 186.33984375 541.162109375 186.33984375 536.247070312 177.120117188 c 1,81,82
 532.25 173.262695312 532.25 173.262695312 510.006835938 168.919921875 c 0,83,84
 433.115234375 156.426757812 433.115234375 156.426757812 331.247070312 159.080078125 c 1,85,86
 249.7265625 163.517578125 249.7265625 163.517578125 214.807617188 191.879882812 c 1,87,88
 188.491210938 216.62109375 188.491210938 216.62109375 185.287109375 277.16015625 c 1,89,90
 185.856445312 328.263671875 185.856445312 328.263671875 191.84765625 346.040039062 c 0,91,92
 212.19140625 411.592773438 212.19140625 411.592773438 287.541992188 427.760742188 c 0,93,94
 293.791015625 428.984375 293.791015625 428.984375 298.447265625 429.6796875 c 0,75,76
487.046875 219.759765625 m 1,93,94
 473.982421875 266.68359375 473.982421875 266.68359375 444.407226562 306.6796875 c 0,95,96
 394.686523438 377.709960938 394.686523438 377.709960938 338.74609375 380.443359375 c 0,97,98
 334.983398438 380.505859375 334.983398438 380.505859375 332.88671875 380.48046875 c 0,97,98
 287.674804688 380.48046875 287.674804688 380.48046875 252.319335938 329.8359375 c 0,99,100
 247.374023438 322.322265625 247.374023438 322.322265625 244.327148438 316.51953125 c 0,99,100
 233.056640625 294.416992188 233.056640625 294.416992188 236.126953125 278.799804688 c 0,101,102
 248.815429688 229.817382812 248.815429688 229.817382812 314.84765625 213.200195312 c 0,103,104
 342.7109375 205.140625 342.7109375 205.140625 382.086914062 205 c 0,105,106
 411.627929688 205.30859375 411.627929688 205.30859375 487.046875 219.759765625 c 1,93,94
291.88671875 844.599609375 m 1,0,1
 220.737304688 880.96484375 220.737304688 880.96484375 227.092773438 971.408203125 c 0,2,3
 230.650390625 1011.52246094 230.650390625 1011.52246094 249.247070312 1044.6796875 c 0,2,3
 317.254882812 1160.62695312 317.254882812 1160.62695312 403.407226562 1185.71972656 c 0,4,5
 416.088867188 1189.40722656 416.088867188 1189.40722656 464.086914062 1189 c 0,6,7
 505.295898438 1188.42578125 505.295898438 1188.42578125 518.20703125 1184.08007812 c 0,8,9
 585.02734375 1164.68066406 585.02734375 1164.68066406 601.723632812 1096.44921875 c 0,10,11
 604.31640625 1084.66601562 604.31640625 1084.66601562 605.126953125 1074.20019531 c 0,10,11
 602.067382812 1031.21582031 602.067382812 1031.21582031 598.567382812 1026.63964844 c 1,12,13
 592.966796875 1024.20996094 592.966796875 1024.20996094 565.767578125 1025 c 0,14,15
 536.21875 1025.43554688 536.21875 1025.43554688 531.327148438 1026.63964844 c 0,16,17
 522.310546875 1028.33007812 522.310546875 1028.33007812 503.763671875 1033.68457031 c 0,18,19
 467.075195312 1043.71777344 467.075195312 1043.71777344 449.327148438 1043.04003906 c 1,18,19
 422.1484375 1037.90332031 422.1484375 1037.90332031 391.926757812 1020.08007812 c 1,20,21
 378.916992188 1004.73730469 378.916992188 1004.73730469 378.807617188 1002.04003906 c 0,22,23
 378.807617188 998.759765625 378.807617188 998.759765625 381.267578125 995.48046875 c 0,24,25
 383.727539062 992.200195312 383.727539062 992.200195312 386.1875 988.919921875 c 0,26,27
 388.647460938 985.639648438 388.647460938 985.639648438 392.747070312 981.540039062 c 0,28,29
 396.84765625 977.440429688 396.84765625 977.440429688 399.307617188 975.799804688 c 0,30,31
 401.767578125 974.16015625 401.767578125 974.16015625 406.6875 970.059570312 c 2,32,-1
 411.607421875 965.959960938 l 1,24,25
 476.005859375 915.872070312 476.005859375 915.872070312 560.84765625 936.440429688 c 0,26,27
 595.436523438 943.3671875 595.436523438 943.3671875 626.447265625 941.360351562 c 1,28,29
 646.126953125 941.360351562 l 1,30,31
 653.399414062 935.30078125 653.399414062 935.30078125 647.767578125 906.919921875 c 1,32,33
 641.470703125 855.912109375 641.470703125 855.912109375 633.006835938 826.559570312 c 0,34,35
 627.3203125 802.885742188 627.3203125 802.885742188 624.807617188 800.3203125 c 0,36,37
 619.930664062 797.39453125 619.930664062 797.39453125 605.633789062 795.038085938 c 0,38,39
 595.677734375 793.182617188 595.677734375 793.182617188 592.006835938 792.120117188 c 0,38,39
 564.149414062 786.793945312 564.149414062 786.793945312 513.287109375 774.080078125 c 0,40,41
 369.783203125 739.391601562 369.783203125 739.391601562 270.567382812 700.280273438 c 1,42,-1
 270.567382812 708.48046875 l 1,43,-1
 247.607421875 700.280273438 l 1,44,-1
 247.607421875 708.48046875 l 1,45,-1
 224.647460938 700.280273438 l 1,46,-1
 224.647460938 774.080078125 l 1,47,-1
 226.287109375 803.599609375 l 1,48,-1
 245.966796875 818.360351562 l 1,49,-1
 291.88671875 844.599609375 l 1,0,1
542.807617188 1082.40039062 m 1,50,51
 536.538085938 1095.18945312 536.538085938 1095.18945312 519.84765625 1111.91992188 c 0,52,53
 489.8125 1140.29199219 489.8125 1140.29199219 457.52734375 1141.44042969 c 0,54,55
 409.834960938 1141.44042969 409.834960938 1141.44042969 356.412109375 1078.74511719 c 0,56,57
 351.094726562 1072.28320312 351.094726562 1072.28320312 347.647460938 1067.63964844 c 1,56,57
 354.046875 1069.96679688 354.046875 1069.96679688 366.374023438 1075.42089844 c 0,58,59
 388.487304688 1085.203125 388.487304688 1085.203125 400.126953125 1087.3203125 c 0,58,59
 445.123046875 1096.39550781 445.123046875 1096.39550781 542.807617188 1082.40039062 c 1,50,51
323.046875 1036.48046875 m 1,60,61
 302.138671875 1018.62597656 302.138671875 1018.62597656 285.327148438 979.080078125 c 0,62,63
 277.400390625 963.2265625 277.400390625 963.2265625 278.767578125 957.759765625 c 0,64,65
 280.407226562 947.919921875 280.407226562 947.919921875 295.340820312 928.424804688 c 2,66,-1
 296.807617188 926.599609375 l 1,66,67
 340.421875 880.69140625 340.421875 880.69140625 373.88671875 864.280273438 c 1,68,-1
 355.84765625 854.440429688 l 1,69,-1
 373.88671875 841.3203125 l 1,70,-1
 355.84765625 831.48046875 l 1,71,-1
 373.88671875 818.360351562 l 1,72,-1
 288.607421875 770.799804688 l 1,73,-1
 288.607421875 769.16015625 l 1,74,75
 327.030273438 778.53125 327.030273438 778.53125 403.875976562 801.55859375 c 0,76,77
 462.056640625 818.942382812 462.056640625 818.942382812 490.327148438 826.559570312 c 0,76,77
 500.166992188 829.01953125 500.166992188 829.01953125 520.666992188 833.120117188 c 0,78,79
 541.658203125 837.393554688 541.658203125 837.393554688 551.006835938 839.6796875 c 0,78,79
 577.09765625 844.8984375 577.09765625 844.8984375 578.88671875 846.240234375 c 0,80,81
 582.836914062 851.419921875 582.836914062 851.419921875 592.006835938 887.240234375 c 1,82,83
 447.341796875 861.5625 447.341796875 861.5625 372.247070312 915.120117188 c 1,84,85
 331.119140625 947.666015625 331.119140625 947.666015625 324.6875 974.16015625 c 0,86,87
 316.904296875 1002.69628906 316.904296875 1002.69628906 323.046875 1036.48046875 c 1,60,61
EndSplineSet
AlternateSubs2: "gsub_alternate_dfl_aalt_arab_FAR_Lookup_01_Subtable_01" uniFE86 uniFE85
Substitution2: "gsub_single_rtl_fina_arab_FAR_Lookup_01_Subtable_01" uniFE86
EndChar

StartChar: uniFE86
Encoding: 65158 65158 342
Width: 718
VWidth: 1639
GlyphClass: 2
Flags: W
LayerCount: 2
Fore
SplineSet
461.797851562 -22.9599609375 m 1,0,-1
 289.598632812 -22.9599609375 l 2,1,2
 177.663085938 -22.271484375 177.663085938 -22.271484375 127.23828125 0 c 1,3,4
 19.689453125 51.77734375 19.689453125 51.77734375 35.3984375 224.6796875 c 1,5,6
 57.8369140625 441.247070312 57.8369140625 441.247070312 164.958007812 555.959960938 c 0,7,8
 238.211914062 633.522460938 238.211914062 633.522460938 349.803710938 613.129882812 c 0,9,10
 425.854492188 597.995117188 425.854492188 597.995117188 474.91796875 542.83984375 c 1,9,10
 514.537109375 493.979492188 514.537109375 493.979492188 547.078125 411.639648438 c 0,11,12
 588.049804688 303.672851562 588.049804688 303.672851562 592.998046875 206.639648438 c 1,13,-1
 748.797851562 206.639648438 l 1,14,-1
 748.797851562 160.719726562 l 1,15,-1
 547.078125 160.719726562 l 1,16,17
 538.504882812 266.111328125 538.504882812 266.111328125 506.078125 352.599609375 c 1,18,19
 471.571289062 437.299804688 471.571289062 437.299804688 442.118164062 478.879882812 c 0,20,21
 400.142578125 535.647460938 400.142578125 535.647460938 343.71875 557.599609375 c 0,22,23
 316.666992188 566.985351562 316.666992188 566.985351562 302.71875 565.799804688 c 0,24,25
 237.868164062 556.38671875 237.868164062 556.38671875 178.078125 465.759765625 c 0,26,27
 159.3046875 437.086914062 159.3046875 437.086914062 143.638671875 403.440429688 c 0,28,29
 24.7099609375 169.298828125 24.7099609375 169.298828125 132.99609375 72.662109375 c 0,30,31
 145.484375 62.041015625 145.484375 62.041015625 158.3984375 54.1201171875 c 0,30,31
 215.36328125 23.025390625 215.36328125 23.025390625 330.598632812 22.9599609375 c 2,32,-1
 507.71875 22.9599609375 l 1,33,34
 507.71875 -80.1884765625 507.71875 -80.1884765625 504.069335938 -98.9072265625 c 0,35,36
 502.5390625 -106.185546875 502.5390625 -106.185546875 501.158203125 -111.51953125 c 0,35,36
 476.430664062 -189.40234375 476.430664062 -189.40234375 396.198242188 -285.360351562 c 0,37,38
 232.9765625 -481.387695312 232.9765625 -481.387695312 -51.521484375 -574 c 1,39,-1
 -51.521484375 -575.639648438 l 1,40,41
 -33.93359375 -575.639648438 -33.93359375 -575.639648438 2.376953125 -582.13671875 c 0,42,43
 23.466796875 -585.909179688 23.466796875 -585.909179688 33.7578125 -587.120117188 c 0,42,43
 140.358398438 -596.810546875 140.358398438 -596.810546875 143.638671875 -596.959960938 c 0,44,45
 149.169921875 -597.385742188 149.169921875 -597.385742188 161.846679688 -599.16015625 c 0,46,47
 201.303710938 -603.965820312 201.303710938 -603.965820312 215.797851562 -598.599609375 c 0,46,47
 231.567382812 -592.537109375 231.567382812 -592.537109375 266.638671875 -560.879882812 c 0,48,49
 316.451171875 -513.627929688 316.451171875 -513.627929688 346.998046875 -477.240234375 c 0,50,51
 485.28515625 -315.373046875 485.28515625 -315.373046875 530.678710938 -108.240234375 c 0,52,53
 548.71875 -30.06640625 548.71875 -30.06640625 548.71875 22.9599609375 c 1,54,-1
 748.797851562 22.9599609375 l 1,55,-1
 748.797851562 -22.9599609375 l 1,56,-1
 594.638671875 -22.9599609375 l 1,57,58
 594.638671875 -251.451171875 594.638671875 -251.451171875 436.86328125 -469.018554688 c 0,59,60
 415.134765625 -498.702148438 415.134765625 -498.702148438 392.91796875 -524.799804688 c 0,59,60
 345.58203125 -579.922851562 345.58203125 -579.922851562 302.71875 -616.639648438 c 0,61,62
 270.879882812 -643.49609375 270.879882812 -643.49609375 258.438476562 -647.799804688 c 1,63,64
 238.80078125 -651.108398438 238.80078125 -651.108398438 158.3984375 -646.16015625 c 0,65,66
 47.6982421875 -641.240234375 47.6982421875 -641.240234375 -63.001953125 -626.48046875 c 0,67,68
 -115.9375 -619.645507812 -115.9375 -619.645507812 -140.08203125 -613.360351562 c 0,69,70
 -162.7265625 -607.18359375 -162.7265625 -607.18359375 -153.158203125 -596.243164062 c 0,71,72
 -149.819335938 -592.424804688 -149.819335938 -592.424804688 -141.721679688 -590.400390625 c 1,71,-1
 -141.721679688 -588.759765625 l 1,72,73
 -164.551757812 -582.533203125 -164.551757812 -582.533203125 -150.657226562 -571.733398438 c 0,74,75
 -145.926757812 -568.954101562 -145.926757812 -568.954101562 -141.721679688 -567.440429688 c 1,74,-1
 -141.721679688 -565.799804688 l 1,75,76
 -175.12890625 -556.348632812 -175.12890625 -556.348632812 -123.681640625 -536.280273438 c 0,77,78
 -105.178710938 -528.87890625 -105.178710938 -528.87890625 -66.771484375 -516.727539062 c 0,79,80
 -19.412109375 -501.551757812 -19.412109375 -501.551757812 2.5986328125 -492 c 0,79,80
 236.249023438 -391.506835938 236.249023438 -391.506835938 373.23828125 -209.919921875 c 1,81,82
 451.951171875 -102.407226562 451.951171875 -102.407226562 461.797851562 -22.9599609375 c 1,0,-1
238.7578125 428.040039062 m 0,83,84
 378.016601562 445.447265625 378.016601562 445.447265625 444.8828125 338.30859375 c 0,85,86
 450.791992188 328.514648438 450.791992188 328.514648438 455.23828125 319.799804688 c 0,85,86
 481.125976562 266.276367188 481.125976562 266.276367188 481.478515625 209.919921875 c 0,87,88
 480.830078125 177.326171875 480.830078125 177.326171875 479.837890625 175.48046875 c 0,89,90
 475.840820312 171.622070312 475.840820312 171.622070312 453.598632812 167.280273438 c 0,91,92
 351.971679688 149.48828125 351.971679688 149.48828125 253.518554688 159.080078125 c 0,93,94
 190.4921875 166.352539062 190.4921875 166.352539062 160.038085938 190.240234375 c 1,95,96
 130.646484375 217.9921875 130.646484375 217.9921875 130.518554688 278.799804688 c 0,97,98
 130.995117188 329.01171875 130.995117188 329.01171875 135.438476562 344.400390625 c 0,99,100
 155.52734375 406.899414062 155.52734375 406.899414062 223.606445312 424.956054688 c 0,101,102
 231.959960938 426.979492188 231.959960938 426.979492188 238.7578125 428.040039062 c 0,83,84
430.638671875 218.120117188 m 1,101,102
 426.124023438 250.073242188 426.124023438 250.073242188 396.198242188 296.83984375 c 1,103,104
 375.272460938 326.015625 375.272460938 326.015625 343.71875 352.599609375 c 1,105,106
 304.935546875 379.60546875 304.935546875 379.60546875 276.478515625 380.48046875 c 1,107,108
 231.879882812 378.764648438 231.879882812 378.764648438 196.44921875 332.325195312 c 0,109,110
 177.981445312 306.427734375 177.981445312 306.427734375 178.078125 283.719726562 c 0,109,110
 181.264648438 221.594726562 181.264648438 221.594726562 281.466796875 206.147460938 c 0,111,112
 304.444335938 202.865234375 304.444335938 202.865234375 324.038085938 203.360351562 c 0,111,112
 363.717773438 205.39453125 363.717773438 205.39453125 430.638671875 218.120117188 c 1,101,102
389.638671875 870.83984375 m 1,0,1
 318.489257812 907.205078125 318.489257812 907.205078125 324.84375 997.6484375 c 0,2,3
 328.401367188 1037.76171875 328.401367188 1037.76171875 346.998046875 1070.91992188 c 0,2,3
 415.005859375 1186.8671875 415.005859375 1186.8671875 501.158203125 1211.95996094 c 0,4,5
 513.83984375 1215.64746094 513.83984375 1215.64746094 561.837890625 1215.24023438 c 0,6,7
 603.046875 1214.66601562 603.046875 1214.66601562 615.958007812 1210.3203125 c 0,8,9
 682.779296875 1190.92089844 682.779296875 1190.92089844 699.474609375 1122.68945312 c 0,10,11
 702.067382812 1110.90625 702.067382812 1110.90625 702.877929688 1100.44042969 c 0,10,11
 699.818359375 1057.45605469 699.818359375 1057.45605469 696.318359375 1052.87988281 c 1,12,13
 690.717773438 1050.45019531 690.717773438 1050.45019531 663.518554688 1051.24023438 c 0,14,15
 633.969726562 1051.67578125 633.969726562 1051.67578125 629.078125 1052.87988281 c 0,16,17
 620.061523438 1054.5703125 620.061523438 1054.5703125 601.514648438 1059.92480469 c 0,18,19
 564.827148438 1069.95800781 564.827148438 1069.95800781 547.078125 1069.28027344 c 1,18,19
 519.899414062 1064.14355469 519.899414062 1064.14355469 489.678710938 1046.3203125 c 1,20,21
 476.668945312 1030.97753906 476.668945312 1030.97753906 476.55859375 1028.28027344 c 0,22,23
 476.55859375 1025 476.55859375 1025 479.018554688 1021.71972656 c 0,24,25
 481.478515625 1018.44042969 481.478515625 1018.44042969 483.938476562 1015.16015625 c 0,26,27
 486.3984375 1011.87988281 486.3984375 1011.87988281 490.498046875 1007.78027344 c 0,28,29
 494.598632812 1003.6796875 494.598632812 1003.6796875 497.05859375 1002.04003906 c 0,30,31
 499.518554688 1000.40039062 499.518554688 1000.40039062 504.438476562 996.299804688 c 2,32,-1
 509.358398438 992.200195312 l 1,24,25
 574.846679688 943.076171875 574.846679688 943.076171875 658.598632812 962.6796875 c 0,26,27
 693.1875 969.607421875 693.1875 969.607421875 724.198242188 967.599609375 c 1,28,29
 743.877929688 967.599609375 l 1,30,31
 751.150390625 961.540039062 751.150390625 961.540039062 745.518554688 933.16015625 c 1,32,33
 739.221679688 882.151367188 739.221679688 882.151367188 730.7578125 852.799804688 c 0,34,35
 725.071289062 829.125976562 725.071289062 829.125976562 722.55859375 826.559570312 c 0,36,37
 717.682617188 823.634765625 717.682617188 823.634765625 703.384765625 821.278320312 c 0,38,39
 693.428710938 819.422851562 693.428710938 819.422851562 689.7578125 818.360351562 c 0,38,39
 661.900390625 813.034179688 661.900390625 813.034179688 611.038085938 800.3203125 c 0,40,41
 467.534179688 765.631835938 467.534179688 765.631835938 368.318359375 726.51953125 c 1,42,-1
 368.318359375 734.719726562 l 1,43,-1
 345.358398438 726.51953125 l 1,44,-1
 345.358398438 734.719726562 l 1,45,-1
 322.3984375 726.51953125 l 1,46,-1
 322.3984375 800.3203125 l 1,47,-1
 324.038085938 829.83984375 l 1,48,-1
 343.71875 844.599609375 l 1,49,-1
 389.638671875 870.83984375 l 1,0,1
640.55859375 1108.63964844 m 1,50,51
 634.2890625 1121.42871094 634.2890625 1121.42871094 617.598632812 1138.16015625 c 0,52,53
 587.563476562 1166.53222656 587.563476562 1166.53222656 555.278320312 1167.6796875 c 0,54,55
 507.5859375 1167.6796875 507.5859375 1167.6796875 454.163085938 1104.98535156 c 0,56,57
 448.845703125 1098.5234375 448.845703125 1098.5234375 445.3984375 1093.87988281 c 1,56,57
 451.797851562 1096.20703125 451.797851562 1096.20703125 464.125 1101.66015625 c 0,58,59
 486.864257812 1111.29980469 486.864257812 1111.29980469 497.877929688 1113.55957031 c 0,58,59
 542.874023438 1122.63574219 542.874023438 1122.63574219 640.55859375 1108.63964844 c 1,50,51
420.797851562 1062.71972656 m 1,60,61
 399.889648438 1044.86621094 399.889648438 1044.86621094 383.078125 1005.3203125 c 0,62,63
 375.151367188 989.466796875 375.151367188 989.466796875 376.518554688 984 c 0,64,65
 378.158203125 974.16015625 378.158203125 974.16015625 393.091796875 954.665039062 c 2,66,-1
 394.55859375 952.83984375 l 1,66,67
 438.173828125 906.930664062 438.173828125 906.930664062 471.638671875 890.51953125 c 1,68,-1
 453.598632812 880.6796875 l 1,69,-1
 471.638671875 867.559570312 l 1,70,-1
 453.598632812 857.719726562 l 1,71,-1
 471.638671875 844.599609375 l 1,72,-1
 386.358398438 797.040039062 l 1,73,-1
 386.358398438 795.400390625 l 1,74,75
 424.78125 804.771484375 424.78125 804.771484375 501.626953125 827.798828125 c 0,76,77
 559.807617188 845.181640625 559.807617188 845.181640625 588.078125 852.799804688 c 0,76,77
 597.91796875 855.259765625 597.91796875 855.259765625 618.41796875 859.360351562 c 0,78,79
 639.409179688 863.633789062 639.409179688 863.633789062 648.7578125 865.919921875 c 0,78,79
 674.849609375 871.137695312 674.849609375 871.137695312 676.638671875 872.48046875 c 0,80,81
 680.587890625 877.66015625 680.587890625 877.66015625 689.7578125 913.48046875 c 1,82,83
 545.092773438 887.802734375 545.092773438 887.802734375 469.998046875 941.360351562 c 1,84,85
 428.870117188 973.90625 428.870117188 973.90625 422.438476562 1000.40039062 c 0,86,87
 414.655273438 1028.93554688 414.655273438 1028.93554688 420.797851562 1062.71972656 c 1,60,61
EndSplineSet
EndChar

StartChar: uniFE87
Encoding: 1573 1573 343
AltUni2: 00fe87.ffffffff.0
Width: 508
VWidth: 1639
GlyphClass: 2
Flags: W
LayerCount: 2
Fore
SplineSet
277.66015625 -37.7197265625 m 1,0,1
 267.138671875 -58.7626953125 267.138671875 -58.7626953125 259.028320312 -48.3369140625 c 0,2,3
 257.215820312 -44.8779296875 257.215820312 -44.8779296875 256.33984375 -42.6396484375 c 0,2,3
 253.06640625 -24.6826171875 253.06640625 -24.6826171875 253.059570312 8.2001953125 c 0,4,5
 252.989257812 48.150390625 252.989257812 48.150390625 244.860351562 237.799804688 c 0,6,7
 228.545898438 594.865234375 228.545898438 594.865234375 179.259765625 1105.36035156 c 0,8,9
 175.979492188 1138.98046875 175.979492188 1138.98046875 170.240234375 1207.04003906 c 0,10,11
 164.43359375 1275.62890625 164.43359375 1275.62890625 161.219726562 1308.71972656 c 0,10,11
 160.399414062 1318.55957031 160.399414062 1318.55957031 159.580078125 1337.41992188 c 0,12,13
 158.669921875 1356.88476562 158.669921875 1356.88476562 157.939453125 1366.12011719 c 2,12,13
 157.939453125 1398.91992188 l 1,14,15
 161.056640625 1403.50683594 161.056640625 1403.50683594 184.1796875 1425.16015625 c 0,16,17
 217.821289062 1458.56445312 217.821289062 1458.56445312 251.419921875 1487.48046875 c 0,18,19
 256.4921875 1492.09179688 256.4921875 1492.09179688 267.099609375 1503.34472656 c 0,20,21
 296.849609375 1533.59667969 296.849609375 1533.59667969 313.740234375 1539.95996094 c 1,20,-1
 317.01953125 1528.48046875 l 1,21,-1
 336.700195312 1539.95996094 l 1,22,-1
 339.979492188 1528.48046875 l 1,23,-1
 359.66015625 1539.95996094 l 1,24,25
 361.299804688 1535.04003906 361.299804688 1535.04003906 362.939453125 1530.94042969 c 0,26,27
 364.580078125 1526.83984375 364.580078125 1526.83984375 365.399414062 1519.45996094 c 0,28,29
 366.219726562 1512.08007812 366.219726562 1512.08007812 366.219726562 1508.79980469 c 0,30,31
 366.219726562 1505.51953125 366.219726562 1505.51953125 366.219726562 1496.5 c 2,32,-1
 366.219726562 1487.48046875 l 2,26,27
 366.219726562 1474.36035156 366.219726562 1474.36035156 367.860351562 1447.29980469 c 0,28,29
 369.436523438 1419.73632812 369.436523438 1419.73632812 369.5 1407.12011719 c 0,28,29
 370.158203125 1370.92285156 370.158203125 1370.92285156 372.529296875 1299.10742188 c 0,30,31
 376.024414062 1191.60058594 376.024414062 1191.60058594 376.059570312 1138.16015625 c 0,30,31
 376.059570312 983.1796875 376.059570312 983.1796875 379.33984375 672.400390625 c 0,32,33
 382.608398438 361.077148438 382.608398438 361.077148438 382.620117188 206.639648438 c 0,32,33
 381.916015625 85.9091796875 381.916015625 85.9091796875 349.8203125 13.1201171875 c 0,34,35
 340.047851562 -12.7353515625 340.047851562 -12.7353515625 325.219726562 -37.7197265625 c 1,36,37
 314.694335938 -50.3974609375 314.694335938 -50.3974609375 308.8203125 -50.83984375 c 1,38,39
 303.899414062 -49.2001953125 303.899414062 -49.2001953125 301.10546875 -39.208984375 c 2,40,-1
 300.620117188 -37.7197265625 l 1,40,41
 287.434570312 -57.9677734375 287.434570312 -57.9677734375 277.66015625 -37.7197265625 c 1,0,1
320.299804688 1462.87988281 m 1,42,43
 305.975585938 1451.83496094 305.975585938 1451.83496094 238.299804688 1387.44042969 c 0,44,45
 235.961914062 1385.1015625 235.961914062 1385.1015625 229.454101562 1379.70019531 c 0,46,47
 211.901367188 1363.90625 211.901367188 1363.90625 208.780273438 1356.28027344 c 0,46,47
 205.552734375 1347.87792969 205.552734375 1347.87792969 210.419921875 1321.83984375 c 1,48,49
 215.33984375 1262.79980469 l 2,50,51
 234.471679688 1043.19042969 234.471679688 1043.19042969 235.01953125 1038.12011719 c 0,52,53
 256.9375 803.114257812 256.9375 803.114257812 276.01953125 511.6796875 c 1,54,55
 298.8984375 202.813476562 298.8984375 202.813476562 298.979492188 49.2001953125 c 1,56,-1
 300.620117188 49.2001953125 l 1,57,58
 327.310546875 126.811523438 327.310546875 126.811523438 333.419921875 162.360351562 c 1,59,60
 336.790039062 194.314453125 336.790039062 194.314453125 336.700195312 296.83984375 c 0,61,62
 336.700195312 337.01953125 336.700195312 337.01953125 335.879882812 416.559570312 c 0,63,64
 335.071289062 496.661132812 335.071289062 496.661132812 335.059570312 536.280273438 c 0,63,64
 335.020507812 945.197265625 335.020507812 945.197265625 330.139648438 1149.63964844 c 0,65,66
 329.0390625 1184.86816406 329.0390625 1184.86816406 326.100585938 1254.89355469 c 0,67,68
 320.299804688 1393.1484375 320.299804688 1393.1484375 320.299804688 1462.87988281 c 1,42,43
129.240234375 -570.719726562 m 1,0,1
 58.0908203125 -534.354492188 58.0908203125 -534.354492188 64.4453125 -443.912109375 c 0,2,3
 68.0029296875 -403.797851562 68.0029296875 -403.797851562 86.599609375 -370.639648438 c 0,2,3
 154.607421875 -254.693359375 154.607421875 -254.693359375 240.759765625 -229.599609375 c 0,4,5
 253.44140625 -225.913085938 253.44140625 -225.913085938 301.439453125 -226.3203125 c 0,6,7
 342.6484375 -226.89453125 342.6484375 -226.89453125 355.559570312 -231.240234375 c 0,8,9
 422.380859375 -250.639648438 422.380859375 -250.639648438 439.076171875 -318.870117188 c 0,10,11
 441.668945312 -330.653320312 441.668945312 -330.653320312 442.479492188 -341.120117188 c 0,10,11
 439.419921875 -384.103515625 439.419921875 -384.103515625 435.919921875 -388.6796875 c 1,12,13
 430.319335938 -391.110351562 430.319335938 -391.110351562 403.120117188 -390.3203125 c 0,14,15
 373.571289062 -389.883789062 373.571289062 -389.883789062 368.6796875 -388.6796875 c 0,16,17
 359.6640625 -386.989257812 359.6640625 -386.989257812 341.116210938 -381.635742188 c 0,18,19
 304.98046875 -371.203125 304.98046875 -371.203125 286.6796875 -372.280273438 c 1,18,19
 259.500976562 -377.416992188 259.500976562 -377.416992188 229.280273438 -395.240234375 c 1,20,21
 216.270507812 -410.58203125 216.270507812 -410.58203125 216.16015625 -413.280273438 c 0,22,23
 220.426757812 -425.905273438 220.426757812 -425.905273438 248.959960938 -449.360351562 c 1,24,25
 314.448242188 -498.483398438 314.448242188 -498.483398438 398.200195312 -478.879882812 c 0,26,27
 432.7890625 -471.952148438 432.7890625 -471.952148438 463.799804688 -473.959960938 c 1,28,29
 483.479492188 -473.959960938 l 1,30,31
 490.751953125 -480.01953125 490.751953125 -480.01953125 485.120117188 -508.400390625 c 1,32,33
 478.823242188 -559.408203125 478.823242188 -559.408203125 470.360351562 -588.759765625 c 0,34,35
 464.672851562 -612.43359375 464.672851562 -612.43359375 462.16015625 -615 c 0,36,37
 457.284179688 -617.92578125 457.284179688 -617.92578125 442.986328125 -620.282226562 c 0,38,39
 433.030273438 -622.137695312 433.030273438 -622.137695312 429.360351562 -623.200195312 c 0,38,39
 401.501953125 -628.525390625 401.501953125 -628.525390625 350.639648438 -641.240234375 c 0,40,41
 207.688476562 -675.548828125 207.688476562 -675.548828125 107.919921875 -715.040039062 c 1,42,-1
 107.919921875 -706.83984375 l 1,43,-1
 84.9599609375 -715.040039062 l 1,44,-1
 84.9599609375 -706.83984375 l 1,45,-1
 62 -715.040039062 l 1,46,-1
 62 -641.240234375 l 1,47,-1
 63.6396484375 -611.719726562 l 1,48,-1
 83.3203125 -596.959960938 l 1,49,-1
 129.240234375 -570.719726562 l 1,0,1
380.16015625 -332.919921875 m 1,50,51
 373.890625 -320.130859375 373.890625 -320.130859375 357.200195312 -303.400390625 c 0,52,53
 327.165039062 -275.02734375 327.165039062 -275.02734375 294.879882812 -273.879882812 c 0,54,55
 247.1875 -273.879882812 247.1875 -273.879882812 193.765625 -336.575195312 c 0,56,57
 188.447265625 -343.036132812 188.447265625 -343.036132812 185 -347.6796875 c 1,56,57
 191.399414062 -345.352539062 191.399414062 -345.352539062 203.7265625 -339.899414062 c 0,58,59
 226.466796875 -330.259765625 226.466796875 -330.259765625 237.479492188 -328 c 0,58,59
 282.475585938 -318.924804688 282.475585938 -318.924804688 380.16015625 -332.919921875 c 1,50,51
160.399414062 -378.83984375 m 1,60,61
 139.491210938 -396.693359375 139.491210938 -396.693359375 122.6796875 -436.240234375 c 0,62,63
 114.752929688 -452.09375 114.752929688 -452.09375 116.120117188 -457.559570312 c 0,64,65
 118.701171875 -469.521484375 118.701171875 -469.521484375 134.16015625 -488.719726562 c 1,66,67
 177.775390625 -534.62890625 177.775390625 -534.62890625 211.240234375 -551.040039062 c 1,68,-1
 193.200195312 -560.879882812 l 1,69,-1
 211.240234375 -574 l 1,70,-1
 193.200195312 -583.83984375 l 1,71,-1
 211.240234375 -596.959960938 l 1,72,-1
 125.959960938 -644.51953125 l 1,73,-1
 125.959960938 -646.16015625 l 1,74,75
 164.3828125 -636.788085938 164.3828125 -636.788085938 241.228515625 -613.76171875 c 0,76,77
 299.409179688 -596.377929688 299.409179688 -596.377929688 327.6796875 -588.759765625 c 0,76,77
 337.51953125 -586.299804688 337.51953125 -586.299804688 358.01953125 -582.200195312 c 0,78,79
 379.010742188 -577.92578125 379.010742188 -577.92578125 388.360351562 -575.639648438 c 0,78,79
 414.451171875 -570.421875 414.451171875 -570.421875 416.240234375 -569.080078125 c 0,80,81
 420.189453125 -563.900390625 420.189453125 -563.900390625 429.360351562 -528.080078125 c 1,82,83
 284.694335938 -553.7578125 284.694335938 -553.7578125 209.599609375 -500.200195312 c 1,84,85
 168.471679688 -467.653320312 168.471679688 -467.653320312 162.040039062 -441.16015625 c 0,86,87
 154.2578125 -412.624023438 154.2578125 -412.624023438 160.399414062 -378.83984375 c 1,60,61
EndSplineSet
AlternateSubs2: "gsub_alternate_dfl_aalt_arab_FAR_Lookup_01_Subtable_01" uniFE88 uniFE87
Substitution2: "gsub_single_rtl_fina_arab_FAR_Lookup_01_Subtable_01" uniFE88
EndChar

StartChar: uniFE88
Encoding: 65160 65160 344
Width: 685
VWidth: 1639
GlyphClass: 2
Flags: W
LayerCount: 2
Fore
SplineSet
717 -22.9599609375 m 1,0,1
 565.936523438 -22.9599609375 565.936523438 -22.9599609375 547.8125 -21.07421875 c 0,2,3
 446.825195312 -9.396484375 446.825195312 -9.396484375 389 44.2802734375 c 1,2,3
 341.713867188 92.77734375 341.713867188 92.77734375 315.200195312 177.120117188 c 1,4,5
 289 273.069335938 289 273.069335938 288.959960938 449.360351562 c 0,6,7
 288.959960938 493.639648438 288.959960938 493.639648438 290.34375 582.200195312 c 0,8,9
 292.587890625 730.346679688 292.587890625 730.346679688 290.599609375 803.599609375 c 0,8,9
 283.685546875 1045.85839844 283.685546875 1045.85839844 254.51953125 1330.04003906 c 0,10,11
 249.92578125 1381.97070312 249.92578125 1381.97070312 254.51953125 1394 c 0,12,13
 257.805664062 1399.953125 257.805664062 1399.953125 275.83984375 1416.95996094 c 0,14,15
 284.040039062 1425.98046875 284.040039062 1425.98046875 301.259765625 1444.01953125 c 0,16,17
 318.931640625 1462.60644531 318.931640625 1462.60644531 326.6796875 1471.08007812 c 0,16,17
 329.391601562 1473.79101562 329.391601562 1473.79101562 335.791992188 1481.65625 c 0,18,19
 366.125 1515.35546875 366.125 1515.35546875 382.440429688 1503.87988281 c 1,18,19
 394.678710938 1512.85742188 394.678710938 1512.85742188 403.759765625 1503.87988281 c 1,20,-1
 405.400390625 1503.87988281 l 1,21,22
 421.495117188 1516.51464844 421.495117188 1516.51464844 428.360351562 1497.3203125 c 0,23,24
 431.413085938 1485.83691406 431.413085938 1485.83691406 439.83984375 1425.16015625 c 0,25,26
 442.495117188 1403.16113281 442.495117188 1403.16113281 458.64453125 1152.91992188 c 0,27,28
 459.135742188 1145.41503906 459.135742188 1145.41503906 459.51953125 1139.79980469 c 0,27,28
 462.850585938 1083.7578125 462.850585938 1083.7578125 462.799804688 898.719726562 c 2,29,-1
 462.799804688 533 l 2,30,31
 462.799804688 517.456054688 462.799804688 517.456054688 461.48046875 483.666015625 c 0,32,33
 456.077148438 345.240234375 456.077148438 345.240234375 486.822265625 289.608398438 c 0,34,35
 493.654296875 277.890625 493.654296875 277.890625 500.51953125 268.959960938 c 0,32,33
 546.916015625 208.065429688 546.916015625 208.065429688 665.938476562 206.55078125 c 0,34,35
 676.8203125 206.412109375 676.8203125 206.412109375 698.456054688 206.556640625 c 0,36,37
 710.873046875 206.639648438 710.873046875 206.639648438 717 206.639648438 c 1,34,-1
 717 160.719726562 l 1,35,36
 703.595703125 160.719726562 703.595703125 160.719726562 675.260742188 159.883789062 c 0,37,38
 545.306640625 156.048828125 545.306640625 156.048828125 493.819335938 186.518554688 c 0,39,40
 469.381835938 201.99609375 469.381835938 201.99609375 452.959960938 223.040039062 c 0,37,38
 416.955078125 272.721679688 416.955078125 272.721679688 416.879882812 382.120117188 c 2,39,-1
 416.879882812 578.919921875 l 2,40,41
 416.811523438 1012.13183594 416.811523438 1012.13183594 410.3203125 1167.6796875 c 0,42,43
 406.641601562 1233.08300781 406.641601562 1233.08300781 397.200195312 1346.44042969 c 0,44,45
 395.869140625 1359.08203125 395.869140625 1359.08203125 392.135742188 1383.77441406 c 0,46,47
 386.765625 1420.35253906 386.765625 1420.35253906 385.719726562 1438.28027344 c 1,46,47
 375.879882812 1427.62011719 375.879882812 1427.62011719 355.379882812 1406.29980469 c 0,48,49
 334.4140625 1384.43359375 334.4140625 1384.43359375 325.040039062 1374.3203125 c 0,48,49
 322.853515625 1371.58691406 322.853515625 1371.58691406 317.750976562 1366.484375 c 0,50,51
 307.822265625 1355.39355469 307.822265625 1355.39355469 305.360351562 1349.71972656 c 0,50,51
 305.360351562 1348.08007812 305.360351562 1348.08007812 304.540039062 1344.79980469 c 0,52,53
 303.719726562 1341.51953125 303.719726562 1341.51953125 303.719726562 1339.05957031 c 0,54,55
 303.719726562 1336.59960938 303.719726562 1336.59960938 304.540039062 1332.5 c 0,56,57
 305.360351562 1328.40039062 305.360351562 1328.40039062 305.360351562 1326.75976562 c 0,58,59
 305.360351562 1325.12011719 305.360351562 1325.12011719 306.1796875 1320.20019531 c 2,60,-1
 307 1315.28027344 l 2,52,53
 307.8203125 1302.16015625 307.8203125 1302.16015625 310.280273438 1276.74023438 c 0,54,55
 312.7421875 1250.72949219 312.7421875 1250.72949219 313.559570312 1238.20019531 c 0,54,55
 315.796875 1204.64160156 315.796875 1204.64160156 320.6484375 1137.96582031 c 0,56,57
 330.001953125 1008.91894531 330.001953125 1008.91894531 333.240234375 944.639648438 c 0,56,57
 336.5859375 875.239257812 336.5859375 875.239257812 336.51953125 544.48046875 c 0,58,59
 336.758789062 365.53125 336.758789062 365.53125 344.719726562 309.959960938 c 0,60,61
 371.969726562 118.110351562 371.969726562 118.110351562 484.120117188 55.759765625 c 0,62,63
 547.196289062 21.3544921875 547.196289062 21.3544921875 681.90234375 22.69921875 c 0,64,65
 708.620117188 22.9501953125 708.620117188 22.9501953125 717 22.9599609375 c 1,64,-1
 717 -22.9599609375 l 1,0,1
128.240234375 -473.959960938 m 1,0,1
 57.0908203125 -437.594726562 57.0908203125 -437.594726562 63.4453125 -347.151367188 c 0,2,3
 67.0029296875 -307.038085938 67.0029296875 -307.038085938 85.599609375 -273.879882812 c 0,2,3
 153.607421875 -157.93359375 153.607421875 -157.93359375 239.759765625 -132.83984375 c 0,4,5
 252.44140625 -129.15234375 252.44140625 -129.15234375 300.440429688 -129.559570312 c 0,6,7
 341.6484375 -130.133789062 341.6484375 -130.133789062 354.559570312 -134.48046875 c 0,8,9
 421.380859375 -153.879882812 421.380859375 -153.879882812 438.076171875 -222.110351562 c 0,10,11
 440.668945312 -233.893554688 440.668945312 -233.893554688 441.479492188 -244.360351562 c 0,10,11
 438.419921875 -287.34375 438.419921875 -287.34375 434.919921875 -291.919921875 c 1,12,13
 429.319335938 -294.350585938 429.319335938 -294.350585938 402.120117188 -293.559570312 c 0,14,15
 372.571289062 -293.124023438 372.571289062 -293.124023438 367.6796875 -291.919921875 c 0,16,17
 358.6640625 -290.229492188 358.6640625 -290.229492188 340.1171875 -284.875 c 0,18,19
 303.98046875 -274.443359375 303.98046875 -274.443359375 285.6796875 -275.51953125 c 1,18,19
 258.500976562 -280.657226562 258.500976562 -280.657226562 228.280273438 -298.48046875 c 1,20,21
 215.270507812 -313.822265625 215.270507812 -313.822265625 215.16015625 -316.51953125 c 0,22,23
 215.16015625 -319.799804688 215.16015625 -319.799804688 217.620117188 -323.080078125 c 0,24,25
 220.080078125 -326.360351562 220.080078125 -326.360351562 222.540039062 -329.639648438 c 0,26,27
 225 -332.919921875 225 -332.919921875 229.099609375 -337.01953125 c 0,28,29
 233.200195312 -341.120117188 233.200195312 -341.120117188 235.66015625 -342.759765625 c 0,30,31
 238.120117188 -344.400390625 238.120117188 -344.400390625 243.040039062 -348.5 c 2,32,-1
 247.959960938 -352.599609375 l 1,24,25
 313.448242188 -401.723632812 313.448242188 -401.723632812 397.200195312 -382.120117188 c 0,26,27
 431.790039062 -375.192382812 431.790039062 -375.192382812 462.799804688 -377.200195312 c 1,28,29
 482.479492188 -377.200195312 l 1,30,31
 489.751953125 -383.259765625 489.751953125 -383.259765625 484.120117188 -411.639648438 c 1,32,33
 477.823242188 -462.6484375 477.823242188 -462.6484375 469.360351562 -492 c 0,34,35
 463.672851562 -515.673828125 463.672851562 -515.673828125 461.16015625 -518.240234375 c 0,36,37
 456.284179688 -521.166015625 456.284179688 -521.166015625 441.986328125 -523.522460938 c 0,38,39
 432.030273438 -525.377929688 432.030273438 -525.377929688 428.360351562 -526.440429688 c 0,38,39
 400.501953125 -531.765625 400.501953125 -531.765625 349.639648438 -544.48046875 c 0,40,41
 206.135742188 -579.168945312 206.135742188 -579.168945312 106.919921875 -618.280273438 c 1,42,-1
 106.919921875 -610.080078125 l 1,43,-1
 83.9599609375 -618.280273438 l 1,44,-1
 83.9599609375 -610.080078125 l 1,45,-1
 61 -618.280273438 l 1,46,-1
 61 -544.48046875 l 1,47,-1
 62.6396484375 -514.959960938 l 1,48,-1
 82.3203125 -500.200195312 l 1,49,-1
 128.240234375 -473.959960938 l 1,0,1
379.16015625 -236.16015625 m 1,50,51
 372.890625 -223.37109375 372.890625 -223.37109375 356.200195312 -206.639648438 c 0,52,53
 326.165039062 -178.267578125 326.165039062 -178.267578125 293.879882812 -177.120117188 c 0,54,55
 246.1875 -177.120117188 246.1875 -177.120117188 192.765625 -239.814453125 c 0,56,57
 187.448242188 -246.276367188 187.448242188 -246.276367188 184 -250.919921875 c 1,56,57
 190.399414062 -248.592773438 190.399414062 -248.592773438 202.7265625 -243.139648438 c 0,58,59
 225.466796875 -233.5 225.466796875 -233.5 236.479492188 -231.240234375 c 0,58,59
 281.475585938 -222.1640625 281.475585938 -222.1640625 379.16015625 -236.16015625 c 1,50,51
159.400390625 -282.080078125 m 1,60,61
 138.491210938 -299.93359375 138.491210938 -299.93359375 121.6796875 -339.48046875 c 0,62,63
 113.752929688 -355.333007812 113.752929688 -355.333007812 115.120117188 -360.799804688 c 0,64,65
 116.759765625 -370.639648438 116.759765625 -370.639648438 131.693359375 -390.134765625 c 2,66,-1
 133.16015625 -391.959960938 l 1,66,67
 176.775390625 -437.869140625 176.775390625 -437.869140625 210.240234375 -454.280273438 c 1,68,-1
 192.200195312 -464.120117188 l 1,69,-1
 210.240234375 -477.240234375 l 1,70,-1
 192.200195312 -487.080078125 l 1,71,-1
 210.240234375 -500.200195312 l 1,72,-1
 124.959960938 -547.759765625 l 1,73,-1
 124.959960938 -549.400390625 l 1,74,75
 163.3828125 -540.028320312 163.3828125 -540.028320312 240.228515625 -517.001953125 c 0,76,77
 298.409179688 -499.618164062 298.409179688 -499.618164062 326.6796875 -492 c 0,76,77
 336.51953125 -489.540039062 336.51953125 -489.540039062 357.01953125 -485.440429688 c 0,78,79
 378.010742188 -481.166015625 378.010742188 -481.166015625 387.360351562 -478.879882812 c 0,78,79
 413.451171875 -473.662109375 413.451171875 -473.662109375 415.240234375 -472.3203125 c 0,80,81
 419.189453125 -467.140625 419.189453125 -467.140625 428.360351562 -431.3203125 c 1,82,83
 283.694335938 -456.997070312 283.694335938 -456.997070312 208.599609375 -403.440429688 c 1,84,85
 167.471679688 -370.893554688 167.471679688 -370.893554688 161.040039062 -344.400390625 c 0,86,87
 153.2578125 -315.864257812 153.2578125 -315.864257812 159.400390625 -282.080078125 c 1,60,61
EndSplineSet
EndChar

